<svg width="150" height="51" viewBox="0 0 150 51" fill="none" xmlns="http://www.w3.org/2000/svg">
<rect y="4" width="150" height="47" rx="10" fill="#F7F7F7"/>
<g clip-path="url(#clip0_81_690)">
<path d="M18.2582 39.4758C17.7062 39.1085 17.2169 38.6547 16.8092 38.1318C16.3608 37.592 15.9453 37.0258 15.565 36.436C14.6726 35.1286 13.9727 33.6997 13.4869 32.1931C12.9032 30.4431 12.6206 28.7658 12.6206 27.1251C12.6206 25.2929 13.017 23.6934 13.7922 22.3494C14.3669 21.2989 15.2118 20.4211 16.2396 19.8066C17.2356 19.188 18.3801 18.8494 19.5524 18.8266C19.9627 18.8266 20.4046 18.8861 20.8736 18.9999C21.2105 19.0953 21.6209 19.2458 22.1222 19.433C22.7601 19.6789 23.111 19.8294 23.23 19.8661C23.6036 20.0026 23.9177 20.0621 24.1645 20.0621C24.3517 20.0621 24.616 20.0026 24.9161 19.9116C25.085 19.8521 25.4035 19.7471 25.8594 19.552C26.3109 19.3875 26.6661 19.2466 26.9487 19.1416C27.3819 19.0139 27.801 18.8958 28.1746 18.8363C28.6175 18.7664 29.0671 18.7479 29.5142 18.7811C30.2891 18.8318 31.0524 18.996 31.7796 19.2685C32.9687 19.7471 33.9304 20.4944 34.6461 21.5566C34.3436 21.7431 34.0597 21.9582 33.7982 22.1989C33.2291 22.7034 32.7444 23.2957 32.3624 23.9533C31.863 24.852 31.6041 25.8643 31.6107 26.8924C31.6291 28.155 31.9529 29.2671 32.5907 30.2288C33.0597 30.9415 33.6692 31.5509 34.3819 32.0199C34.7467 32.2658 35.0609 32.4346 35.3619 32.5484C35.221 32.9859 35.0705 33.4094 34.8929 33.8294C34.49 34.7712 34.0018 35.6742 33.4342 36.527C32.9285 37.2611 32.5321 37.808 32.2311 38.172C31.7621 38.7276 31.3106 39.152 30.8547 39.4478C30.3534 39.7803 29.761 39.9579 29.159 39.9579C28.7513 39.9736 28.3437 39.9242 27.9515 39.8118C27.6146 39.698 27.2812 39.5746 26.9531 39.4338C26.612 39.2771 26.2602 39.1446 25.9005 39.0374C25.0112 38.809 24.0788 38.8075 23.1889 39.033C22.824 39.138 22.4731 39.2605 22.1266 39.411C21.6392 39.6158 21.3155 39.7531 21.1282 39.8118C20.7546 39.9211 20.367 39.9894 19.975 40.0121C19.3686 40.0121 18.8034 39.8389 18.2434 39.488L18.2582 39.4758ZM26.2557 17.9376C25.463 18.334 24.7061 18.5029 23.9545 18.4478C23.8364 17.6909 23.9545 16.9165 24.2686 16.0686C24.536 15.3503 24.9312 14.6863 25.435 14.1086C25.967 13.5005 26.6126 13.0021 27.3355 12.6413C28.1055 12.2449 28.8396 12.0305 29.5414 11.999C29.6324 12.7918 29.5414 13.5714 29.25 14.414C28.9803 15.1589 28.5859 15.8525 28.0836 16.465C27.5709 17.074 26.9417 17.5743 26.233 17.9368L26.2557 17.9376Z" fill="black"/>
</g>
<path d="M48.31 21.1C47.4433 21.1 46.7933 20.8567 46.36 20.37C45.9267 19.8767 45.6933 19.2167 45.66 18.39C45.6533 18.21 45.65 17.9167 45.65 17.51C45.65 17.0967 45.6533 16.7967 45.66 16.61C45.6933 15.7833 45.9267 15.1267 46.36 14.64C46.7933 14.1467 47.4433 13.9 48.31 13.9C48.9033 13.9 49.3967 14.01 49.79 14.23C50.1833 14.4433 50.4733 14.7167 50.66 15.05C50.8533 15.3767 50.96 15.7133 50.98 16.06V16.08C50.98 16.1333 50.96 16.1767 50.92 16.21C50.88 16.2433 50.83 16.26 50.77 16.26H50.57C50.45 16.26 50.3767 16.19 50.35 16.05C50.2233 15.4833 49.9933 15.0833 49.66 14.85C49.3267 14.6167 48.8767 14.5 48.31 14.5C47.6833 14.5 47.1967 14.6767 46.85 15.03C46.5033 15.3833 46.3167 15.9267 46.29 16.66C46.2833 16.84 46.28 17.1167 46.28 17.49C46.28 17.8633 46.2833 18.1467 46.29 18.34C46.3167 19.0733 46.5033 19.6167 46.85 19.97C47.1967 20.3233 47.6833 20.5 48.31 20.5C48.8767 20.5 49.3267 20.3833 49.66 20.15C49.9933 19.9167 50.2233 19.5167 50.35 18.95C50.3767 18.81 50.45 18.74 50.57 18.74H50.77C50.83 18.74 50.88 18.76 50.92 18.8C50.9667 18.8333 50.9867 18.88 50.98 18.94C50.96 19.2867 50.8533 19.6267 50.66 19.96C50.4733 20.2867 50.1833 20.56 49.79 20.78C49.3967 20.9933 48.9033 21.1 48.31 21.1ZM54.8237 21.1C53.1103 21.1 52.2303 20.18 52.1837 18.34C52.177 18.14 52.1737 17.86 52.1737 17.5C52.1737 17.14 52.177 16.86 52.1837 16.66C52.2103 15.7533 52.457 15.0667 52.9237 14.6C53.3903 14.1333 54.0237 13.9 54.8237 13.9C55.6237 13.9 56.257 14.1333 56.7237 14.6C57.1903 15.0667 57.437 15.7533 57.4637 16.66C57.477 17.06 57.4837 17.34 57.4837 17.5C57.4837 17.66 57.477 17.94 57.4637 18.34C57.417 20.18 56.537 21.1 54.8237 21.1ZM54.8237 20.5C55.4237 20.5 55.9003 20.32 56.2537 19.96C56.6137 19.5933 56.807 19.0367 56.8337 18.29C56.847 17.89 56.8537 17.6267 56.8537 17.5C56.8537 17.3733 56.847 17.11 56.8337 16.71C56.807 15.9633 56.6137 15.41 56.2537 15.05C55.8937 14.6833 55.417 14.5 54.8237 14.5C54.2303 14.5 53.7537 14.6833 53.3937 15.05C53.0337 15.41 52.8403 15.9633 52.8137 16.71C52.807 16.91 52.8037 17.1733 52.8037 17.5C52.8037 17.8267 52.807 18.09 52.8137 18.29C52.8403 19.0367 53.0303 19.5933 53.3837 19.96C53.7437 20.32 54.2237 20.5 54.8237 20.5ZM59.3048 21C59.2381 21 59.1814 20.98 59.1348 20.94C59.0948 20.9 59.0748 20.8467 59.0748 20.78V14.23C59.0748 14.1567 59.0948 14.1 59.1348 14.06C59.1814 14.02 59.2381 14 59.3048 14H59.5548C59.6548 14 59.7248 14.0433 59.7648 14.13L62.0348 18.55L64.3148 14.13C64.3614 14.0433 64.4314 14 64.5248 14H64.7648C64.8381 14 64.8948 14.02 64.9348 14.06C64.9748 14.1 64.9948 14.1567 64.9948 14.23V20.78C64.9948 20.8467 64.9714 20.9 64.9248 20.94C64.8848 20.98 64.8314 21 64.7648 21H64.5848C64.5181 21 64.4648 20.98 64.4248 20.94C64.3848 20.9 64.3648 20.8467 64.3648 20.78V15.36L62.4548 19.12C62.3948 19.2533 62.2914 19.32 62.1448 19.32H61.9248C61.7781 19.32 61.6748 19.2533 61.6148 19.12L59.7048 15.36V20.78C59.7048 20.8467 59.6848 20.9 59.6448 20.94C59.6048 20.98 59.5514 21 59.4848 21H59.3048ZM67.0975 21C67.0308 21 66.9775 20.98 66.9375 20.94C66.8975 20.9 66.8775 20.8467 66.8775 20.78V14.22C66.8775 14.1533 66.8975 14.1 66.9375 14.06C66.9775 14.02 67.0308 14 67.0975 14H67.2875C67.3542 14 67.4075 14.02 67.4475 14.06C67.4875 14.1 67.5075 14.1533 67.5075 14.22V20.78C67.5075 20.8467 67.4875 20.9 67.4475 20.94C67.4075 20.98 67.3542 21 67.2875 21H67.0975ZM69.6073 21C69.5406 21 69.4873 20.98 69.4473 20.94C69.4073 20.9 69.3873 20.8467 69.3873 20.78V14.23C69.3873 14.1633 69.4073 14.11 69.4473 14.07C69.4873 14.0233 69.5406 14 69.6073 14H69.8173C69.9039 14 69.9739 14.04 70.0273 14.12L73.7173 19.76V14.23C73.7173 14.1633 73.7373 14.11 73.7773 14.07C73.8173 14.0233 73.8706 14 73.9373 14H74.1173C74.1906 14 74.2473 14.02 74.2873 14.06C74.3273 14.1 74.3473 14.1567 74.3473 14.23V20.77C74.3473 20.8367 74.3273 20.8933 74.2873 20.94C74.2473 20.98 74.1939 21 74.1273 21H73.9073C73.8206 21 73.7506 20.96 73.6973 20.88L70.0173 15.26V20.78C70.0173 20.8467 69.9939 20.9 69.9473 20.94C69.9073 20.98 69.8539 21 69.7873 21H69.6073ZM78.6232 21.1C77.7899 21.1 77.1432 20.86 76.6832 20.38C76.2232 19.9 75.9799 19.2567 75.9532 18.45C75.9465 18.25 75.9432 17.9333 75.9432 17.5C75.9432 17.0667 75.9465 16.75 75.9532 16.55C75.9799 15.7433 76.2232 15.1 76.6832 14.62C77.1432 14.14 77.7899 13.9 78.6232 13.9C79.1899 13.9 79.6665 14.0067 80.0532 14.22C80.4399 14.4333 80.7265 14.6867 80.9132 14.98C81.1065 15.2667 81.2099 15.5233 81.2232 15.75V15.77C81.2232 15.8233 81.2032 15.8667 81.1632 15.9C81.1232 15.9333 81.0732 15.95 81.0132 15.95H80.7932C80.7332 15.95 80.6899 15.9367 80.6632 15.91C80.6365 15.8833 80.6099 15.83 80.5832 15.75C80.4699 15.3967 80.2499 15.1 79.9232 14.86C79.6032 14.62 79.1699 14.5 78.6232 14.5C78.0032 14.5 77.5132 14.67 77.1532 15.01C76.7999 15.35 76.6099 15.88 76.5832 16.6C76.5765 16.8 76.5732 17.1 76.5732 17.5C76.5732 17.9 76.5765 18.2 76.5832 18.4C76.6099 19.12 76.7999 19.65 77.1532 19.99C77.5132 20.33 78.0032 20.5 78.6232 20.5C79.2432 20.5 79.7432 20.3233 80.1232 19.97C80.5032 19.6167 80.6932 19.0933 80.6932 18.4V17.89H78.9532C78.8865 17.89 78.8332 17.87 78.7932 17.83C78.7532 17.7833 78.7332 17.7267 78.7332 17.66V17.52C78.7332 17.4533 78.7532 17.4 78.7932 17.36C78.8332 17.3133 78.8865 17.29 78.9532 17.29H81.0932C81.1665 17.29 81.2232 17.31 81.2632 17.35C81.3032 17.39 81.3232 17.4467 81.3232 17.52V18.4C81.3232 18.9333 81.2165 19.4033 81.0032 19.81C80.7899 20.2167 80.4799 20.5333 80.0732 20.76C79.6665 20.9867 79.1832 21.1 78.6232 21.1ZM87.542 21.1C87.022 21.1 86.5686 21.0167 86.182 20.85C85.802 20.6767 85.5086 20.4533 85.302 20.18C85.102 19.9067 84.9953 19.6133 84.982 19.3C84.982 19.2467 85.002 19.2 85.042 19.16C85.082 19.12 85.132 19.1 85.192 19.1H85.392C85.512 19.1 85.5853 19.1667 85.612 19.3C85.6586 19.62 85.842 19.9 86.162 20.14C86.482 20.38 86.942 20.5 87.542 20.5C88.1753 20.5 88.6453 20.3867 88.952 20.16C89.2653 19.9267 89.422 19.6033 89.422 19.19C89.422 18.9367 89.3453 18.73 89.192 18.57C89.0453 18.4033 88.8286 18.26 88.542 18.14C88.2553 18.0133 87.822 17.8567 87.242 17.67C86.7286 17.5033 86.3253 17.34 86.032 17.18C85.7453 17.02 85.532 16.8233 85.392 16.59C85.252 16.3567 85.182 16.06 85.182 15.7C85.182 15.36 85.272 15.0533 85.452 14.78C85.6386 14.5067 85.9053 14.2933 86.252 14.14C86.5986 13.98 87.012 13.9 87.492 13.9C87.9853 13.9 88.4086 13.99 88.762 14.17C89.1153 14.3433 89.382 14.5667 89.562 14.84C89.742 15.1067 89.8386 15.3767 89.852 15.65C89.852 15.7033 89.832 15.75 89.792 15.79C89.7586 15.83 89.7086 15.85 89.642 15.85H89.442C89.3953 15.85 89.3486 15.8367 89.302 15.81C89.2553 15.7767 89.2286 15.7233 89.222 15.65C89.182 15.3167 89.002 15.0433 88.682 14.83C88.3686 14.61 87.972 14.5 87.492 14.5C86.9786 14.5 86.5686 14.6 86.262 14.8C85.962 15 85.812 15.3 85.812 15.7C85.812 15.96 85.8786 16.1767 86.012 16.35C86.152 16.5167 86.3586 16.6633 86.632 16.79C86.9053 16.91 87.3086 17.0567 87.842 17.23C88.3886 17.4033 88.8153 17.57 89.122 17.73C89.4286 17.89 89.6586 18.0833 89.812 18.31C89.972 18.5367 90.052 18.83 90.052 19.19C90.052 19.79 89.8286 20.26 89.382 20.6C88.9353 20.9333 88.322 21.1 87.542 21.1ZM93.8666 21.1C92.1533 21.1 91.2733 20.18 91.2266 18.34C91.22 18.14 91.2166 17.86 91.2166 17.5C91.2166 17.14 91.22 16.86 91.2266 16.66C91.2533 15.7533 91.5 15.0667 91.9666 14.6C92.4333 14.1333 93.0666 13.9 93.8666 13.9C94.6666 13.9 95.3 14.1333 95.7666 14.6C96.2333 15.0667 96.48 15.7533 96.5066 16.66C96.52 17.06 96.5266 17.34 96.5266 17.5C96.5266 17.66 96.52 17.94 96.5066 18.34C96.46 20.18 95.58 21.1 93.8666 21.1ZM93.8666 20.5C94.4666 20.5 94.9433 20.32 95.2966 19.96C95.6566 19.5933 95.85 19.0367 95.8766 18.29C95.89 17.89 95.8966 17.6267 95.8966 17.5C95.8966 17.3733 95.89 17.11 95.8766 16.71C95.85 15.9633 95.6566 15.41 95.2966 15.05C94.9366 14.6833 94.46 14.5 93.8666 14.5C93.2733 14.5 92.7966 14.6833 92.4366 15.05C92.0766 15.41 91.8833 15.9633 91.8566 16.71C91.85 16.91 91.8466 17.1733 91.8466 17.5C91.8466 17.8267 91.85 18.09 91.8566 18.29C91.8833 19.0367 92.0733 19.5933 92.4266 19.96C92.7866 20.32 93.2666 20.5 93.8666 20.5ZM100.488 21.1C98.7744 21.1 97.8944 20.18 97.8477 18.34C97.8411 18.14 97.8377 17.86 97.8377 17.5C97.8377 17.14 97.8411 16.86 97.8477 16.66C97.8744 15.7533 98.1211 15.0667 98.5877 14.6C99.0544 14.1333 99.6877 13.9 100.488 13.9C101.288 13.9 101.921 14.1333 102.388 14.6C102.854 15.0667 103.101 15.7533 103.128 16.66C103.141 17.06 103.148 17.34 103.148 17.5C103.148 17.66 103.141 17.94 103.128 18.34C103.081 20.18 102.201 21.1 100.488 21.1ZM100.488 20.5C101.088 20.5 101.564 20.32 101.918 19.96C102.278 19.5933 102.471 19.0367 102.498 18.29C102.511 17.89 102.518 17.6267 102.518 17.5C102.518 17.3733 102.511 17.11 102.498 16.71C102.471 15.9633 102.278 15.41 101.918 15.05C101.558 14.6833 101.081 14.5 100.488 14.5C99.8944 14.5 99.4177 14.6833 99.0577 15.05C98.6977 15.41 98.5044 15.9633 98.4777 16.71C98.4711 16.91 98.4677 17.1733 98.4677 17.5C98.4677 17.8267 98.4711 18.09 98.4777 18.29C98.5044 19.0367 98.6944 19.5933 99.0477 19.96C99.4077 20.32 99.8877 20.5 100.488 20.5ZM104.959 21C104.892 21 104.839 20.98 104.799 20.94C104.759 20.9 104.739 20.8467 104.739 20.78V14.23C104.739 14.1633 104.759 14.11 104.799 14.07C104.839 14.0233 104.892 14 104.959 14H105.169C105.255 14 105.325 14.04 105.379 14.12L109.069 19.76V14.23C109.069 14.1633 109.089 14.11 109.129 14.07C109.169 14.0233 109.222 14 109.289 14H109.469C109.542 14 109.599 14.02 109.639 14.06C109.679 14.1 109.699 14.1567 109.699 14.23V20.77C109.699 20.8367 109.679 20.8933 109.639 20.94C109.599 20.98 109.545 21 109.479 21H109.259C109.172 21 109.102 20.96 109.049 20.88L105.369 15.26V20.78C105.369 20.8467 105.345 20.9 105.299 20.94C105.259 20.98 105.205 21 105.139 21H104.959ZM115.639 21C115.573 21 115.519 20.98 115.479 20.94C115.439 20.9 115.419 20.8467 115.419 20.78V14.6H113.439C113.373 14.6 113.319 14.58 113.279 14.54C113.239 14.5 113.219 14.4467 113.219 14.38V14.23C113.219 14.1633 113.239 14.11 113.279 14.07C113.319 14.0233 113.373 14 113.439 14H118.019C118.093 14 118.149 14.02 118.189 14.06C118.229 14.1 118.249 14.1567 118.249 14.23V14.38C118.249 14.4467 118.226 14.5 118.179 14.54C118.139 14.58 118.086 14.6 118.019 14.6H116.049V20.78C116.049 20.8467 116.026 20.9 115.979 20.94C115.939 20.98 115.886 21 115.819 21H115.639ZM121.66 21.1C119.946 21.1 119.066 20.18 119.02 18.34C119.013 18.14 119.01 17.86 119.01 17.5C119.01 17.14 119.013 16.86 119.02 16.66C119.046 15.7533 119.293 15.0667 119.76 14.6C120.226 14.1333 120.86 13.9 121.66 13.9C122.46 13.9 123.093 14.1333 123.56 14.6C124.026 15.0667 124.273 15.7533 124.3 16.66C124.313 17.06 124.32 17.34 124.32 17.5C124.32 17.66 124.313 17.94 124.3 18.34C124.253 20.18 123.373 21.1 121.66 21.1ZM121.66 20.5C122.26 20.5 122.736 20.32 123.09 19.96C123.45 19.5933 123.643 19.0367 123.67 18.29C123.683 17.89 123.69 17.6267 123.69 17.5C123.69 17.3733 123.683 17.11 123.67 16.71C123.643 15.9633 123.45 15.41 123.09 15.05C122.73 14.6833 122.253 14.5 121.66 14.5C121.066 14.5 120.59 14.6833 120.23 15.05C119.87 15.41 119.676 15.9633 119.65 16.71C119.643 16.91 119.64 17.1733 119.64 17.5C119.64 17.8267 119.643 18.09 119.65 18.29C119.676 19.0367 119.866 19.5933 120.22 19.96C120.58 20.32 121.06 20.5 121.66 20.5ZM45.48 40C45.3947 40 45.3147 39.968 45.24 39.904C45.176 39.8293 45.144 39.7493 45.144 39.664C45.144 39.6 45.1493 39.552 45.16 39.52L48.92 29.248C48.952 29.12 49.0213 29.0133 49.128 28.928C49.2347 28.8427 49.3733 28.8 49.544 28.8H51.912C52.0827 28.8 52.2213 28.8427 52.328 28.928C52.4347 29.0133 52.504 29.12 52.536 29.248L56.28 39.52L56.312 39.664C56.312 39.7493 56.2747 39.8293 56.2 39.904C56.136 39.968 56.056 40 55.96 40H53.992C53.736 40 53.5653 39.888 53.48 39.664L52.856 38.032H48.584L47.976 39.664C47.8907 39.888 47.7147 40 47.448 40H45.48ZM52.216 35.728L50.728 31.504L49.24 35.728H52.216ZM57.7971 43.04C57.6905 43.04 57.5945 43.0027 57.5091 42.928C57.4345 42.8533 57.3971 42.7573 57.3971 42.64V32.08C57.3971 31.9627 57.4345 31.8667 57.5091 31.792C57.5945 31.7173 57.6905 31.68 57.7971 31.68H59.6051C59.7225 31.68 59.8185 31.7173 59.8931 31.792C59.9678 31.8667 60.0051 31.9627 60.0051 32.08V32.656C60.5811 31.8987 61.4078 31.52 62.4851 31.52C63.5305 31.52 64.3465 31.8453 64.9331 32.496C65.5198 33.1467 65.8398 34.064 65.8931 35.248C65.9038 35.3867 65.9091 35.584 65.9091 35.84C65.9091 36.096 65.9038 36.2933 65.8931 36.432C65.8505 37.584 65.5305 38.496 64.9331 39.168C64.3358 39.8293 63.5198 40.16 62.4851 40.16C61.4398 40.16 60.6611 39.8027 60.1491 39.088V42.64C60.1491 42.7573 60.1118 42.8533 60.0371 42.928C59.9625 43.0027 59.8665 43.04 59.7491 43.04H57.7971ZM61.6211 38.016C62.1225 38.016 62.4798 37.8667 62.6931 37.568C62.9171 37.2693 63.0451 36.8587 63.0771 36.336C63.0985 36.1227 63.1091 35.9573 63.1091 35.84C63.1091 35.7227 63.0985 35.5573 63.0771 35.344C63.0451 34.8213 62.9171 34.4107 62.6931 34.112C62.4798 33.8133 62.1225 33.664 61.6211 33.664C61.1305 33.664 60.7678 33.8187 60.5331 34.128C60.3091 34.4267 60.1811 34.816 60.1491 35.296L60.1331 35.888L60.1491 36.496C60.1705 36.9333 60.3038 37.296 60.5491 37.584C60.7945 37.872 61.1518 38.016 61.6211 38.016ZM67.8909 43.04C67.7842 43.04 67.6882 43.0027 67.6029 42.928C67.5282 42.8533 67.4909 42.7573 67.4909 42.64V32.08C67.4909 31.9627 67.5282 31.8667 67.6029 31.792C67.6882 31.7173 67.7842 31.68 67.8909 31.68H69.6989C69.8162 31.68 69.9122 31.7173 69.9869 31.792C70.0615 31.8667 70.0989 31.9627 70.0989 32.08V32.656C70.6749 31.8987 71.5015 31.52 72.5789 31.52C73.6242 31.52 74.4402 31.8453 75.0269 32.496C75.6135 33.1467 75.9335 34.064 75.9869 35.248C75.9975 35.3867 76.0029 35.584 76.0029 35.84C76.0029 36.096 75.9975 36.2933 75.9869 36.432C75.9442 37.584 75.6242 38.496 75.0269 39.168C74.4295 39.8293 73.6135 40.16 72.5789 40.16C71.5335 40.16 70.7549 39.8027 70.2429 39.088V42.64C70.2429 42.7573 70.2055 42.8533 70.1309 42.928C70.0562 43.0027 69.9602 43.04 69.8429 43.04H67.8909ZM71.7149 38.016C72.2162 38.016 72.5735 37.8667 72.7869 37.568C73.0109 37.2693 73.1389 36.8587 73.1709 36.336C73.1922 36.1227 73.2029 35.9573 73.2029 35.84C73.2029 35.7227 73.1922 35.5573 73.1709 35.344C73.1389 34.8213 73.0109 34.4107 72.7869 34.112C72.5735 33.8133 72.2162 33.664 71.7149 33.664C71.2242 33.664 70.8615 33.8187 70.6269 34.128C70.4029 34.4267 70.2749 34.816 70.2429 35.296L70.2269 35.888L70.2429 36.496C70.2642 36.9333 70.3975 37.296 70.6429 37.584C70.8882 37.872 71.2455 38.016 71.7149 38.016ZM77.9846 40C77.878 40 77.782 39.9627 77.6966 39.888C77.622 39.8027 77.5846 39.7067 77.5846 39.6V29.04C77.5846 28.9227 77.622 28.8267 77.6966 28.752C77.782 28.6773 77.878 28.64 77.9846 28.64H79.8726C79.99 28.64 80.086 28.6773 80.1606 28.752C80.2353 28.8267 80.2726 28.9227 80.2726 29.04V39.6C80.2726 39.7173 80.2353 39.8133 80.1606 39.888C80.086 39.9627 79.99 40 79.8726 40H77.9846ZM86.0028 40.16C84.7228 40.16 83.7148 39.8133 82.9788 39.12C82.2428 38.4267 81.8588 37.4187 81.8268 36.096V35.536C81.8694 34.2773 82.2588 33.296 82.9948 32.592C83.7414 31.8773 84.7388 31.52 85.9868 31.52C86.8934 31.52 87.6561 31.7067 88.2748 32.08C88.9041 32.4427 89.3734 32.944 89.6828 33.584C90.0028 34.224 90.1628 34.96 90.1628 35.792V36.176C90.1628 36.2827 90.1254 36.3787 90.0508 36.464C89.9761 36.5387 89.8801 36.576 89.7628 36.576H84.6428V36.688C84.6641 37.1893 84.7868 37.5947 85.0108 37.904C85.2348 38.2133 85.5601 38.368 85.9868 38.368C86.2534 38.368 86.4721 38.3147 86.6428 38.208C86.8134 38.0907 86.9681 37.952 87.1068 37.792C87.2028 37.6747 87.2774 37.6053 87.3308 37.584C87.3948 37.552 87.4908 37.536 87.6188 37.536H89.6028C89.6988 37.536 89.7788 37.568 89.8428 37.632C89.9174 37.6853 89.9548 37.76 89.9548 37.856C89.9548 38.1333 89.7948 38.4533 89.4748 38.816C89.1654 39.1787 88.7121 39.4933 88.1148 39.76C87.5174 40.0267 86.8134 40.16 86.0028 40.16ZM87.3468 34.992V34.96C87.3468 34.4373 87.2241 34.0267 86.9788 33.728C86.7441 33.4187 86.4134 33.264 85.9868 33.264C85.5708 33.264 85.2401 33.4187 84.9948 33.728C84.7601 34.0267 84.6428 34.4373 84.6428 34.96V34.992H87.3468ZM98.493 40.16C97.629 40.16 96.9037 40.0373 96.317 39.792C95.741 39.5467 95.3143 39.2533 95.037 38.912C94.7597 38.5707 94.621 38.2667 94.621 38C94.621 37.8933 94.6583 37.808 94.733 37.744C94.8183 37.6693 94.909 37.632 95.005 37.632H96.829C96.893 37.632 96.9517 37.6587 97.005 37.712C97.133 37.7973 97.229 37.8667 97.293 37.92C97.5277 38.0907 97.7303 38.2187 97.901 38.304C98.0823 38.3787 98.301 38.416 98.557 38.416C98.8663 38.416 99.117 38.3573 99.309 38.24C99.5117 38.112 99.613 37.936 99.613 37.712C99.613 37.5307 99.5597 37.3867 99.453 37.28C99.357 37.1733 99.165 37.072 98.877 36.976C98.589 36.8693 98.1517 36.7573 97.565 36.64C96.6797 36.4587 95.997 36.1653 95.517 35.76C95.0477 35.344 94.813 34.7893 94.813 34.096C94.813 33.6587 94.9517 33.2427 95.229 32.848C95.5063 32.4533 95.917 32.1333 96.461 31.888C97.0157 31.6427 97.6717 31.52 98.429 31.52C99.1863 31.52 99.8477 31.6373 100.413 31.872C100.978 32.1067 101.405 32.3947 101.693 32.736C101.992 33.0667 102.141 33.3707 102.141 33.648C102.141 33.744 102.104 33.8293 102.029 33.904C101.965 33.9787 101.885 34.016 101.789 34.016H100.125C100.04 34.016 99.9597 33.9893 99.885 33.936C99.7463 33.8613 99.6237 33.7813 99.517 33.696C99.3357 33.5573 99.165 33.4507 99.005 33.376C98.845 33.3013 98.6477 33.264 98.413 33.264C98.1357 33.264 97.9117 33.328 97.741 33.456C97.581 33.584 97.501 33.7493 97.501 33.952C97.501 34.112 97.5437 34.2453 97.629 34.352C97.725 34.4587 97.917 34.5653 98.205 34.672C98.5037 34.768 98.941 34.8693 99.517 34.976C100.552 35.1573 101.304 35.4773 101.773 35.936C102.253 36.3947 102.493 36.9333 102.493 37.552C102.493 38.3413 102.141 38.976 101.437 39.456C100.733 39.9253 99.7517 40.16 98.493 40.16ZM108.122 40C105.914 40 104.81 38.9493 104.81 36.848V33.776H103.562C103.445 33.776 103.343 33.7387 103.258 33.664C103.183 33.5893 103.146 33.4933 103.146 33.376V32.08C103.146 31.9627 103.183 31.8667 103.258 31.792C103.343 31.7173 103.445 31.68 103.562 31.68H104.81V29.04C104.81 28.9227 104.847 28.8267 104.922 28.752C105.007 28.6773 105.103 28.64 105.21 28.64H107.066C107.183 28.64 107.279 28.6773 107.354 28.752C107.429 28.8267 107.466 28.9227 107.466 29.04V31.68H109.466C109.583 31.68 109.679 31.7173 109.754 31.792C109.839 31.8667 109.882 31.9627 109.882 32.08V33.376C109.882 33.4933 109.839 33.5893 109.754 33.664C109.679 33.7387 109.583 33.776 109.466 33.776H107.466V36.624C107.466 37.4133 107.77 37.808 108.378 37.808H109.61C109.727 37.808 109.823 37.8453 109.898 37.92C109.973 37.9947 110.01 38.0907 110.01 38.208V39.6C110.01 39.7067 109.973 39.8027 109.898 39.888C109.823 39.9627 109.727 40 109.61 40H108.122ZM115.271 40.16C113.948 40.16 112.929 39.8453 112.215 39.216C111.5 38.5867 111.111 37.7013 111.047 36.56C111.036 36.4213 111.031 36.1813 111.031 35.84C111.031 35.4987 111.036 35.2587 111.047 35.12C111.111 33.9893 111.511 33.1093 112.247 32.48C112.983 31.84 113.991 31.52 115.271 31.52C116.561 31.52 117.575 31.84 118.311 32.48C119.047 33.1093 119.447 33.9893 119.511 35.12C119.521 35.2587 119.527 35.4987 119.527 35.84C119.527 36.1813 119.521 36.4213 119.511 36.56C119.447 37.7013 119.057 38.5867 118.343 39.216C117.628 39.8453 116.604 40.16 115.271 40.16ZM115.271 38.208C115.74 38.208 116.087 38.0693 116.311 37.792C116.535 37.504 116.663 37.0667 116.695 36.48C116.705 36.3733 116.711 36.16 116.711 35.84C116.711 35.52 116.705 35.3067 116.695 35.2C116.663 34.624 116.529 34.192 116.295 33.904C116.071 33.616 115.729 33.472 115.271 33.472C114.385 33.472 113.916 34.048 113.863 35.2L113.847 35.84L113.863 36.48C113.884 37.0667 114.007 37.504 114.231 37.792C114.465 38.0693 114.812 38.208 115.271 38.208ZM121.516 40C121.399 40 121.303 39.9627 121.228 39.888C121.153 39.8133 121.116 39.7173 121.116 39.6V32.08C121.116 31.9627 121.153 31.8667 121.228 31.792C121.303 31.7173 121.399 31.68 121.516 31.68H123.356C123.473 31.68 123.569 31.7227 123.644 31.808C123.729 31.8827 123.772 31.9733 123.772 32.08V32.72C124.359 32.0267 125.148 31.68 126.14 31.68H126.844C126.961 31.68 127.057 31.7173 127.132 31.792C127.207 31.8667 127.244 31.9627 127.244 32.08V33.728C127.244 33.8347 127.207 33.9307 127.132 34.016C127.057 34.0907 126.961 34.128 126.844 34.128H125.292C124.855 34.128 124.513 34.2507 124.268 34.496C124.033 34.7307 123.916 35.0667 123.916 35.504V39.6C123.916 39.7173 123.873 39.8133 123.788 39.888C123.713 39.9627 123.617 40 123.5 40H121.516ZM132.143 40.16C130.863 40.16 129.855 39.8133 129.119 39.12C128.383 38.4267 127.999 37.4187 127.967 36.096V35.536C128.01 34.2773 128.399 33.296 129.135 32.592C129.882 31.8773 130.879 31.52 132.127 31.52C133.034 31.52 133.797 31.7067 134.415 32.08C135.045 32.4427 135.514 32.944 135.823 33.584C136.143 34.224 136.303 34.96 136.303 35.792V36.176C136.303 36.2827 136.266 36.3787 136.191 36.464C136.117 36.5387 136.021 36.576 135.903 36.576H130.783V36.688C130.805 37.1893 130.927 37.5947 131.151 37.904C131.375 38.2133 131.701 38.368 132.127 38.368C132.394 38.368 132.613 38.3147 132.783 38.208C132.954 38.0907 133.109 37.952 133.247 37.792C133.343 37.6747 133.418 37.6053 133.471 37.584C133.535 37.552 133.631 37.536 133.759 37.536H135.743C135.839 37.536 135.919 37.568 135.983 37.632C136.058 37.6853 136.095 37.76 136.095 37.856C136.095 38.1333 135.935 38.4533 135.615 38.816C135.306 39.1787 134.853 39.4933 134.255 39.76C133.658 40.0267 132.954 40.16 132.143 40.16ZM133.487 34.992V34.96C133.487 34.4373 133.365 34.0267 133.119 33.728C132.885 33.4187 132.554 33.264 132.127 33.264C131.711 33.264 131.381 33.4187 131.135 33.728C130.901 34.0267 130.783 34.4373 130.783 34.96V34.992H133.487Z" fill="#1C1C1C"/>
<defs>
<clipPath id="clip0_81_690">
<rect width="28" height="28" fill="white" transform="translate(10 12)"/>
</clipPath>
</defs>
</svg>
