<svg width="42" height="40" viewBox="0 0 42 40" fill="none" xmlns="http://www.w3.org/2000/svg">
<rect width="41.584" height="40" rx="5" fill="#232323"/>
<path d="M11 13.1194C11 12.5006 11.446 12 11.995 12H20.005C20.2689 12 20.522 12.1179 20.7086 12.3279C20.8952 12.5378 21 12.8225 21 13.1194C21 13.4163 20.8952 13.701 20.7086 13.9109C20.522 14.1208 20.2689 14.2387 20.005 14.2387H11.995C11.7311 14.2387 11.478 14.1208 11.2914 13.9109C11.1048 13.701 11 13.4163 11 13.1194Z" fill="#F5F5F3"/>
<path d="M11 19.8749C11 19.2561 11.446 18.7555 11.995 18.7555H30.005C30.2689 18.7555 30.522 18.8734 30.7086 19.0834C30.8952 19.2933 31 19.578 31 19.8749C31 20.1717 30.8952 20.4565 30.7086 20.6664C30.522 20.8763 30.2689 20.9942 30.005 20.9942H11.995C11.7311 20.9942 11.478 20.8763 11.2914 20.6664C11.1048 20.4565 11 20.1717 11 19.8749Z" fill="#F5F5F3"/>
<path d="M11.995 25.5112C11.7311 25.5112 11.478 25.6292 11.2914 25.8391C11.1048 26.049 11 26.3337 11 26.6306C11 26.9275 11.1048 27.2122 11.2914 27.4221C11.478 27.632 11.7311 27.75 11.995 27.75H24.005C24.2689 27.75 24.522 27.632 24.7086 27.4221C24.8952 27.2122 25 26.9275 25 26.6306C25 26.3337 24.8952 26.049 24.7086 25.8391C24.522 25.6292 24.2689 25.5112 24.005 25.5112H11.995Z" fill="#F5F5F3"/>
</svg>
