<svg width="17" height="16" viewBox="0 0 17 16" fill="none" xmlns="http://www.w3.org/2000/svg">
<path d="M15.6969 6.89588L1.21537 0.0810682C1.06955 0.0124518 0.907251 -0.0133912 0.747329 0.0065404C0.587406 0.026472 0.436417 0.0913603 0.311897 0.19367C0.187377 0.29598 0.0944339 0.431514 0.0438603 0.584533C-0.00671323 0.737552 -0.0128422 0.901779 0.0261854 1.05814L1.05863 5.18877L7.6673 7.66681L1.05863 10.1448L0.0261854 14.2755C-0.0135765 14.432 -0.00795906 14.5965 0.0423806 14.7499C0.0927202 14.9033 0.185701 15.0392 0.310445 15.1417C0.43519 15.2442 0.586541 15.3091 0.746795 15.3287C0.907048 15.3483 1.06958 15.3219 1.21537 15.2526L15.6969 8.43773C15.8432 8.36894 15.9669 8.25992 16.0536 8.1234C16.1403 7.98688 16.1863 7.82852 16.1863 7.66681C16.1863 7.5051 16.1403 7.34673 16.0536 7.21022C15.9669 7.0737 15.8432 6.96468 15.6969 6.89588V6.89588Z" fill="white"/>
</svg>
