<svg width="7" height="8" viewBox="0 0 7 8" fill="none" xmlns="http://www.w3.org/2000/svg">
<path d="M3.59246 6.07409H3.592C3.27597 6.07424 2.963 6.01212 2.67099 5.89129C2.37897 5.77045 2.11362 5.59326 1.8901 5.36985C1.66658 5.14643 1.48927 4.88117 1.3683 4.58921C1.24732 4.29725 1.18506 3.98431 1.18506 3.66828L1.18506 3.66781C1.18484 3.19163 1.32584 2.72607 1.59023 2.33002C1.85462 1.93398 2.23053 1.62524 2.67041 1.44286C3.11029 1.26047 3.59437 1.21264 4.06144 1.3054C4.5285 1.39816 4.95756 1.62736 5.29436 1.96399C5.63115 2.30063 5.86055 2.72959 5.95353 3.19661C6.04651 3.66363 5.9989 4.14774 5.81673 4.5877C5.63455 5.02766 5.32599 5.40371 4.93007 5.66829C4.53415 5.93287 4.06865 6.07409 3.59246 6.07409Z" stroke="white" stroke-width="2"/>
</svg>
