<svg width="502" height="119" viewBox="0 0 502 119" fill="none" xmlns="http://www.w3.org/2000/svg">
<path d="M13.68 10.92H0.24V3H36.84V10.92H23.4V45H13.68V10.92ZM61.0298 12.24C65.0298 12.24 68.2498 13.44 70.6898 15.84C73.1698 18.24 74.4098 21.8 74.4098 26.52V45H65.0498V27.96C65.0498 25.4 64.4898 23.5 63.3698 22.26C62.2498 20.98 60.6298 20.34 58.5098 20.34C56.1498 20.34 54.2698 21.08 52.8698 22.56C51.4698 24 50.7698 26.16 50.7698 29.04V45H41.4098V0.479997H50.7698V16.08C52.0098 14.84 53.5098 13.9 55.2698 13.26C57.0298 12.58 58.9498 12.24 61.0298 12.24ZM114.866 28.98C114.866 29.1 114.806 29.94 114.686 31.5H90.2658C90.7058 33.5 91.7458 35.08 93.3858 36.24C95.0258 37.4 97.0658 37.98 99.5058 37.98C101.186 37.98 102.666 37.74 103.946 37.26C105.266 36.74 106.486 35.94 107.606 34.86L112.586 40.26C109.546 43.74 105.106 45.48 99.2658 45.48C95.6258 45.48 92.4058 44.78 89.6058 43.38C86.8058 41.94 84.6458 39.96 83.1258 37.44C81.6058 34.92 80.8458 32.06 80.8458 28.86C80.8458 25.7 81.5858 22.86 83.0658 20.34C84.5858 17.78 86.6458 15.8 89.2458 14.4C91.8858 12.96 94.8258 12.24 98.0658 12.24C101.226 12.24 104.086 12.92 106.646 14.28C109.206 15.64 111.206 17.6 112.646 20.16C114.126 22.68 114.866 25.62 114.866 28.98ZM98.1258 19.32C96.0058 19.32 94.2258 19.92 92.7858 21.12C91.3458 22.32 90.4658 23.96 90.1458 26.04H106.046C105.726 24 104.846 22.38 103.406 21.18C101.966 19.94 100.206 19.32 98.1258 19.32ZM147.45 10.92H134.01V3H170.61V10.92H157.17V45H147.45V10.92ZM202.599 45L194.499 33.3H194.019H185.559V45H175.839V3H194.019C197.739 3 200.959 3.62 203.679 4.86C206.439 6.1 208.559 7.86 210.039 10.14C211.519 12.42 212.259 15.12 212.259 18.24C212.259 21.36 211.499 24.06 209.979 26.34C208.499 28.58 206.379 30.3 203.619 31.5L213.039 45H202.599ZM202.419 18.24C202.419 15.88 201.659 14.08 200.139 12.84C198.619 11.56 196.399 10.92 193.479 10.92H185.559V25.56H193.479C196.399 25.56 198.619 24.92 200.139 23.64C201.659 22.36 202.419 20.56 202.419 18.24ZM247.62 36H228.12L224.4 45H214.44L233.16 3H242.76L261.54 45H251.34L247.62 36ZM244.56 28.62L237.9 12.54L231.24 28.62H244.56ZM265.898 3H284.978C289.538 3 293.558 3.88 297.038 5.64C300.558 7.36 303.278 9.8 305.198 12.96C307.158 16.12 308.138 19.8 308.138 24C308.138 28.2 307.158 31.88 305.198 35.04C303.278 38.2 300.558 40.66 297.038 42.42C293.558 44.14 289.538 45 284.978 45H265.898V3ZM284.498 37.02C288.698 37.02 292.038 35.86 294.518 33.54C297.038 31.18 298.298 28 298.298 24C298.298 20 297.038 16.84 294.518 14.52C292.038 12.16 288.698 10.98 284.498 10.98H275.618V37.02H284.498ZM342.542 36H323.042L319.322 45H309.362L328.082 3H337.682L356.462 45H346.262L342.542 36ZM339.482 28.62L332.822 12.54L326.162 28.62H339.482ZM43.2 118L43.14 92.8L30.78 113.56H26.4L14.1 93.34V118H4.98V76H13.02L28.74 102.1L44.22 76H52.2L52.32 118H43.2ZM89.9447 109H70.4447L66.7247 118H56.7647L75.4847 76H85.0847L103.865 118H93.6647L89.9447 109ZM86.8847 101.62L80.2247 85.54L73.5647 101.62H86.8847ZM134.982 118L126.882 106.3H126.402H117.942V118H108.222V76H126.402C130.122 76 133.342 76.62 136.062 77.86C138.822 79.1 140.942 80.86 142.422 83.14C143.902 85.42 144.642 88.12 144.642 91.24C144.642 94.36 143.882 97.06 142.362 99.34C140.882 101.58 138.762 103.3 136.002 104.5L145.422 118H134.982ZM134.802 91.24C134.802 88.88 134.042 87.08 132.522 85.84C131.002 84.56 128.782 83.92 125.862 83.92H117.942V98.56H125.862C128.782 98.56 131.002 97.92 132.522 96.64C134.042 95.36 134.802 93.56 134.802 91.24ZM167.643 101.5L162.003 107.38V118H152.343V76H162.003V95.62L180.603 76H191.403L174.003 94.72L192.423 118H181.083L167.643 101.5ZM229.277 110.2V118H196.757V76H228.497V83.8H206.417V92.92H225.917V100.48H206.417V110.2H229.277ZM245.711 83.92H232.271V76H268.871V83.92H255.431V118H245.711V83.92Z" fill="white"/>
<path d="M13.68 10.92H15.18V9.42H13.68V10.92ZM0.24 10.92H-1.26V12.42H0.24V10.92ZM0.24 3V1.5H-1.26V3H0.24ZM36.84 3H38.34V1.5H36.84V3ZM36.84 10.92V12.42H38.34V10.92H36.84ZM23.4 10.92V9.42H21.9V10.92H23.4ZM23.4 45V46.5H24.9V45H23.4ZM13.68 45H12.18V46.5H13.68V45ZM13.68 9.42H0.24V12.42H13.68V9.42ZM1.74 10.92V3H-1.26V10.92H1.74ZM0.24 4.5H36.84V1.5H0.24V4.5ZM35.34 3V10.92H38.34V3H35.34ZM36.84 9.42H23.4V12.42H36.84V9.42ZM21.9 10.92V45H24.9V10.92H21.9ZM23.4 43.5H13.68V46.5H23.4V43.5ZM15.18 45V10.92H12.18V45H15.18ZM70.6898 15.84L69.6379 16.9094L69.6467 16.9179L70.6898 15.84ZM74.4098 45V46.5H75.9098V45H74.4098ZM65.0498 45H63.5498V46.5H65.0498V45ZM63.3698 22.26L62.241 23.2478L62.2488 23.2567L62.2567 23.2654L63.3698 22.26ZM52.8698 22.56L53.9453 23.6056L53.9525 23.5983L53.9595 23.5908L52.8698 22.56ZM50.7698 45V46.5H52.2698V45H50.7698ZM41.4098 45H39.9098V46.5H41.4098V45ZM41.4098 0.479998V-1.02H39.9098V0.479998H41.4098ZM50.7698 0.479998H52.2698V-1.02H50.7698V0.479998ZM50.7698 16.08H49.2698V19.7013L51.8305 17.1407L50.7698 16.08ZM55.2698 13.26L55.7825 14.6697L55.7965 14.6646L55.8104 14.6592L55.2698 13.26ZM61.0298 13.74C64.7078 13.74 67.5257 14.8317 69.638 16.9094L71.7417 14.7706C68.974 12.0483 65.3519 10.74 61.0298 10.74V13.74ZM69.6467 16.9179C71.7401 18.9438 72.9098 22.0526 72.9098 26.52H75.9098C75.9098 21.5474 74.5995 17.5362 71.733 14.7621L69.6467 16.9179ZM72.9098 26.52V45H75.9098V26.52H72.9098ZM74.4098 43.5H65.0498V46.5H74.4098V43.5ZM66.5498 45V27.96H63.5498V45H66.5498ZM66.5498 27.96C66.5498 25.2193 65.9556 22.885 64.483 21.2546L62.2567 23.2654C63.0241 24.115 63.5498 25.5807 63.5498 27.96H66.5498ZM64.4987 21.2722C63.0259 19.589 60.9472 18.84 58.5098 18.84V21.84C60.3125 21.84 61.4738 22.371 62.241 23.2478L64.4987 21.2722ZM58.5098 18.84C55.8089 18.84 53.509 19.7016 51.7801 21.5292L53.9595 23.5908C55.0307 22.4584 56.4908 21.84 58.5098 21.84V18.84ZM51.7944 21.5144C50.0232 23.3362 49.2698 25.9392 49.2698 29.04H52.2698C52.2698 26.3808 52.9165 24.6638 53.9453 23.6056L51.7944 21.5144ZM49.2698 29.04V45H52.2698V29.04H49.2698ZM50.7698 43.5H41.4098V46.5H50.7698V43.5ZM42.9098 45V0.479998H39.9098V45H42.9098ZM41.4098 1.98H50.7698V-1.02H41.4098V1.98ZM49.2698 0.479998V16.08H52.2698V0.479998H49.2698ZM51.8305 17.1407C52.9051 16.066 54.2142 15.24 55.7825 14.6697L54.7572 11.8503C52.8055 12.56 51.1146 13.614 49.7092 15.0193L51.8305 17.1407ZM55.8104 14.6592C57.3812 14.0523 59.1158 13.74 61.0298 13.74V10.74C58.7839 10.74 56.6785 11.1077 54.7292 11.8608L55.8104 14.6592ZM114.686 31.5V33H116.075L116.181 31.615L114.686 31.5ZM90.2658 31.5V30H88.3999L88.8008 31.8223L90.2658 31.5ZM93.3858 36.24L94.252 35.0154L93.3858 36.24ZM103.946 37.26L104.472 38.6645L104.484 38.6601L104.496 38.6556L103.946 37.26ZM107.606 34.86L108.708 33.8431L107.669 32.7156L106.565 33.7802L107.606 34.86ZM112.586 40.26L113.715 41.2468L114.601 40.2328L113.688 39.2431L112.586 40.26ZM89.6058 43.38L88.9198 44.7139L88.9273 44.7178L88.935 44.7216L89.6058 43.38ZM83.1258 37.44L81.8413 38.2147L83.1258 37.44ZM83.0658 20.34L81.776 19.5742L81.7724 19.5804L83.0658 20.34ZM89.2458 14.4L89.9569 15.7207L89.9641 15.7168L89.2458 14.4ZM106.646 14.28L107.35 12.9553L106.646 14.28ZM112.646 20.16L111.338 20.8954L111.345 20.9076L111.352 20.9196L112.646 20.16ZM92.7858 21.12L91.8255 19.9677L92.7858 21.12ZM90.1458 26.04L88.6632 25.8119L88.3974 27.54H90.1458V26.04ZM106.046 26.04V27.54H107.799L107.528 25.8075L106.046 26.04ZM103.406 21.18L102.427 22.3167L102.436 22.3246L102.446 22.3323L103.406 21.18ZM113.366 28.98C113.366 28.9709 113.357 29.1352 113.325 29.5931C113.295 30.009 113.25 30.6058 113.19 31.385L116.181 31.615C116.297 30.1106 116.366 29.176 116.366 28.98H113.366ZM114.686 30H90.2658V33H114.686V30ZM88.8008 31.8223C89.3194 34.1793 90.5681 36.0843 92.5196 37.4646L94.252 35.0154C92.9235 34.0757 92.0922 32.8207 91.7308 31.1777L88.8008 31.8223ZM92.5196 37.4646C94.4631 38.8393 96.8233 39.48 99.5058 39.48V36.48C97.3083 36.48 95.5885 35.9607 94.252 35.0154L92.5196 37.4646ZM99.5058 39.48C101.326 39.48 102.99 39.2203 104.472 38.6645L103.419 35.8555C102.341 36.2597 101.046 36.48 99.5058 36.48V39.48ZM104.496 38.6556C106.015 38.0569 107.399 37.143 108.647 35.9398L106.565 33.7802C105.572 34.737 104.516 35.4231 103.396 35.8644L104.496 38.6556ZM106.503 35.8769L111.483 41.2769L113.688 39.2431L108.708 33.8431L106.503 35.8769ZM111.456 39.2732C108.773 42.3447 104.796 43.98 99.2658 43.98V46.98C105.416 46.98 110.319 45.1353 113.715 41.2468L111.456 39.2732ZM99.2658 43.98C95.8208 43.98 92.8369 43.3185 90.2766 42.0384L88.935 44.7216C91.9747 46.2415 95.4308 46.98 99.2658 46.98V43.98ZM90.2918 42.0461C87.7213 40.7241 85.7764 38.9302 84.4102 36.6653L81.8413 38.2147C83.5152 40.9898 85.8903 43.1559 88.9198 44.7139L90.2918 42.0461ZM84.4102 36.6653C83.0435 34.3993 82.3458 31.8116 82.3458 28.86H79.3458C79.3458 32.3084 80.1681 35.4407 81.8413 38.2147L84.4102 36.6653ZM82.3458 28.86C82.3458 25.9446 83.0254 23.3707 84.3592 21.0996L81.7724 19.5804C80.1462 22.3493 79.3458 25.4554 79.3458 28.86H82.3458ZM84.3556 21.1058C85.7378 18.7778 87.5987 16.9905 89.9569 15.7207L88.5346 13.0793C85.6929 14.6094 83.4338 16.7822 81.776 19.5742L84.3556 21.1058ZM89.9641 15.7168C92.3668 14.4062 95.0568 13.74 98.0658 13.74V10.74C94.5948 10.74 91.4047 11.5138 88.5275 13.0832L89.9641 15.7168ZM98.0658 13.74C101.003 13.74 103.618 14.37 105.942 15.6047L107.35 12.9553C104.554 11.47 101.449 10.74 98.0658 10.74V13.74ZM105.942 15.6047C108.245 16.8282 110.037 18.582 111.338 20.8954L113.953 19.4246C112.374 16.618 110.166 14.4518 107.35 12.9553L105.942 15.6047ZM111.352 20.9196C112.678 23.1767 113.366 25.8465 113.366 28.98H116.366C116.366 25.3935 115.574 22.1833 113.939 19.4004L111.352 20.9196ZM98.1258 17.82C95.7037 17.82 93.5703 18.5137 91.8255 19.9677L93.7461 22.2723C94.8812 21.3263 96.3079 20.82 98.1258 20.82V17.82ZM91.8255 19.9677C90.0697 21.4309 89.0315 23.418 88.6632 25.8119L91.6283 26.2681C91.9 24.502 92.6219 23.2091 93.7461 22.2723L91.8255 19.9677ZM90.1458 27.54H106.046V24.54H90.1458V27.54ZM107.528 25.8075C107.157 23.4471 106.115 21.4851 104.366 20.0277L102.446 22.3323C103.577 23.2749 104.294 24.5529 104.564 26.2724L107.528 25.8075ZM104.385 20.0433C102.646 18.5461 100.528 17.82 98.1258 17.82V20.82C99.8831 20.82 101.286 21.3339 102.427 22.3167L104.385 20.0433ZM147.45 10.92H148.95V9.42H147.45V10.92ZM134.01 10.92H132.51V12.42H134.01V10.92ZM134.01 3V1.5H132.51V3H134.01ZM170.61 3H172.11V1.5H170.61V3ZM170.61 10.92V12.42H172.11V10.92H170.61ZM157.17 10.92V9.42H155.67V10.92H157.17ZM157.17 45V46.5H158.67V45H157.17ZM147.45 45H145.95V46.5H147.45V45ZM147.45 9.42H134.01V12.42H147.45V9.42ZM135.51 10.92V3H132.51V10.92H135.51ZM134.01 4.5H170.61V1.5H134.01V4.5ZM169.11 3V10.92H172.11V3H169.11ZM170.61 9.42H157.17V12.42H170.61V9.42ZM155.67 10.92V45H158.67V10.92H155.67ZM157.17 43.5H147.45V46.5H157.17V43.5ZM148.95 45V10.92H145.95V45H148.95ZM202.599 45L201.366 45.8538L201.813 46.5H202.599V45ZM194.499 33.3L195.733 32.4462L195.285 31.8H194.499V33.3ZM185.559 33.3V31.8H184.059V33.3H185.559ZM185.559 45V46.5H187.059V45H185.559ZM175.839 45H174.339V46.5H175.839V45ZM175.839 3V1.5H174.339V3H175.839ZM203.679 4.86L203.057 6.22488L203.065 6.22825L203.679 4.86ZM209.979 26.34L208.731 25.5079L208.728 25.5131L209.979 26.34ZM203.619 31.5L203.021 30.1244L201.34 30.8552L202.389 32.3584L203.619 31.5ZM213.039 45V46.5H215.915L214.27 44.1416L213.039 45ZM200.139 12.84L199.173 13.9874L199.182 13.9949L199.191 14.0023L200.139 12.84ZM185.559 10.92V9.42H184.059V10.92H185.559ZM185.559 25.56H184.059V27.06H185.559V25.56ZM200.139 23.64L201.106 24.7874L200.139 23.64ZM203.833 44.1462L195.733 32.4462L193.266 34.1538L201.366 45.8538L203.833 44.1462ZM194.499 31.8H194.019V34.8H194.499V31.8ZM194.019 31.8H185.559V34.8H194.019V31.8ZM184.059 33.3V45H187.059V33.3H184.059ZM185.559 43.5H175.839V46.5H185.559V43.5ZM177.339 45V3H174.339V45H177.339ZM175.839 4.5H194.019V1.5H175.839V4.5ZM194.019 4.5C197.576 4.5 200.574 5.0929 203.057 6.22486L204.302 3.49514C201.345 2.1471 197.903 1.5 194.019 1.5V4.5ZM203.065 6.22825C205.592 7.3639 207.476 8.94541 208.781 10.9567L211.298 9.32329C209.643 6.77459 207.286 4.83609 204.294 3.49174L203.065 6.22825ZM208.781 10.9567C210.081 12.9591 210.759 15.3659 210.759 18.24H213.759C213.759 14.8741 212.958 11.8809 211.298 9.32329L208.781 10.9567ZM210.759 18.24C210.759 21.1062 210.065 23.5074 208.731 25.5079L211.227 27.1721C212.934 24.6126 213.759 21.6138 213.759 18.24H210.759ZM208.728 25.5131C207.427 27.4822 205.548 29.0257 203.021 30.1244L204.217 32.8756C207.21 31.5743 209.572 29.6778 211.231 27.1669L208.728 25.5131ZM202.389 32.3584L211.809 45.8584L214.27 44.1416L204.85 30.6416L202.389 32.3584ZM213.039 43.5H202.599V46.5H213.039V43.5ZM203.919 18.24C203.919 15.5306 203.028 13.2609 201.088 11.6777L199.191 14.0023C200.29 14.8991 200.919 16.2294 200.919 18.24H203.919ZM201.106 11.6926C199.213 10.099 196.592 9.42 193.479 9.42V12.42C196.207 12.42 198.026 13.021 199.173 13.9874L201.106 11.6926ZM193.479 9.42H185.559V12.42H193.479V9.42ZM184.059 10.92V25.56H187.059V10.92H184.059ZM185.559 27.06H193.479V24.06H185.559V27.06ZM193.479 27.06C196.592 27.06 199.213 26.381 201.106 24.7874L199.173 22.4926C198.026 23.459 196.207 24.06 193.479 24.06V27.06ZM201.106 24.7874C203.022 23.1733 203.919 20.9202 203.919 18.24H200.919C200.919 20.1998 200.296 21.5467 199.173 22.4926L201.106 24.7874ZM247.62 36L249.007 35.427L248.624 34.5H247.62V36ZM228.12 36V34.5H227.117L226.734 35.427L228.12 36ZM224.4 45V46.5H225.404L225.787 45.573L224.4 45ZM214.44 45L213.07 44.3893L212.13 46.5H214.44V45ZM233.16 3V1.5H232.187L231.79 2.38934L233.16 3ZM242.76 3L244.13 2.38771L243.733 1.5H242.76V3ZM261.54 45V46.5H263.854L262.91 44.3877L261.54 45ZM251.34 45L249.954 45.573L250.337 46.5H251.34V45ZM244.56 28.62V30.12H246.805L245.946 28.046L244.56 28.62ZM237.9 12.54L239.286 11.966L237.9 8.62003L236.515 11.966L237.9 12.54ZM231.24 28.62L229.855 28.046L228.996 30.12H231.24V28.62ZM247.62 34.5H228.12V37.5H247.62V34.5ZM226.734 35.427L223.014 44.427L225.787 45.573L229.507 36.573L226.734 35.427ZM224.4 43.5H214.44V46.5H224.4V43.5ZM215.811 45.6107L234.531 3.61066L231.79 2.38934L213.07 44.3893L215.811 45.6107ZM233.16 4.5H242.76V1.5H233.16V4.5ZM241.391 3.61229L260.171 45.6123L262.91 44.3877L244.13 2.38771L241.391 3.61229ZM261.54 43.5H251.34V46.5H261.54V43.5ZM252.727 44.427L249.007 35.427L246.234 36.573L249.954 45.573L252.727 44.427ZM245.946 28.046L239.286 11.966L236.515 13.114L243.175 29.194L245.946 28.046ZM236.515 11.966L229.855 28.046L232.626 29.194L239.286 13.114L236.515 11.966ZM231.24 30.12H244.56V27.12H231.24V30.12ZM265.898 3V1.5H264.398V3H265.898ZM297.038 5.64L296.361 6.97855L296.37 6.98319L296.379 6.98771L297.038 5.64ZM305.198 12.96L303.916 13.7389L303.923 13.7506L305.198 12.96ZM305.198 35.04L303.923 34.2493L303.916 34.2611L305.198 35.04ZM297.038 42.42L297.703 43.7647L297.709 43.7616L297.038 42.42ZM265.898 45H264.398V46.5H265.898V45ZM294.518 33.54L295.543 34.6354L295.543 34.6348L294.518 33.54ZM294.518 14.52L293.484 15.6066L293.493 15.6152L293.502 15.6235L294.518 14.52ZM275.618 10.98V9.48H274.118V10.98H275.618ZM275.618 37.02H274.118V38.52H275.618V37.02ZM265.898 4.5H284.978V1.5H265.898V4.5ZM284.978 4.5C289.343 4.5 293.124 5.34129 296.361 6.97855L297.715 4.30145C293.992 2.41871 289.733 1.5 284.978 1.5V4.5ZM296.379 6.98771C299.658 8.58953 302.154 10.8391 303.916 13.7389L306.48 12.1811C304.402 8.76087 301.458 6.13046 297.697 4.29229L296.379 6.98771ZM303.923 13.7506C305.718 16.6435 306.638 20.0423 306.638 24H309.638C309.638 19.5577 308.598 15.5965 306.473 12.1694L303.923 13.7506ZM306.638 24C306.638 27.9577 305.718 31.3565 303.923 34.2494L306.473 35.8306C308.598 32.4035 309.638 28.4423 309.638 24H306.638ZM303.916 34.2611C302.152 37.164 299.652 39.4362 296.367 41.0784L297.709 43.7616C301.464 41.8838 304.404 39.236 306.48 35.8189L303.916 34.2611ZM296.373 41.0753C293.133 42.6767 289.348 43.5 284.978 43.5V46.5C289.728 46.5 293.983 45.6033 297.703 43.7647L296.373 41.0753ZM284.978 43.5H265.898V46.5H284.978V43.5ZM267.398 45V3H264.398V45H267.398ZM284.498 38.52C288.984 38.52 292.723 37.2735 295.543 34.6354L293.493 32.4446C291.353 34.4465 288.412 35.52 284.498 35.52V38.52ZM295.543 34.6348C298.415 31.9456 299.798 28.3429 299.798 24H296.798C296.798 27.657 295.661 30.4144 293.493 32.4452L295.543 34.6348ZM299.798 24C299.798 19.6576 298.415 16.0687 295.534 13.4165L293.502 15.6235C295.661 17.6113 296.798 20.3424 296.798 24H299.798ZM295.552 13.4334C292.733 10.7507 288.991 9.48 284.498 9.48V12.48C288.405 12.48 291.343 13.5693 293.484 15.6066L295.552 13.4334ZM284.498 9.48H275.618V12.48H284.498V9.48ZM274.118 10.98V37.02H277.118V10.98H274.118ZM275.618 38.52H284.498V35.52H275.618V38.52ZM342.542 36L343.929 35.427L343.545 34.5H342.542V36ZM323.042 36V34.5H322.039L321.656 35.427L323.042 36ZM319.322 45V46.5H320.325L320.709 45.573L319.322 45ZM309.362 45L307.992 44.3893L307.052 46.5H309.362V45ZM328.082 3V1.5H327.109L326.712 2.38934L328.082 3ZM337.682 3L339.052 2.38771L338.655 1.5H337.682V3ZM356.462 45V46.5H358.776L357.832 44.3877L356.462 45ZM346.262 45L344.876 45.573L345.259 46.5H346.262V45ZM339.482 28.62V30.12H341.727L340.868 28.046L339.482 28.62ZM332.822 12.54L334.208 11.966L332.822 8.62003L331.437 11.966L332.822 12.54ZM326.162 28.62L324.777 28.046L323.918 30.12H326.162V28.62ZM342.542 34.5H323.042V37.5H342.542V34.5ZM321.656 35.427L317.936 44.427L320.709 45.573L324.429 36.573L321.656 35.427ZM319.322 43.5H309.362V46.5H319.322V43.5ZM310.732 45.6107L329.452 3.61066L326.712 2.38934L307.992 44.3893L310.732 45.6107ZM328.082 4.5H337.682V1.5H328.082V4.5ZM336.313 3.61229L355.093 45.6123L357.832 44.3877L339.052 2.38771L336.313 3.61229ZM356.462 43.5H346.262V46.5H356.462V43.5ZM347.649 44.427L343.929 35.427L341.156 36.573L344.876 45.573L347.649 44.427ZM340.868 28.046L334.208 11.966L331.437 13.114L338.096 29.194L340.868 28.046ZM331.437 11.966L324.777 28.046L327.548 29.194L334.208 13.114L331.437 11.966ZM326.162 30.12H339.482V27.12H326.162V30.12ZM43.2 118L41.7 118.004L41.7036 119.5H43.2V118ZM43.14 92.8L44.64 92.7964L44.6271 87.3701L41.8511 92.0326L43.14 92.8ZM30.78 113.56V115.06H31.6327L32.0689 114.327L30.78 113.56ZM26.4 113.56L25.1185 114.34L25.5567 115.06H26.4V113.56ZM14.1 93.34L15.3815 92.5604L12.6 87.9879V93.34H14.1ZM14.1 118V119.5H15.6V118H14.1ZM4.98 118H3.48V119.5H4.98V118ZM4.98 76V74.5H3.48V76H4.98ZM13.02 76L14.3049 75.2261L13.8676 74.5H13.02V76ZM28.74 102.1L27.4551 102.874L28.7499 105.024L30.0301 102.865L28.74 102.1ZM44.22 76V74.5H43.3657L42.9299 75.2348L44.22 76ZM52.2 76L53.7 75.9957L53.6957 74.5H52.2V76ZM52.32 118V119.5H53.8243L53.82 117.996L52.32 118ZM44.7 117.996L44.64 92.7964L41.64 92.8036L41.7 118.004L44.7 117.996ZM41.8511 92.0326L29.4911 112.793L32.0689 114.327L44.4289 93.5674L41.8511 92.0326ZM30.78 112.06H26.4V115.06H30.78V112.06ZM27.6815 112.78L15.3815 92.5604L12.8185 94.1196L25.1185 114.34L27.6815 112.78ZM12.6 93.34V118H15.6V93.34H12.6ZM14.1 116.5H4.98V119.5H14.1V116.5ZM6.48 118V76H3.48V118H6.48ZM4.98 77.5H13.02V74.5H4.98V77.5ZM11.7351 76.7739L27.4551 102.874L30.0249 101.326L14.3049 75.2261L11.7351 76.7739ZM30.0301 102.865L45.5102 76.7652L42.9299 75.2348L27.4499 101.335L30.0301 102.865ZM44.22 77.5H52.2V74.5H44.22V77.5ZM50.7 76.0043L50.82 118.004L53.82 117.996L53.7 75.9957L50.7 76.0043ZM52.32 116.5H43.2V119.5H52.32V116.5ZM89.9447 109L91.3309 108.427L90.9478 107.5H89.9447V109ZM70.4447 109V107.5H69.4416L69.0584 108.427L70.4447 109ZM66.7247 118V119.5H67.7278L68.1109 118.573L66.7247 118ZM56.7647 118L55.3946 117.389L54.4539 119.5H56.7647V118ZM75.4847 76V74.5H74.511L74.1146 75.3893L75.4847 76ZM85.0847 76L86.454 75.3877L86.0571 74.5H85.0847V76ZM103.865 118V119.5H106.179L105.234 117.388L103.865 118ZM93.6647 118L92.2784 118.573L92.6616 119.5H93.6647V118ZM86.8847 101.62V103.12H89.1295L88.2705 101.046L86.8847 101.62ZM80.2247 85.54L81.6105 84.966L80.2247 81.62L78.8389 84.966L80.2247 85.54ZM73.5647 101.62L72.1789 101.046L71.3199 103.12H73.5647V101.62ZM89.9447 107.5H70.4447V110.5H89.9447V107.5ZM69.0584 108.427L65.3384 117.427L68.1109 118.573L71.8309 109.573L69.0584 108.427ZM66.7247 116.5H56.7647V119.5H66.7247V116.5ZM58.1348 118.611L76.8548 76.6107L74.1146 75.3893L55.3946 117.389L58.1348 118.611ZM75.4847 77.5H85.0847V74.5H75.4847V77.5ZM83.7153 76.6123L102.495 118.612L105.234 117.388L86.454 75.3877L83.7153 76.6123ZM103.865 116.5H93.6647V119.5H103.865V116.5ZM95.0509 117.427L91.3309 108.427L88.5584 109.573L92.2784 118.573L95.0509 117.427ZM88.2705 101.046L81.6105 84.966L78.8389 86.114L85.4989 102.194L88.2705 101.046ZM78.8389 84.966L72.1789 101.046L74.9505 102.194L81.6105 86.114L78.8389 84.966ZM73.5647 103.12H86.8847V100.12H73.5647V103.12ZM134.982 118L133.749 118.854L134.196 119.5H134.982V118ZM126.882 106.3L128.115 105.446L127.668 104.8H126.882V106.3ZM117.942 106.3V104.8H116.442V106.3H117.942ZM117.942 118V119.5H119.442V118H117.942ZM108.222 118H106.722V119.5H108.222V118ZM108.222 76V74.5H106.722V76H108.222ZM136.062 77.86L135.44 79.2249L135.447 79.2282L136.062 77.86ZM142.362 99.34L141.114 98.5079L141.111 98.5131L142.362 99.34ZM136.002 104.5L135.404 103.124L133.723 103.855L134.772 105.358L136.002 104.5ZM145.422 118V119.5H148.298L146.652 117.142L145.422 118ZM132.522 85.84L131.556 86.9874L131.565 86.9949L131.574 87.0023L132.522 85.84ZM117.942 83.92V82.42H116.442V83.92H117.942ZM117.942 98.56H116.442V100.06H117.942V98.56ZM132.522 96.64L133.488 97.7874L132.522 96.64ZM136.215 117.146L128.115 105.446L125.649 107.154L133.749 118.854L136.215 117.146ZM126.882 104.8H126.402V107.8H126.882V104.8ZM126.402 104.8H117.942V107.8H126.402V104.8ZM116.442 106.3V118H119.442V106.3H116.442ZM117.942 116.5H108.222V119.5H117.942V116.5ZM109.722 118V76H106.722V118H109.722ZM108.222 77.5H126.402V74.5H108.222V77.5ZM126.402 77.5C129.959 77.5 132.957 78.0929 135.44 79.2249L136.684 76.4951C133.727 75.1471 130.286 74.5 126.402 74.5V77.5ZM135.447 79.2282C137.975 80.3639 139.858 81.9454 141.164 83.9567L143.68 82.3233C142.026 79.7746 139.669 77.8361 136.677 76.4917L135.447 79.2282ZM141.164 83.9567C142.464 85.9591 143.142 88.3659 143.142 91.24H146.142C146.142 87.8741 145.341 84.8809 143.68 82.3233L141.164 83.9567ZM143.142 91.24C143.142 94.1062 142.448 96.5074 141.114 98.5079L143.61 100.172C145.317 97.6126 146.142 94.6138 146.142 91.24H143.142ZM141.111 98.5131C139.81 100.482 137.931 102.026 135.404 103.124L136.6 105.876C139.593 104.574 141.955 102.678 143.614 100.167L141.111 98.5131ZM134.772 105.358L144.192 118.858L146.652 117.142L137.232 103.642L134.772 105.358ZM145.422 116.5H134.982V119.5H145.422V116.5ZM136.302 91.24C136.302 88.5306 135.411 86.2609 133.47 84.6777L131.574 87.0023C132.673 87.8991 133.302 89.2294 133.302 91.24H136.302ZM133.488 84.6926C131.596 83.099 128.974 82.42 125.862 82.42V85.42C128.59 85.42 130.408 86.021 131.556 86.9874L133.488 84.6926ZM125.862 82.42H117.942V85.42H125.862V82.42ZM116.442 83.92V98.56H119.442V83.92H116.442ZM117.942 100.06H125.862V97.06H117.942V100.06ZM125.862 100.06C128.974 100.06 131.596 99.381 133.488 97.7874L131.556 95.4926C130.408 96.459 128.59 97.06 125.862 97.06V100.06ZM133.488 97.7874C135.405 96.1733 136.302 93.9202 136.302 91.24H133.302C133.302 93.1998 132.679 94.5467 131.556 95.4926L133.488 97.7874ZM167.643 101.5L168.806 100.553L167.735 99.2375L166.561 100.462L167.643 101.5ZM162.003 107.38L160.921 106.342L160.503 106.777V107.38H162.003ZM162.003 118V119.5H163.503V118H162.003ZM152.343 118H150.843V119.5H152.343V118ZM152.343 76V74.5H150.843V76H152.343ZM162.003 76H163.503V74.5H162.003V76ZM162.003 95.62H160.503V99.3825L163.092 96.652L162.003 95.62ZM180.603 76V74.5H179.958L179.515 74.968L180.603 76ZM191.403 76L192.502 77.0212L194.845 74.5H191.403V76ZM174.003 94.72L172.905 93.6988L172.028 94.6415L172.827 95.6507L174.003 94.72ZM192.423 118V119.5H195.523L193.6 117.069L192.423 118ZM181.083 118L179.92 118.947L180.37 119.5H181.083V118ZM166.561 100.462L160.921 106.342L163.086 108.418L168.726 102.538L166.561 100.462ZM160.503 107.38V118H163.503V107.38H160.503ZM162.003 116.5H152.343V119.5H162.003V116.5ZM153.843 118V76H150.843V118H153.843ZM152.343 77.5H162.003V74.5H152.343V77.5ZM160.503 76V95.62H163.503V76H160.503ZM163.092 96.652L181.692 77.032L179.515 74.968L160.915 94.588L163.092 96.652ZM180.603 77.5H191.403V74.5H180.603V77.5ZM190.305 74.9788L172.905 93.6988L175.102 95.7412L192.502 77.0212L190.305 74.9788ZM172.827 95.6507L191.247 118.931L193.6 117.069L175.18 93.7893L172.827 95.6507ZM192.423 116.5H181.083V119.5H192.423V116.5ZM182.246 117.053L168.806 100.553L166.48 102.447L179.92 118.947L182.246 117.053ZM229.277 110.2H230.777V108.7H229.277V110.2ZM229.277 118V119.5H230.777V118H229.277ZM196.757 118H195.257V119.5H196.757V118ZM196.757 76V74.5H195.257V76H196.757ZM228.497 76H229.997V74.5H228.497V76ZM228.497 83.8V85.3H229.997V83.8H228.497ZM206.417 83.8V82.3H204.917V83.8H206.417ZM206.417 92.92H204.917V94.42H206.417V92.92ZM225.917 92.92H227.417V91.42H225.917V92.92ZM225.917 100.48V101.98H227.417V100.48H225.917ZM206.417 100.48V98.98H204.917V100.48H206.417ZM206.417 110.2H204.917V111.7H206.417V110.2ZM227.777 110.2V118H230.777V110.2H227.777ZM229.277 116.5H196.757V119.5H229.277V116.5ZM198.257 118V76H195.257V118H198.257ZM196.757 77.5H228.497V74.5H196.757V77.5ZM226.997 76V83.8H229.997V76H226.997ZM228.497 82.3H206.417V85.3H228.497V82.3ZM204.917 83.8V92.92H207.917V83.8H204.917ZM206.417 94.42H225.917V91.42H206.417V94.42ZM224.417 92.92V100.48H227.417V92.92H224.417ZM225.917 98.98H206.417V101.98H225.917V98.98ZM204.917 100.48V110.2H207.917V100.48H204.917ZM206.417 111.7H229.277V108.7H206.417V111.7ZM245.711 83.92H247.211V82.42H245.711V83.92ZM232.271 83.92H230.771V85.42H232.271V83.92ZM232.271 76V74.5H230.771V76H232.271ZM268.871 76H270.371V74.5H268.871V76ZM268.871 83.92V85.42H270.371V83.92H268.871ZM255.431 83.92V82.42H253.931V83.92H255.431ZM255.431 118V119.5H256.931V118H255.431ZM245.711 118H244.211V119.5H245.711V118ZM245.711 82.42H232.271V85.42H245.711V82.42ZM233.771 83.92V76H230.771V83.92H233.771ZM232.271 77.5H268.871V74.5H232.271V77.5ZM267.371 76V83.92H270.371V76H267.371ZM268.871 82.42H255.431V85.42H268.871V82.42ZM253.931 83.92V118H256.931V83.92H253.931ZM255.431 116.5H245.711V119.5H255.431V116.5ZM247.211 118V83.92H244.211V118H247.211ZM299.793 83.92H301.293V82.42H299.793V83.92ZM286.353 83.92H284.853V85.42H286.353V83.92ZM286.353 76V74.5H284.853V76H286.353ZM322.953 76H324.453V74.5H322.953V76ZM322.953 83.92V85.42H324.453V83.92H322.953ZM309.513 83.92V82.42H308.013V83.92H309.513ZM309.513 118V119.5H311.013V118H309.513ZM299.793 118H298.293V119.5H299.793V118ZM299.793 82.42H286.353V85.42H299.793V82.42ZM287.853 83.92V76H284.853V83.92H287.853ZM286.353 77.5H322.953V74.5H286.353V77.5ZM321.453 76V83.92H324.453V76H321.453ZM322.953 82.42H309.513V85.42H322.953V82.42ZM308.013 83.92V118H311.013V83.92H308.013ZM309.513 116.5H299.793V119.5H309.513V116.5ZM301.293 118V83.92H298.293V118H301.293ZM336.117 115.9L335.404 117.22L335.411 117.223L336.117 115.9ZM327.897 108.16L326.605 108.923L326.611 108.932L326.616 108.941L327.897 108.16ZM327.897 85.9L326.612 85.126L326.61 85.1306L327.897 85.9ZM336.117 78.1L335.411 76.7769L335.404 76.7803L336.117 78.1ZM367.917 85.9L366.632 86.674L366.637 86.6809L367.917 85.9ZM367.917 108.16L369.198 108.941L369.202 108.934L367.917 108.16ZM359.697 115.9L360.41 117.22L359.697 115.9ZM354.657 108.76L355.39 110.069L355.4 110.063L355.41 110.058L354.657 108.76ZM359.337 103.96L358.033 103.219L358.028 103.228L358.022 103.238L359.337 103.96ZM359.337 90.04L358.022 90.7619L358.028 90.7717L358.033 90.7814L359.337 90.04ZM354.657 85.3L353.905 86.5975L353.914 86.6032L353.924 86.6088L354.657 85.3ZM341.217 85.3L341.95 86.6088L341.96 86.6032L341.97 86.5975L341.217 85.3ZM336.477 90.04L335.173 89.2985L335.168 89.3083L335.162 89.3181L336.477 90.04ZM336.477 103.96L335.162 104.682L335.168 104.692L335.173 104.701L336.477 103.96ZM341.217 108.76L340.465 110.058L340.474 110.063L340.484 110.069L341.217 108.76ZM347.937 117.22C343.8 117.22 340.107 116.33 336.824 114.577L335.411 117.223C339.168 119.23 343.354 120.22 347.937 120.22V117.22ZM336.83 114.58C333.577 112.823 331.035 110.425 329.178 107.379L326.616 108.941C328.759 112.455 331.698 115.217 335.404 117.22L336.83 114.58ZM329.189 107.397C327.375 104.324 326.457 100.871 326.457 97H323.457C323.457 101.369 324.5 105.356 326.605 108.923L329.189 107.397ZM326.457 97C326.457 93.129 327.375 89.6987 329.185 86.6694L326.61 85.1306C324.5 88.6613 323.457 92.631 323.457 97H326.457ZM329.182 86.674C331.041 83.5887 333.581 81.175 336.83 79.4197L335.404 76.7803C331.693 78.785 328.754 81.5713 326.612 85.126L329.182 86.674ZM336.824 79.4231C340.107 77.6698 343.8 76.78 347.937 76.78V73.78C343.354 73.78 339.168 74.7702 335.411 76.7769L336.824 79.4231ZM347.937 76.78C352.074 76.78 355.745 77.6698 358.984 79.4197L360.41 76.7803C356.689 74.7702 352.52 73.78 347.937 73.78V76.78ZM358.984 79.4197C362.233 81.175 364.774 83.5887 366.632 86.674L369.202 85.126C367.061 81.5713 364.121 78.785 360.41 76.7803L358.984 79.4197ZM366.637 86.6809C368.483 89.7086 369.417 93.1348 369.417 97H372.417C372.417 92.6252 371.352 88.6514 369.198 85.1191L366.637 86.6809ZM369.417 97C369.417 100.865 368.483 104.314 366.632 107.386L369.202 108.934C371.352 105.366 372.417 101.375 372.417 97H369.417ZM366.637 107.379C364.779 110.425 362.238 112.823 358.984 114.58L360.41 117.22C364.117 115.217 367.055 112.455 369.198 108.941L366.637 107.379ZM358.984 114.58C355.745 116.33 352.074 117.22 347.937 117.22V120.22C352.52 120.22 356.689 119.23 360.41 117.22L358.984 114.58ZM347.937 111.94C350.652 111.94 353.148 111.324 355.39 110.069L353.924 107.451C352.166 108.436 350.182 108.94 347.937 108.94V111.94ZM355.41 110.058C357.648 108.76 359.401 106.96 360.652 104.682L358.022 103.238C357.033 105.04 355.667 106.44 353.905 107.462L355.41 110.058ZM360.641 104.701C361.943 102.412 362.577 99.8312 362.577 97H359.577C359.577 99.3688 359.051 101.428 358.033 103.219L360.641 104.701ZM362.577 97C362.577 94.1688 361.943 91.5882 360.641 89.2985L358.033 90.7814C359.051 92.5717 359.577 94.6312 359.577 97H362.577ZM360.652 89.3181C359.399 87.0358 357.639 85.2507 355.39 83.9912L353.924 86.6088C355.675 87.5893 357.035 88.9642 358.022 90.7619L360.652 89.3181ZM355.41 84.0024C353.165 82.7002 350.662 82.06 347.937 82.06V85.06C350.173 85.06 352.15 85.5798 353.905 86.5975L355.41 84.0024ZM347.937 82.06C345.213 82.06 342.71 82.7002 340.465 84.0024L341.97 86.5975C343.725 85.5798 345.702 85.06 347.937 85.06V82.06ZM340.484 83.9912C338.24 85.2481 336.465 87.0269 335.173 89.2985L337.781 90.7815C338.809 88.9731 340.194 87.5919 341.95 86.6088L340.484 83.9912ZM335.162 89.3181C333.907 91.6043 333.297 94.1777 333.297 97H336.297C336.297 94.6222 336.807 92.5557 337.792 90.7619L335.162 89.3181ZM333.297 97C333.297 99.8223 333.907 102.396 335.162 104.682L337.792 103.238C336.807 101.444 336.297 99.3777 336.297 97H333.297ZM335.173 104.701C336.462 106.969 338.231 108.762 340.465 110.058L341.97 107.462C340.203 106.438 338.812 105.031 337.781 103.219L335.173 104.701ZM340.484 110.069C342.726 111.324 345.222 111.94 347.937 111.94V108.94C345.692 108.94 343.708 108.436 341.95 107.451L340.484 110.069ZM393.522 101.5L394.685 100.553L393.614 99.2375L392.44 100.462L393.522 101.5ZM387.882 107.38L386.8 106.342L386.382 106.777V107.38H387.882ZM387.882 118V119.5H389.382V118H387.882ZM378.222 118H376.722V119.5H378.222V118ZM378.222 76V74.5H376.722V76H378.222ZM387.882 76H389.382V74.5H387.882V76ZM387.882 95.62H386.382V99.3825L388.971 96.652L387.882 95.62ZM406.482 76V74.5H405.837L405.394 74.968L406.482 76ZM417.282 76L418.381 77.0212L420.724 74.5H417.282V76ZM399.882 94.72L398.784 93.6988L397.907 94.6415L398.706 95.6507L399.882 94.72ZM418.302 118V119.5H421.402L419.479 117.069L418.302 118ZM406.962 118L405.799 118.947L406.249 119.5H406.962V118ZM392.44 100.462L386.8 106.342L388.965 108.418L394.605 102.538L392.44 100.462ZM386.382 107.38V118H389.382V107.38H386.382ZM387.882 116.5H378.222V119.5H387.882V116.5ZM379.722 118V76H376.722V118H379.722ZM378.222 77.5H387.882V74.5H378.222V77.5ZM386.382 76V95.62H389.382V76H386.382ZM388.971 96.652L407.571 77.032L405.394 74.968L386.794 94.588L388.971 96.652ZM406.482 77.5H417.282V74.5H406.482V77.5ZM416.184 74.9788L398.784 93.6988L400.981 95.7412L418.381 77.0212L416.184 74.9788ZM398.706 95.6507L417.126 118.931L419.479 117.069L401.059 93.7893L398.706 95.6507ZM418.302 116.5H406.962V119.5H418.302V116.5ZM408.125 117.053L394.685 100.553L392.359 102.447L405.799 118.947L408.125 117.053ZM455.156 110.2H456.656V108.7H455.156V110.2ZM455.156 118V119.5H456.656V118H455.156ZM422.636 118H421.136V119.5H422.636V118ZM422.636 76V74.5H421.136V76H422.636ZM454.376 76H455.876V74.5H454.376V76ZM454.376 83.8V85.3H455.876V83.8H454.376ZM432.296 83.8V82.3H430.796V83.8H432.296ZM432.296 92.92H430.796V94.42H432.296V92.92ZM451.796 92.92H453.296V91.42H451.796V92.92ZM451.796 100.48V101.98H453.296V100.48H451.796ZM432.296 100.48V98.98H430.796V100.48H432.296ZM432.296 110.2H430.796V111.7H432.296V110.2ZM453.656 110.2V118H456.656V110.2H453.656ZM455.156 116.5H422.636V119.5H455.156V116.5ZM424.136 118V76H421.136V118H424.136ZM422.636 77.5H454.376V74.5H422.636V77.5ZM452.876 76V83.8H455.876V76H452.876ZM454.376 82.3H432.296V85.3H454.376V82.3ZM430.796 83.8V92.92H433.796V83.8H430.796ZM432.296 94.42H451.796V91.42H432.296V94.42ZM450.296 92.92V100.48H453.296V92.92H450.296ZM451.796 98.98H432.296V101.98H451.796V98.98ZM430.796 100.48V110.2H433.796V100.48H430.796ZM432.296 111.7H455.156V108.7H432.296V111.7ZM501.41 76H502.91V74.5H501.41V76ZM501.41 118V119.5H502.91V118H501.41ZM493.43 118L492.271 118.952L492.721 119.5H493.43V118ZM472.49 92.5L473.649 91.5481L470.99 88.3097V92.5H472.49ZM472.49 118V119.5H473.99V118H472.49ZM462.89 118H461.39V119.5H462.89V118ZM462.89 76V74.5H461.39V76H462.89ZM470.93 76L472.091 75.0497L471.641 74.5H470.93V76ZM491.81 101.5L490.65 102.45L493.31 105.7V101.5H491.81ZM491.81 76V74.5H490.31V76H491.81ZM499.91 76V118H502.91V76H499.91ZM501.41 116.5H493.43V119.5H501.41V116.5ZM494.589 117.048L473.649 91.5481L471.331 93.4519L492.271 118.952L494.589 117.048ZM470.99 92.5V118H473.99V92.5H470.99ZM472.49 116.5H462.89V119.5H472.49V116.5ZM464.39 118V76H461.39V118H464.39ZM462.89 77.5H470.93V74.5H462.89V77.5ZM469.77 76.9503L490.65 102.45L492.971 100.55L472.091 75.0497L469.77 76.9503ZM493.31 101.5V76H490.31V101.5H493.31ZM491.81 77.5H501.41V74.5H491.81V77.5Z" fill="#F7F7F7"/>
</svg>
