<svg width="541" height="74" viewBox="0 0 541 74" fill="none" xmlns="http://www.w3.org/2000/svg">
<path d="M4.51 17C4.12867 17 3.90133 16.802 3.828 16.406L0.99 2.282C0.975333 2.20867 0.968 2.128 0.968 2.04C0.968 1.92267 1.012 1.82 1.1 1.732C1.188 1.644 1.29067 1.6 1.408 1.6H2.552C2.86 1.6 3.036 1.72467 3.08 1.974L5.324 13.326L7.7 5.538C7.832 5.186 8.06667 5.01 8.404 5.01H9.218C9.40867 5.01 9.55533 5.06133 9.658 5.164C9.77533 5.26667 9.856 5.39133 9.9 5.538L12.298 13.326L14.52 1.974C14.564 1.72467 14.7473 1.6 15.07 1.6H16.214C16.3313 1.6 16.434 1.644 16.522 1.732C16.61 1.82 16.654 1.92267 16.654 2.04L16.632 2.282L13.794 16.406C13.706 16.802 13.4787 17 13.112 17H12.254C11.8727 17 11.6307 16.8167 11.528 16.45L8.8 8.068L6.094 16.45C5.97667 16.8167 5.73467 17 5.368 17H4.51ZM19.5752 3.426C19.4285 3.426 19.3039 3.382 19.2012 3.294C19.1132 3.19133 19.0692 3.06667 19.0692 2.92V1.732C19.0692 1.58533 19.1132 1.46067 19.2012 1.358C19.3039 1.25533 19.4285 1.204 19.5752 1.204H20.9612C21.1079 1.204 21.2325 1.25533 21.3352 1.358C21.4379 1.46067 21.4892 1.58533 21.4892 1.732V2.92C21.4892 3.06667 21.4379 3.19133 21.3352 3.294C21.2325 3.382 21.1079 3.426 20.9612 3.426H19.5752ZM19.7512 17C19.6045 17 19.4799 16.956 19.3772 16.868C19.2892 16.7653 19.2452 16.6407 19.2452 16.494V6.066C19.2452 5.91933 19.2892 5.802 19.3772 5.714C19.4799 5.61133 19.6045 5.56 19.7512 5.56H20.8072C20.9539 5.56 21.0712 5.61133 21.1592 5.714C21.2619 5.802 21.3132 5.91933 21.3132 6.066V16.494C21.3132 16.6407 21.2619 16.7653 21.1592 16.868C21.0712 16.956 20.9539 17 20.8072 17H19.7512ZM29.0393 17C26.722 17 25.5633 15.7093 25.5633 13.128V7.32H23.8473C23.7006 7.32 23.576 7.276 23.4733 7.188C23.3853 7.08533 23.3413 6.96067 23.3413 6.814V6.066C23.3413 5.91933 23.3853 5.802 23.4733 5.714C23.576 5.61133 23.7006 5.56 23.8473 5.56H25.5633V1.886C25.5633 1.73933 25.6073 1.622 25.6953 1.534C25.798 1.43133 25.9226 1.38 26.0693 1.38H27.1033C27.25 1.38 27.3673 1.43133 27.4553 1.534C27.558 1.622 27.6093 1.73933 27.6093 1.886V5.56H30.3373C30.484 5.56 30.6013 5.61133 30.6893 5.714C30.792 5.802 30.8433 5.91933 30.8433 6.066V6.814C30.8433 6.96067 30.792 7.08533 30.6893 7.188C30.6013 7.276 30.484 7.32 30.3373 7.32H27.6093V12.974C27.6093 13.7073 27.734 14.2647 27.9833 14.646C28.2326 15.0127 28.6433 15.196 29.2153 15.196H30.5573C30.704 15.196 30.8213 15.2473 30.9093 15.35C31.012 15.438 31.0633 15.5553 31.0633 15.702V16.494C31.0633 16.6407 31.012 16.7653 30.9093 16.868C30.8213 16.956 30.704 17 30.5573 17H29.0393ZM33.6951 17C33.5484 17 33.4237 16.956 33.3211 16.868C33.2331 16.7653 33.1891 16.6407 33.1891 16.494V1.886C33.1891 1.73933 33.2331 1.622 33.3211 1.534C33.4237 1.43133 33.5484 1.38 33.6951 1.38H34.7951C34.9417 1.38 35.0591 1.43133 35.1471 1.534C35.2497 1.622 35.3011 1.73933 35.3011 1.886V7.012C35.7264 6.46933 36.2251 6.05867 36.7971 5.78C37.3691 5.48667 38.0804 5.34 38.9311 5.34C40.3391 5.34 41.4317 5.79467 42.2091 6.704C43.0011 7.59867 43.3971 8.794 43.3971 10.29V16.494C43.3971 16.6407 43.3457 16.7653 43.2431 16.868C43.1551 16.956 43.0377 17 42.8911 17H41.7911C41.6444 17 41.5197 16.956 41.4171 16.868C41.3291 16.7653 41.2851 16.6407 41.2851 16.494V10.4C41.2851 9.35867 41.0284 8.552 40.5151 7.98C40.0164 7.408 39.2904 7.122 38.3371 7.122C37.4131 7.122 36.6724 7.41533 36.1151 8.002C35.5724 8.574 35.3011 9.37333 35.3011 10.4V16.494C35.3011 16.6407 35.2497 16.7653 35.1471 16.868C35.0591 16.956 34.9417 17 34.7951 17H33.6951ZM55.5653 17C55.4186 17 55.294 16.956 55.1913 16.868C55.1033 16.7653 55.0593 16.6407 55.0593 16.494V3.558H50.8353C50.6886 3.558 50.564 3.514 50.4613 3.426C50.3733 3.32333 50.3293 3.19867 50.3293 3.052V2.128C50.3293 1.98133 50.3733 1.85667 50.4613 1.754C50.564 1.65133 50.6886 1.6 50.8353 1.6H61.4393C61.6006 1.6 61.7253 1.65133 61.8133 1.754C61.916 1.842 61.9673 1.96667 61.9673 2.128V3.052C61.9673 3.19867 61.916 3.32333 61.8133 3.426C61.7106 3.514 61.586 3.558 61.4393 3.558H57.2373V16.494C57.2373 16.6407 57.186 16.7653 57.0833 16.868C56.9806 16.956 56.856 17 56.7093 17H55.5653ZM64.9395 17C64.7929 17 64.6682 16.956 64.5655 16.868C64.4775 16.7653 64.4335 16.6407 64.4335 16.494V2.128C64.4335 1.96667 64.4775 1.842 64.5655 1.754C64.6682 1.65133 64.7929 1.6 64.9395 1.6H70.3075C71.9942 1.6 73.3142 1.996 74.2675 2.788C75.2209 3.58 75.6975 4.724 75.6975 6.22C75.6975 7.33467 75.4189 8.25133 74.8615 8.97C74.3189 9.68867 73.5489 10.1873 72.5515 10.466L75.9395 16.318C75.9835 16.406 76.0055 16.4867 76.0055 16.56C76.0055 16.6773 75.9542 16.78 75.8515 16.868C75.7635 16.956 75.6609 17 75.5435 17H74.4875C74.2675 17 74.0915 16.9487 73.9595 16.846C73.8422 16.7433 73.7322 16.5967 73.6295 16.406L70.4395 10.818H66.5895V16.494C66.5895 16.6407 66.5382 16.7653 66.4355 16.868C66.3329 16.956 66.2082 17 66.0615 17H64.9395ZM70.2195 8.948C72.4049 8.948 73.4975 8.03133 73.4975 6.198C73.4975 4.36467 72.4049 3.448 70.2195 3.448H66.5895V8.948H70.2195ZM77.8155 17C77.6982 17 77.5955 16.956 77.5075 16.868C77.4195 16.78 77.3755 16.6773 77.3755 16.56C77.3755 16.4427 77.3829 16.362 77.3975 16.318L82.8535 2.084C82.9709 1.76133 83.2055 1.6 83.5575 1.6H85.0535C85.4055 1.6 85.6402 1.76133 85.7575 2.084L91.1915 16.318L91.2355 16.56C91.2355 16.6773 91.1915 16.78 91.1035 16.868C91.0155 16.956 90.9129 17 90.7955 17H89.6735C89.5122 17 89.3875 16.9633 89.2995 16.89C89.2115 16.802 89.1529 16.714 89.1235 16.626L87.9135 13.502H80.6975L79.4875 16.626C79.4582 16.714 79.3922 16.802 79.2895 16.89C79.2015 16.9633 79.0842 17 78.9375 17H77.8155ZM87.2755 11.61L84.3055 3.8L81.3355 11.61H87.2755ZM94.0938 17C93.9472 17 93.8225 16.956 93.7198 16.868C93.6318 16.7653 93.5878 16.6407 93.5878 16.494V2.128C93.5878 1.96667 93.6318 1.842 93.7198 1.754C93.8225 1.65133 93.9472 1.6 94.0938 1.6H99.0878C101.302 1.6 102.901 2.09867 103.884 3.096C104.866 4.07867 105.38 5.56733 105.424 7.562C105.438 7.98733 105.446 8.55933 105.446 9.278C105.446 9.99667 105.438 10.576 105.424 11.016C105.38 12.4093 105.145 13.546 104.72 14.426C104.309 15.2913 103.656 15.9367 102.762 16.362C101.867 16.7873 100.679 17 99.1978 17H94.0938ZM99.0878 15.13C100.1 15.13 100.899 14.9907 101.486 14.712C102.087 14.4333 102.52 13.9933 102.784 13.392C103.062 12.776 103.216 11.9547 103.246 10.928C103.275 10.048 103.29 9.498 103.29 9.278C103.29 9.04333 103.275 8.50067 103.246 7.65C103.216 6.198 102.872 5.142 102.212 4.482C101.552 3.80733 100.474 3.47 98.9778 3.47H95.7438V15.13H99.0878ZM107.464 17C107.347 17 107.244 16.956 107.156 16.868C107.068 16.78 107.024 16.6773 107.024 16.56C107.024 16.4427 107.031 16.362 107.046 16.318L112.502 2.084C112.619 1.76133 112.854 1.6 113.206 1.6H114.702C115.054 1.6 115.289 1.76133 115.406 2.084L120.84 16.318L120.884 16.56C120.884 16.6773 120.84 16.78 120.752 16.868C120.664 16.956 120.561 17 120.444 17H119.322C119.161 17 119.036 16.9633 118.948 16.89C118.86 16.802 118.801 16.714 118.772 16.626L117.562 13.502H110.346L109.136 16.626C109.107 16.714 109.041 16.802 108.938 16.89C108.85 16.9633 108.733 17 108.586 17H107.464ZM116.924 11.61L113.954 3.8L110.984 11.61H116.924ZM131.756 17C129.439 17 128.28 15.7093 128.28 13.128V7.32H126.564C126.417 7.32 126.293 7.276 126.19 7.188C126.102 7.08533 126.058 6.96067 126.058 6.814V6.066C126.058 5.91933 126.102 5.802 126.19 5.714C126.293 5.61133 126.417 5.56 126.564 5.56H128.28V1.886C128.28 1.73933 128.324 1.622 128.412 1.534C128.515 1.43133 128.639 1.38 128.786 1.38H129.82C129.967 1.38 130.084 1.43133 130.172 1.534C130.275 1.622 130.326 1.73933 130.326 1.886V5.56H133.054C133.201 5.56 133.318 5.61133 133.406 5.714C133.509 5.802 133.56 5.91933 133.56 6.066V6.814C133.56 6.96067 133.509 7.08533 133.406 7.188C133.318 7.276 133.201 7.32 133.054 7.32H130.326V12.974C130.326 13.7073 130.451 14.2647 130.7 14.646C130.949 15.0127 131.36 15.196 131.932 15.196H133.274C133.421 15.196 133.538 15.2473 133.626 15.35C133.729 15.438 133.78 15.5553 133.78 15.702V16.494C133.78 16.6407 133.729 16.7653 133.626 16.868C133.538 16.956 133.421 17 133.274 17H131.756ZM140.57 17.22C138.957 17.22 137.703 16.7653 136.808 15.856C135.928 14.9467 135.459 13.7367 135.4 12.226L135.378 11.28L135.4 10.334C135.459 8.838 135.935 7.63533 136.83 6.726C137.725 5.802 138.971 5.34 140.57 5.34C142.169 5.34 143.415 5.802 144.31 6.726C145.205 7.63533 145.681 8.838 145.74 10.334C145.755 10.4953 145.762 10.8107 145.762 11.28C145.762 11.7493 145.755 12.0647 145.74 12.226C145.681 13.7367 145.205 14.9467 144.31 15.856C143.43 16.7653 142.183 17.22 140.57 17.22ZM140.57 15.526C141.494 15.526 142.22 15.2327 142.748 14.646C143.291 14.0593 143.584 13.216 143.628 12.116C143.643 11.9693 143.65 11.6907 143.65 11.28C143.65 10.8693 143.643 10.5907 143.628 10.444C143.584 9.344 143.291 8.50067 142.748 7.914C142.22 7.32733 141.494 7.034 140.57 7.034C139.646 7.034 138.913 7.32733 138.37 7.914C137.827 8.50067 137.541 9.344 137.512 10.444L137.49 11.28L137.512 12.116C137.541 13.216 137.827 14.0593 138.37 14.646C138.913 15.2327 139.646 15.526 140.57 15.526ZM149.045 17C148.898 17 148.773 16.956 148.671 16.868C148.583 16.7653 148.539 16.6407 148.539 16.494V1.886C148.539 1.73933 148.583 1.622 148.671 1.534C148.773 1.43133 148.898 1.38 149.045 1.38H150.079C150.225 1.38 150.343 1.43133 150.431 1.534C150.533 1.622 150.585 1.73933 150.585 1.886V9.542L154.919 5.934C154.963 5.90467 155.036 5.846 155.139 5.758C155.241 5.68467 155.337 5.63333 155.425 5.604C155.527 5.57467 155.652 5.56 155.799 5.56H156.965C157.097 5.56 157.207 5.604 157.295 5.692C157.383 5.78 157.427 5.89 157.427 6.022C157.427 6.18333 157.339 6.32267 157.163 6.44L152.081 10.664L157.713 16.142C157.889 16.2887 157.977 16.4207 157.977 16.538C157.977 16.67 157.933 16.78 157.845 16.868C157.757 16.956 157.647 17 157.515 17H156.371C156.151 17 155.989 16.978 155.887 16.934C155.799 16.89 155.667 16.7873 155.491 16.626L150.585 11.94V16.494C150.585 16.6407 150.533 16.7653 150.431 16.868C150.343 16.956 150.225 17 150.079 17H149.045ZM163.899 17.22C162.389 17.22 161.179 16.758 160.269 15.834C159.375 14.8953 158.883 13.6193 158.795 12.006L158.773 11.258L158.795 10.532C158.898 8.948 159.397 7.68667 160.291 6.748C161.201 5.80933 162.396 5.34 163.877 5.34C165.505 5.34 166.767 5.86067 167.661 6.902C168.556 7.92867 169.003 9.322 169.003 11.082V11.456C169.003 11.6027 168.952 11.7273 168.849 11.83C168.761 11.918 168.644 11.962 168.497 11.962H160.885V12.16C160.929 13.1133 161.215 13.9273 161.743 14.602C162.286 15.262 162.997 15.592 163.877 15.592C164.552 15.592 165.102 15.46 165.527 15.196C165.967 14.9173 166.29 14.6313 166.495 14.338C166.627 14.162 166.723 14.0593 166.781 14.03C166.855 13.986 166.979 13.964 167.155 13.964H168.233C168.365 13.964 168.475 14.0007 168.563 14.074C168.651 14.1473 168.695 14.25 168.695 14.382C168.695 14.7047 168.49 15.0933 168.079 15.548C167.683 16.0027 167.119 16.3987 166.385 16.736C165.667 17.0587 164.838 17.22 163.899 17.22ZM166.913 10.444V10.378C166.913 9.366 166.635 8.54467 166.077 7.914C165.535 7.26867 164.801 6.946 163.877 6.946C162.953 6.946 162.22 7.26867 161.677 7.914C161.149 8.54467 160.885 9.366 160.885 10.378V10.444H166.913ZM172.14 17C171.993 17 171.869 16.956 171.766 16.868C171.678 16.7653 171.634 16.6407 171.634 16.494V6.066C171.634 5.91933 171.678 5.802 171.766 5.714C171.869 5.61133 171.993 5.56 172.14 5.56H173.174C173.321 5.56 173.438 5.61133 173.526 5.714C173.629 5.802 173.68 5.91933 173.68 6.066V7.034C174.105 6.49133 174.604 6.07333 175.176 5.78C175.763 5.48667 176.489 5.34 177.354 5.34C178.762 5.34 179.855 5.79467 180.632 6.704C181.424 7.59867 181.82 8.794 181.82 10.29V16.494C181.82 16.6407 181.769 16.7653 181.666 16.868C181.578 16.956 181.461 17 181.314 17H180.214C180.067 17 179.943 16.956 179.84 16.868C179.752 16.7653 179.708 16.6407 179.708 16.494V10.4C179.708 9.35867 179.451 8.552 178.938 7.98C178.439 7.408 177.713 7.122 176.76 7.122C175.836 7.122 175.103 7.41533 174.56 8.002C174.017 8.574 173.746 9.37333 173.746 10.4V16.494C173.746 16.6407 173.695 16.7653 173.592 16.868C173.504 16.956 173.387 17 173.24 17H172.14ZM191.769 21.18C191.651 21.18 191.549 21.136 191.461 21.048C191.373 20.96 191.329 20.8573 191.329 20.74C191.329 20.6373 191.365 20.5053 191.439 20.344L193.133 16.318L188.931 6.396C188.857 6.20533 188.821 6.08067 188.821 6.022C188.821 5.89 188.865 5.78 188.953 5.692C189.041 5.604 189.151 5.56 189.283 5.56H190.361C190.595 5.56 190.771 5.68467 190.889 5.934L194.233 13.942L197.665 5.934C197.782 5.68467 197.965 5.56 198.215 5.56H199.249C199.381 5.56 199.491 5.604 199.579 5.692C199.667 5.78 199.711 5.88267 199.711 6C199.711 6.044 199.674 6.176 199.601 6.396L193.353 20.806C193.235 21.0553 193.052 21.18 192.803 21.18H191.769ZM206.205 17.22C204.591 17.22 203.337 16.7653 202.443 15.856C201.563 14.9467 201.093 13.7367 201.035 12.226L201.013 11.28L201.035 10.334C201.093 8.838 201.57 7.63533 202.465 6.726C203.359 5.802 204.606 5.34 206.205 5.34C207.803 5.34 209.05 5.802 209.945 6.726C210.839 7.63533 211.316 8.838 211.375 10.334C211.389 10.4953 211.397 10.8107 211.397 11.28C211.397 11.7493 211.389 12.0647 211.375 12.226C211.316 13.7367 210.839 14.9467 209.945 15.856C209.065 16.7653 207.818 17.22 206.205 17.22ZM206.205 15.526C207.129 15.526 207.855 15.2327 208.383 14.646C208.925 14.0593 209.219 13.216 209.263 12.116C209.277 11.9693 209.285 11.6907 209.285 11.28C209.285 10.8693 209.277 10.5907 209.263 10.444C209.219 9.344 208.925 8.50067 208.383 7.914C207.855 7.32733 207.129 7.034 206.205 7.034C205.281 7.034 204.547 7.32733 204.005 7.914C203.462 8.50067 203.176 9.344 203.147 10.444L203.125 11.28L203.147 12.116C203.176 13.216 203.462 14.0593 204.005 14.646C204.547 15.2327 205.281 15.526 206.205 15.526ZM218.419 17.22C217.026 17.22 215.948 16.7727 215.185 15.878C214.423 14.9687 214.041 13.766 214.041 12.27V6.066C214.041 5.91933 214.085 5.802 214.173 5.714C214.276 5.61133 214.401 5.56 214.547 5.56H215.647C215.794 5.56 215.911 5.61133 215.999 5.714C216.102 5.802 216.153 5.91933 216.153 6.066V12.16C216.153 14.3453 217.107 15.438 219.013 15.438C219.937 15.438 220.671 15.152 221.213 14.58C221.756 13.9933 222.027 13.1867 222.027 12.16V6.066C222.027 5.91933 222.071 5.802 222.159 5.714C222.262 5.61133 222.387 5.56 222.533 5.56H223.633C223.78 5.56 223.897 5.61133 223.985 5.714C224.073 5.802 224.117 5.91933 224.117 6.066V16.494C224.117 16.6407 224.073 16.7653 223.985 16.868C223.897 16.956 223.78 17 223.633 17H222.599C222.453 17 222.328 16.956 222.225 16.868C222.137 16.7653 222.093 16.6407 222.093 16.494V15.526C221.683 16.0833 221.184 16.5087 220.597 16.802C220.011 17.0807 219.285 17.22 218.419 17.22ZM227.653 6.242C227.389 6.242 227.243 6.08067 227.213 5.758L226.839 1.886V1.798C226.839 1.666 226.876 1.56333 226.949 1.49C227.037 1.41667 227.147 1.38 227.279 1.38H228.709C228.856 1.38 228.973 1.424 229.061 1.512C229.149 1.6 229.186 1.72467 229.171 1.886L228.797 5.758C228.739 6.08067 228.585 6.242 228.335 6.242H227.653ZM232.554 17C232.408 17 232.283 16.956 232.18 16.868C232.092 16.7653 232.048 16.6407 232.048 16.494V1.886C232.048 1.73933 232.092 1.622 232.18 1.534C232.283 1.43133 232.408 1.38 232.554 1.38H233.588C233.735 1.38 233.852 1.43133 233.94 1.534C234.043 1.622 234.094 1.73933 234.094 1.886V16.494C234.094 16.6407 234.043 16.7653 233.94 16.868C233.852 16.956 233.735 17 233.588 17H232.554ZM237.904 17C237.757 17 237.633 16.956 237.53 16.868C237.442 16.7653 237.398 16.6407 237.398 16.494V1.886C237.398 1.73933 237.442 1.622 237.53 1.534C237.633 1.43133 237.757 1.38 237.904 1.38H238.938C239.085 1.38 239.202 1.43133 239.29 1.534C239.393 1.622 239.444 1.73933 239.444 1.886V16.494C239.444 16.6407 239.393 16.7653 239.29 16.868C239.202 16.956 239.085 17 238.938 17H237.904ZM252.804 21.84C251.602 21.84 250.634 21.6347 249.9 21.224C249.167 20.828 248.646 20.3733 248.338 19.86C248.03 19.3467 247.862 18.8847 247.832 18.474C247.818 18.3273 247.862 18.2027 247.964 18.1C248.082 17.9973 248.206 17.946 248.338 17.946H249.394C249.526 17.946 249.636 17.9753 249.724 18.034C249.812 18.1073 249.886 18.232 249.944 18.408C250.12 18.8773 250.406 19.2807 250.802 19.618C251.213 19.97 251.844 20.146 252.694 20.146C253.78 20.146 254.579 19.9113 255.092 19.442C255.606 18.9873 255.862 18.1733 255.862 17V15.504C255.481 15.988 254.997 16.3767 254.41 16.67C253.824 16.9487 253.127 17.088 252.32 17.088C250.766 17.088 249.6 16.5967 248.822 15.614C248.06 14.6167 247.656 13.3553 247.612 11.83L247.59 11.214L247.612 10.62C247.656 9.10933 248.067 7.85533 248.844 6.858C249.622 5.846 250.78 5.34 252.32 5.34C253.86 5.34 255.063 5.90467 255.928 7.034V6.088C255.928 5.94133 255.972 5.81667 256.06 5.714C256.163 5.61133 256.288 5.56 256.434 5.56H257.446C257.593 5.56 257.718 5.61133 257.82 5.714C257.923 5.81667 257.974 5.94133 257.974 6.088V16.758C257.974 20.146 256.251 21.84 252.804 21.84ZM252.76 15.328C253.758 15.328 254.513 14.998 255.026 14.338C255.54 13.678 255.818 12.8933 255.862 11.984C255.877 11.852 255.884 11.5953 255.884 11.214C255.884 10.8473 255.877 10.598 255.862 10.466C255.818 9.55667 255.54 8.772 255.026 8.112C254.528 7.452 253.772 7.122 252.76 7.122C251.719 7.122 250.964 7.44467 250.494 8.09C250.025 8.73533 249.768 9.586 249.724 10.642L249.702 11.214L249.724 11.808C249.768 12.8493 250.025 13.7 250.494 14.36C250.964 15.0053 251.719 15.328 252.76 15.328ZM265.821 17.22C264.311 17.22 263.101 16.758 262.191 15.834C261.297 14.8953 260.805 13.6193 260.717 12.006L260.695 11.258L260.717 10.532C260.82 8.948 261.319 7.68667 262.213 6.748C263.123 5.80933 264.318 5.34 265.799 5.34C267.427 5.34 268.689 5.86067 269.583 6.902C270.478 7.92867 270.925 9.322 270.925 11.082V11.456C270.925 11.6027 270.874 11.7273 270.771 11.83C270.683 11.918 270.566 11.962 270.419 11.962H262.807V12.16C262.851 13.1133 263.137 13.9273 263.665 14.602C264.208 15.262 264.919 15.592 265.799 15.592C266.474 15.592 267.024 15.46 267.449 15.196C267.889 14.9173 268.212 14.6313 268.417 14.338C268.549 14.162 268.645 14.0593 268.703 14.03C268.777 13.986 268.901 13.964 269.077 13.964H270.155C270.287 13.964 270.397 14.0007 270.485 14.074C270.573 14.1473 270.617 14.25 270.617 14.382C270.617 14.7047 270.412 15.0933 270.001 15.548C269.605 16.0027 269.041 16.3987 268.307 16.736C267.589 17.0587 266.76 17.22 265.821 17.22ZM268.835 10.444V10.378C268.835 9.366 268.557 8.54467 267.999 7.914C267.457 7.26867 266.723 6.946 265.799 6.946C264.875 6.946 264.142 7.26867 263.599 7.914C263.071 8.54467 262.807 9.366 262.807 10.378V10.444H268.835ZM277.957 17C275.64 17 274.481 15.7093 274.481 13.128V7.32H272.765C272.619 7.32 272.494 7.276 272.391 7.188C272.303 7.08533 272.259 6.96067 272.259 6.814V6.066C272.259 5.91933 272.303 5.802 272.391 5.714C272.494 5.61133 272.619 5.56 272.765 5.56H274.481V1.886C274.481 1.73933 274.525 1.622 274.613 1.534C274.716 1.43133 274.841 1.38 274.987 1.38H276.021C276.168 1.38 276.285 1.43133 276.373 1.534C276.476 1.622 276.527 1.73933 276.527 1.886V5.56H279.255C279.402 5.56 279.519 5.61133 279.607 5.714C279.71 5.802 279.761 5.91933 279.761 6.066V6.814C279.761 6.96067 279.71 7.08533 279.607 7.188C279.519 7.276 279.402 7.32 279.255 7.32H276.527V12.974C276.527 13.7073 276.652 14.2647 276.901 14.646C277.151 15.0127 277.561 15.196 278.133 15.196H279.475C279.622 15.196 279.739 15.2473 279.827 15.35C279.93 15.438 279.981 15.5553 279.981 15.702V16.494C279.981 16.6407 279.93 16.7653 279.827 16.868C279.739 16.956 279.622 17 279.475 17H277.957ZM291.471 17C289.154 17 287.995 15.7093 287.995 13.128V7.32H286.279C286.132 7.32 286.008 7.276 285.905 7.188C285.817 7.08533 285.773 6.96067 285.773 6.814V6.066C285.773 5.91933 285.817 5.802 285.905 5.714C286.008 5.61133 286.132 5.56 286.279 5.56H287.995V1.886C287.995 1.73933 288.039 1.622 288.127 1.534C288.23 1.43133 288.354 1.38 288.501 1.38H289.535C289.682 1.38 289.799 1.43133 289.887 1.534C289.99 1.622 290.041 1.73933 290.041 1.886V5.56H292.769C292.916 5.56 293.033 5.61133 293.121 5.714C293.224 5.802 293.275 5.91933 293.275 6.066V6.814C293.275 6.96067 293.224 7.08533 293.121 7.188C293.033 7.276 292.916 7.32 292.769 7.32H290.041V12.974C290.041 13.7073 290.166 14.2647 290.415 14.646C290.664 15.0127 291.075 15.196 291.647 15.196H292.989C293.136 15.196 293.253 15.2473 293.341 15.35C293.444 15.438 293.495 15.5553 293.495 15.702V16.494C293.495 16.6407 293.444 16.7653 293.341 16.868C293.253 16.956 293.136 17 292.989 17H291.471ZM296.127 17C295.98 17 295.855 16.956 295.753 16.868C295.665 16.7653 295.621 16.6407 295.621 16.494V1.886C295.621 1.73933 295.665 1.622 295.753 1.534C295.855 1.43133 295.98 1.38 296.127 1.38H297.227C297.373 1.38 297.491 1.43133 297.579 1.534C297.681 1.622 297.733 1.73933 297.733 1.886V7.012C298.158 6.46933 298.657 6.05867 299.229 5.78C299.801 5.48667 300.512 5.34 301.363 5.34C302.771 5.34 303.863 5.79467 304.641 6.704C305.433 7.59867 305.829 8.794 305.829 10.29V16.494C305.829 16.6407 305.777 16.7653 305.675 16.868C305.587 16.956 305.469 17 305.323 17H304.223C304.076 17 303.951 16.956 303.849 16.868C303.761 16.7653 303.717 16.6407 303.717 16.494V10.4C303.717 9.35867 303.46 8.552 302.947 7.98C302.448 7.408 301.722 7.122 300.769 7.122C299.845 7.122 299.104 7.41533 298.547 8.002C298.004 8.574 297.733 9.37333 297.733 10.4V16.494C297.733 16.6407 297.681 16.7653 297.579 16.868C297.491 16.956 297.373 17 297.227 17H296.127ZM313.581 17.22C312.07 17.22 310.86 16.758 309.951 15.834C309.056 14.8953 308.565 13.6193 308.477 12.006L308.455 11.258L308.477 10.532C308.58 8.948 309.078 7.68667 309.973 6.748C310.882 5.80933 312.078 5.34 313.559 5.34C315.187 5.34 316.448 5.86067 317.343 6.902C318.238 7.92867 318.685 9.322 318.685 11.082V11.456C318.685 11.6027 318.634 11.7273 318.531 11.83C318.443 11.918 318.326 11.962 318.179 11.962H310.567V12.16C310.611 13.1133 310.897 13.9273 311.425 14.602C311.968 15.262 312.679 15.592 313.559 15.592C314.234 15.592 314.784 15.46 315.209 15.196C315.649 14.9173 315.972 14.6313 316.177 14.338C316.309 14.162 316.404 14.0593 316.463 14.03C316.536 13.986 316.661 13.964 316.837 13.964H317.915C318.047 13.964 318.157 14.0007 318.245 14.074C318.333 14.1473 318.377 14.25 318.377 14.382C318.377 14.7047 318.172 15.0933 317.761 15.548C317.365 16.0027 316.8 16.3987 316.067 16.736C315.348 17.0587 314.52 17.22 313.581 17.22ZM316.595 10.444V10.378C316.595 9.366 316.316 8.54467 315.759 7.914C315.216 7.26867 314.483 6.946 313.559 6.946C312.635 6.946 311.902 7.26867 311.359 7.914C310.831 8.54467 310.567 9.366 310.567 10.378V10.444H316.595ZM327.214 17C327.067 17 326.943 16.956 326.84 16.868C326.752 16.7653 326.708 16.6407 326.708 16.494V6.066C326.708 5.91933 326.752 5.802 326.84 5.714C326.943 5.61133 327.067 5.56 327.214 5.56H328.204C328.351 5.56 328.468 5.61133 328.556 5.714C328.659 5.802 328.71 5.91933 328.71 6.066V6.836C329.473 5.83867 330.536 5.34 331.9 5.34C333.528 5.34 334.679 6.01467 335.354 7.364C335.706 6.748 336.205 6.25667 336.85 5.89C337.495 5.52333 338.221 5.34 339.028 5.34C340.231 5.34 341.213 5.75067 341.976 6.572C342.739 7.39333 343.12 8.58133 343.12 10.136V16.494C343.12 16.6407 343.069 16.7653 342.966 16.868C342.878 16.956 342.761 17 342.614 17H341.58C341.433 17 341.309 16.956 341.206 16.868C341.118 16.7653 341.074 16.6407 341.074 16.494V10.334C341.074 9.19 340.832 8.36867 340.348 7.87C339.879 7.37133 339.255 7.122 338.478 7.122C337.789 7.122 337.195 7.37867 336.696 7.892C336.197 8.39067 335.948 9.20467 335.948 10.334V16.494C335.948 16.6407 335.897 16.7653 335.794 16.868C335.706 16.956 335.589 17 335.442 17H334.408C334.261 17 334.137 16.956 334.034 16.868C333.946 16.7653 333.902 16.6407 333.902 16.494V10.334C333.902 9.19 333.653 8.36867 333.154 7.87C332.67 7.37133 332.054 7.122 331.306 7.122C330.617 7.122 330.023 7.37867 329.524 7.892C329.025 8.39067 328.776 9.19733 328.776 10.312V16.494C328.776 16.6407 328.725 16.7653 328.622 16.868C328.534 16.956 328.417 17 328.27 17H327.214ZM350.945 17.22C349.332 17.22 348.078 16.7653 347.183 15.856C346.303 14.9467 345.834 13.7367 345.775 12.226L345.753 11.28L345.775 10.334C345.834 8.838 346.31 7.63533 347.205 6.726C348.1 5.802 349.346 5.34 350.945 5.34C352.544 5.34 353.79 5.802 354.685 6.726C355.58 7.63533 356.056 8.838 356.115 10.334C356.13 10.4953 356.137 10.8107 356.137 11.28C356.137 11.7493 356.13 12.0647 356.115 12.226C356.056 13.7367 355.58 14.9467 354.685 15.856C353.805 16.7653 352.558 17.22 350.945 17.22ZM350.945 15.526C351.869 15.526 352.595 15.2327 353.123 14.646C353.666 14.0593 353.959 13.216 354.003 12.116C354.018 11.9693 354.025 11.6907 354.025 11.28C354.025 10.8693 354.018 10.5907 354.003 10.444C353.959 9.344 353.666 8.50067 353.123 7.914C352.595 7.32733 351.869 7.034 350.945 7.034C350.021 7.034 349.288 7.32733 348.745 7.914C348.202 8.50067 347.916 9.344 347.887 10.444L347.865 11.28L347.887 12.116C347.916 13.216 348.202 14.0593 348.745 14.646C349.288 15.2327 350.021 15.526 350.945 15.526ZM362.852 17.22C361.825 17.22 360.96 17.0587 360.256 16.736C359.566 16.3987 359.046 16.0173 358.694 15.592C358.356 15.1667 358.188 14.8147 358.188 14.536C358.188 14.3893 358.239 14.2793 358.342 14.206C358.459 14.118 358.576 14.074 358.694 14.074H359.684C359.83 14.074 359.962 14.1473 360.08 14.294C360.432 14.7047 360.813 15.0273 361.224 15.262C361.634 15.4967 362.184 15.614 362.874 15.614C363.636 15.614 364.252 15.4673 364.722 15.174C365.206 14.866 365.448 14.448 365.448 13.92C365.448 13.568 365.345 13.282 365.14 13.062C364.949 12.8273 364.612 12.6293 364.128 12.468C363.658 12.292 362.954 12.1013 362.016 11.896C360.74 11.6173 359.83 11.214 359.288 10.686C358.76 10.158 358.496 9.476 358.496 8.64C358.496 8.08267 358.657 7.55467 358.98 7.056C359.317 6.54267 359.801 6.132 360.432 5.824C361.077 5.50133 361.847 5.34 362.742 5.34C363.68 5.34 364.48 5.494 365.14 5.802C365.8 6.11 366.291 6.47667 366.614 6.902C366.951 7.31267 367.12 7.65733 367.12 7.936C367.12 8.068 367.068 8.178 366.966 8.266C366.878 8.354 366.768 8.398 366.636 8.398H365.712C365.536 8.398 365.389 8.32467 365.272 8.178C365.037 7.89933 364.832 7.68667 364.656 7.54C364.494 7.37867 364.252 7.23933 363.93 7.122C363.622 7.00467 363.226 6.946 362.742 6.946C362.038 6.946 361.495 7.1 361.114 7.408C360.732 7.70133 360.542 8.09 360.542 8.574C360.542 8.882 360.622 9.146 360.784 9.366C360.945 9.57133 361.253 9.762 361.708 9.938C362.177 10.114 362.852 10.2973 363.732 10.488C365.125 10.7813 366.108 11.2067 366.68 11.764C367.266 12.3067 367.56 13.0033 367.56 13.854C367.56 14.4847 367.376 15.0567 367.01 15.57C366.643 16.0833 366.1 16.4867 365.382 16.78C364.678 17.0733 363.834 17.22 362.852 17.22ZM374.551 17C372.234 17 371.075 15.7093 371.075 13.128V7.32H369.359C369.212 7.32 369.088 7.276 368.985 7.188C368.897 7.08533 368.853 6.96067 368.853 6.814V6.066C368.853 5.91933 368.897 5.802 368.985 5.714C369.088 5.61133 369.212 5.56 369.359 5.56H371.075V1.886C371.075 1.73933 371.119 1.622 371.207 1.534C371.31 1.43133 371.434 1.38 371.581 1.38H372.615C372.762 1.38 372.879 1.43133 372.967 1.534C373.07 1.622 373.121 1.73933 373.121 1.886V5.56H375.849C375.996 5.56 376.113 5.61133 376.201 5.714C376.304 5.802 376.355 5.91933 376.355 6.066V6.814C376.355 6.96067 376.304 7.08533 376.201 7.188C376.113 7.276 375.996 7.32 375.849 7.32H373.121V12.974C373.121 13.7073 373.246 14.2647 373.495 14.646C373.744 15.0127 374.155 15.196 374.727 15.196H376.069C376.216 15.196 376.333 15.2473 376.421 15.35C376.524 15.438 376.575 15.5553 376.575 15.702V16.494C376.575 16.6407 376.524 16.7653 376.421 16.868C376.333 16.956 376.216 17 376.069 17H374.551ZM388.757 17.22C387.144 17.22 385.89 16.7653 384.995 15.856C384.115 14.9467 383.646 13.7367 383.587 12.226L383.565 11.28L383.587 10.334C383.646 8.838 384.123 7.63533 385.017 6.726C385.912 5.802 387.159 5.34 388.757 5.34C390.356 5.34 391.603 5.802 392.497 6.726C393.392 7.63533 393.869 8.838 393.927 10.334C393.942 10.4953 393.949 10.8107 393.949 11.28C393.949 11.7493 393.942 12.0647 393.927 12.226C393.869 13.7367 393.392 14.9467 392.497 15.856C391.617 16.7653 390.371 17.22 388.757 17.22ZM388.757 15.526C389.681 15.526 390.407 15.2327 390.935 14.646C391.478 14.0593 391.771 13.216 391.815 12.116C391.83 11.9693 391.837 11.6907 391.837 11.28C391.837 10.8693 391.83 10.5907 391.815 10.444C391.771 9.344 391.478 8.50067 390.935 7.914C390.407 7.32733 389.681 7.034 388.757 7.034C387.833 7.034 387.1 7.32733 386.557 7.914C386.015 8.50067 385.729 9.344 385.699 10.444L385.677 11.28L385.699 12.116C385.729 13.216 386.015 14.0593 386.557 14.646C387.1 15.2327 387.833 15.526 388.757 15.526ZM400.972 17.22C399.579 17.22 398.501 16.7727 397.738 15.878C396.976 14.9687 396.594 13.766 396.594 12.27V6.066C396.594 5.91933 396.638 5.802 396.726 5.714C396.829 5.61133 396.954 5.56 397.1 5.56H398.2C398.347 5.56 398.464 5.61133 398.552 5.714C398.655 5.802 398.706 5.91933 398.706 6.066V12.16C398.706 14.3453 399.66 15.438 401.566 15.438C402.49 15.438 403.224 15.152 403.766 14.58C404.309 13.9933 404.58 13.1867 404.58 12.16V6.066C404.58 5.91933 404.624 5.802 404.712 5.714C404.815 5.61133 404.94 5.56 405.086 5.56H406.186C406.333 5.56 406.45 5.61133 406.538 5.714C406.626 5.802 406.67 5.91933 406.67 6.066V16.494C406.67 16.6407 406.626 16.7653 406.538 16.868C406.45 16.956 406.333 17 406.186 17H405.152C405.006 17 404.881 16.956 404.778 16.868C404.69 16.7653 404.646 16.6407 404.646 16.494V15.526C404.236 16.0833 403.737 16.5087 403.15 16.802C402.564 17.0807 401.838 17.22 400.972 17.22ZM414.405 17C412.087 17 410.929 15.7093 410.929 13.128V7.32H409.213C409.066 7.32 408.941 7.276 408.839 7.188C408.751 7.08533 408.707 6.96067 408.707 6.814V6.066C408.707 5.91933 408.751 5.802 408.839 5.714C408.941 5.61133 409.066 5.56 409.213 5.56H410.929V1.886C410.929 1.73933 410.973 1.622 411.061 1.534C411.163 1.43133 411.288 1.38 411.435 1.38H412.469C412.615 1.38 412.733 1.43133 412.821 1.534C412.923 1.622 412.975 1.73933 412.975 1.886V5.56H415.703C415.849 5.56 415.967 5.61133 416.055 5.714C416.157 5.802 416.209 5.91933 416.209 6.066V6.814C416.209 6.96067 416.157 7.08533 416.055 7.188C415.967 7.276 415.849 7.32 415.703 7.32H412.975V12.974C412.975 13.7073 413.099 14.2647 413.349 14.646C413.598 15.0127 414.009 15.196 414.581 15.196H415.923C416.069 15.196 416.187 15.2473 416.275 15.35C416.377 15.438 416.429 15.5553 416.429 15.702V16.494C416.429 16.6407 416.377 16.7653 416.275 16.868C416.187 16.956 416.069 17 415.923 17H414.405ZM428.611 17.22C426.998 17.22 425.744 16.7653 424.849 15.856C423.969 14.9467 423.5 13.7367 423.441 12.226L423.419 11.28L423.441 10.334C423.5 8.838 423.976 7.63533 424.871 6.726C425.766 5.802 427.012 5.34 428.611 5.34C430.21 5.34 431.456 5.802 432.351 6.726C433.246 7.63533 433.722 8.838 433.781 10.334C433.796 10.4953 433.803 10.8107 433.803 11.28C433.803 11.7493 433.796 12.0647 433.781 12.226C433.722 13.7367 433.246 14.9467 432.351 15.856C431.471 16.7653 430.224 17.22 428.611 17.22ZM428.611 15.526C429.535 15.526 430.261 15.2327 430.789 14.646C431.332 14.0593 431.625 13.216 431.669 12.116C431.684 11.9693 431.691 11.6907 431.691 11.28C431.691 10.8693 431.684 10.5907 431.669 10.444C431.625 9.344 431.332 8.50067 430.789 7.914C430.261 7.32733 429.535 7.034 428.611 7.034C427.687 7.034 426.954 7.32733 426.411 7.914C425.868 8.50067 425.582 9.344 425.553 10.444L425.531 11.28L425.553 12.116C425.582 13.216 425.868 14.0593 426.411 14.646C426.954 15.2327 427.687 15.526 428.611 15.526ZM438.079 17C437.932 17 437.807 16.956 437.705 16.868C437.617 16.7653 437.573 16.6407 437.573 16.494V7.32H435.703C435.556 7.32 435.431 7.276 435.329 7.188C435.241 7.08533 435.197 6.96067 435.197 6.814V6.066C435.197 5.91933 435.241 5.802 435.329 5.714C435.431 5.61133 435.556 5.56 435.703 5.56H437.573V4.46C437.573 1.96667 438.834 0.72 441.357 0.72H442.677C442.823 0.72 442.941 0.771333 443.029 0.873999C443.131 0.961999 443.183 1.07933 443.183 1.226V1.974C443.183 2.12067 443.131 2.24533 443.029 2.348C442.941 2.436 442.823 2.48 442.677 2.48H441.401C440.741 2.48 440.279 2.656 440.015 3.008C439.751 3.34533 439.619 3.866 439.619 4.57V5.56H442.457C442.603 5.56 442.721 5.61133 442.809 5.714C442.911 5.802 442.963 5.91933 442.963 6.066V6.814C442.963 6.96067 442.911 7.08533 442.809 7.188C442.721 7.276 442.603 7.32 442.457 7.32H439.619V16.494C439.619 16.6407 439.567 16.7653 439.465 16.868C439.377 16.956 439.259 17 439.113 17H438.079ZM453.391 17C453.245 17 453.12 16.956 453.017 16.868C452.929 16.7653 452.885 16.6407 452.885 16.494V3.558H448.661C448.515 3.558 448.39 3.514 448.287 3.426C448.199 3.32333 448.155 3.19867 448.155 3.052V2.128C448.155 1.98133 448.199 1.85667 448.287 1.754C448.39 1.65133 448.515 1.6 448.661 1.6H459.265C459.427 1.6 459.551 1.65133 459.639 1.754C459.742 1.842 459.793 1.96667 459.793 2.128V3.052C459.793 3.19867 459.742 3.32333 459.639 3.426C459.537 3.514 459.412 3.558 459.265 3.558H455.063V16.494C455.063 16.6407 455.012 16.7653 454.909 16.868C454.807 16.956 454.682 17 454.535 17H453.391ZM462.766 17C462.619 17 462.494 16.956 462.392 16.868C462.304 16.7653 462.26 16.6407 462.26 16.494V2.128C462.26 1.96667 462.304 1.842 462.392 1.754C462.494 1.65133 462.619 1.6 462.766 1.6H468.134C469.82 1.6 471.14 1.996 472.094 2.788C473.047 3.58 473.524 4.724 473.524 6.22C473.524 7.33467 473.245 8.25133 472.688 8.97C472.145 9.68867 471.375 10.1873 470.378 10.466L473.766 16.318C473.81 16.406 473.832 16.4867 473.832 16.56C473.832 16.6773 473.78 16.78 473.678 16.868C473.59 16.956 473.487 17 473.37 17H472.314C472.094 17 471.918 16.9487 471.786 16.846C471.668 16.7433 471.558 16.5967 471.456 16.406L468.266 10.818H464.416V16.494C464.416 16.6407 464.364 16.7653 464.262 16.868C464.159 16.956 464.034 17 463.888 17H462.766ZM468.046 8.948C470.231 8.948 471.324 8.03133 471.324 6.198C471.324 4.36467 470.231 3.448 468.046 3.448H464.416V8.948H468.046ZM475.642 17C475.524 17 475.422 16.956 475.334 16.868C475.246 16.78 475.202 16.6773 475.202 16.56C475.202 16.4427 475.209 16.362 475.224 16.318L480.68 2.084C480.797 1.76133 481.032 1.6 481.384 1.6H482.88C483.232 1.6 483.466 1.76133 483.584 2.084L489.018 16.318L489.062 16.56C489.062 16.6773 489.018 16.78 488.93 16.868C488.842 16.956 488.739 17 488.622 17H487.5C487.338 17 487.214 16.9633 487.126 16.89C487.038 16.802 486.979 16.714 486.95 16.626L485.74 13.502H478.524L477.314 16.626C477.284 16.714 477.218 16.802 477.116 16.89C477.028 16.9633 476.91 17 476.764 17H475.642ZM485.102 11.61L482.132 3.8L479.162 11.61H485.102ZM491.92 17C491.773 17 491.649 16.956 491.546 16.868C491.458 16.7653 491.414 16.6407 491.414 16.494V2.128C491.414 1.96667 491.458 1.842 491.546 1.754C491.649 1.65133 491.773 1.6 491.92 1.6H496.914C499.129 1.6 500.727 2.09867 501.71 3.096C502.693 4.07867 503.206 5.56733 503.25 7.562C503.265 7.98733 503.272 8.55933 503.272 9.278C503.272 9.99667 503.265 10.576 503.25 11.016C503.206 12.4093 502.971 13.546 502.546 14.426C502.135 15.2913 501.483 15.9367 500.588 16.362C499.693 16.7873 498.505 17 497.024 17H491.92ZM496.914 15.13C497.926 15.13 498.725 14.9907 499.312 14.712C499.913 14.4333 500.346 13.9933 500.61 13.392C500.889 12.776 501.043 11.9547 501.072 10.928C501.101 10.048 501.116 9.498 501.116 9.278C501.116 9.04333 501.101 8.50067 501.072 7.65C501.043 6.198 500.698 5.142 500.038 4.482C499.378 3.80733 498.3 3.47 496.804 3.47H493.57V15.13H496.914ZM505.29 17C505.173 17 505.07 16.956 504.982 16.868C504.894 16.78 504.85 16.6773 504.85 16.56C504.85 16.4427 504.857 16.362 504.872 16.318L510.328 2.084C510.445 1.76133 510.68 1.6 511.032 1.6H512.528C512.88 1.6 513.115 1.76133 513.232 2.084L518.666 16.318L518.71 16.56C518.71 16.6773 518.666 16.78 518.578 16.868C518.49 16.956 518.387 17 518.27 17H517.148C516.987 17 516.862 16.9633 516.774 16.89C516.686 16.802 516.627 16.714 516.598 16.626L515.388 13.502H508.172L506.962 16.626C506.933 16.714 506.867 16.802 506.764 16.89C506.676 16.9633 506.559 17 506.412 17H505.29ZM514.75 11.61L511.78 3.8L508.81 11.61H514.75ZM521.128 17C520.982 17 520.857 16.956 520.754 16.868C520.666 16.7653 520.622 16.6407 520.622 16.494V14.91C520.622 14.7633 520.666 14.646 520.754 14.558C520.857 14.4553 520.982 14.404 521.128 14.404H522.712C522.859 14.404 522.984 14.4553 523.086 14.558C523.189 14.646 523.24 14.7633 523.24 14.91V16.494C523.24 16.6407 523.189 16.7653 523.086 16.868C522.984 16.956 522.859 17 522.712 17H521.128ZM6.534 43C6.38733 43 6.26267 42.956 6.16 42.868C6.072 42.7653 6.028 42.6407 6.028 42.494V37.302L0.726 28.326C0.726 28.2967 0.718667 28.2527 0.704 28.194C0.674667 28.1353 0.66 28.084 0.66 28.04C0.66 27.9227 0.704 27.82 0.792 27.732C0.88 27.644 0.982667 27.6 1.1 27.6H2.244C2.49333 27.6 2.684 27.7247 2.816 27.974L7.106 35.102L11.396 27.974C11.5573 27.7247 11.7553 27.6 11.99 27.6H13.112C13.244 27.6 13.354 27.644 13.442 27.732C13.53 27.82 13.574 27.9227 13.574 28.04C13.574 28.1133 13.5447 28.2087 13.486 28.326L8.206 37.302V42.494C8.206 42.6407 8.15467 42.7653 8.052 42.868C7.94933 42.956 7.82467 43 7.678 43H6.534ZM18.7105 43.22C17.0972 43.22 15.8432 42.7653 14.9485 41.856C14.0685 40.9467 13.5992 39.7367 13.5405 38.226L13.5185 37.28L13.5405 36.334C13.5992 34.838 14.0758 33.6353 14.9705 32.726C15.8652 31.802 17.1118 31.34 18.7105 31.34C20.3092 31.34 21.5558 31.802 22.4505 32.726C23.3452 33.6353 23.8218 34.838 23.8805 36.334C23.8952 36.4953 23.9025 36.8107 23.9025 37.28C23.9025 37.7493 23.8952 38.0647 23.8805 38.226C23.8218 39.7367 23.3452 40.9467 22.4505 41.856C21.5705 42.7653 20.3238 43.22 18.7105 43.22ZM18.7105 41.526C19.6345 41.526 20.3605 41.2327 20.8885 40.646C21.4312 40.0593 21.7245 39.216 21.7685 38.116C21.7832 37.9693 21.7905 37.6907 21.7905 37.28C21.7905 36.8693 21.7832 36.5907 21.7685 36.444C21.7245 35.344 21.4312 34.5007 20.8885 33.914C20.3605 33.3273 19.6345 33.034 18.7105 33.034C17.7865 33.034 17.0532 33.3273 16.5105 33.914C15.9678 34.5007 15.6818 35.344 15.6525 36.444L15.6305 37.28L15.6525 38.116C15.6818 39.216 15.9678 40.0593 16.5105 40.646C17.0532 41.2327 17.7865 41.526 18.7105 41.526ZM30.9253 43.22C29.532 43.22 28.454 42.7727 27.6913 41.878C26.9286 40.9687 26.5473 39.766 26.5473 38.27V32.066C26.5473 31.9193 26.5913 31.802 26.6793 31.714C26.782 31.6113 26.9066 31.56 27.0533 31.56H28.1533C28.3 31.56 28.4173 31.6113 28.5053 31.714C28.608 31.802 28.6593 31.9193 28.6593 32.066V38.16C28.6593 40.3453 29.6126 41.438 31.5193 41.438C32.4433 41.438 33.1766 41.152 33.7193 40.58C34.262 39.9933 34.5333 39.1867 34.5333 38.16V32.066C34.5333 31.9193 34.5773 31.802 34.6653 31.714C34.768 31.6113 34.8926 31.56 35.0393 31.56H36.1393C36.286 31.56 36.4033 31.6113 36.4913 31.714C36.5793 31.802 36.6233 31.9193 36.6233 32.066V42.494C36.6233 42.6407 36.5793 42.7653 36.4913 42.868C36.4033 42.956 36.286 43 36.1393 43H35.1053C34.9586 43 34.834 42.956 34.7313 42.868C34.6433 42.7653 34.5993 42.6407 34.5993 42.494V41.526C34.1886 42.0833 33.69 42.5087 33.1033 42.802C32.5166 43.0807 31.7906 43.22 30.9253 43.22ZM49.9043 43.22C48.3349 43.22 47.1029 42.78 46.2083 41.9C45.3283 41.0053 44.8589 39.7587 44.8003 38.16L44.7783 37.28L44.8003 36.4C44.8589 34.8013 45.3283 33.562 46.2083 32.682C47.1029 31.7873 48.3349 31.34 49.9043 31.34C50.9603 31.34 51.8549 31.5307 52.5883 31.912C53.3216 32.2933 53.8643 32.7627 54.2163 33.32C54.5829 33.8773 54.7809 34.4347 54.8103 34.992C54.8249 35.1387 54.7809 35.256 54.6783 35.344C54.5756 35.432 54.4509 35.476 54.3043 35.476H53.2483C53.1016 35.476 52.9916 35.4467 52.9183 35.388C52.8449 35.3293 52.7716 35.212 52.6983 35.036C52.4489 34.332 52.0969 33.8333 51.6423 33.54C51.1876 33.232 50.6156 33.078 49.9263 33.078C49.0169 33.078 48.2909 33.364 47.7483 33.936C47.2203 34.4933 46.9343 35.3513 46.8902 36.51L46.8683 37.302L46.8902 38.05C46.9343 39.2233 47.2203 40.0887 47.7483 40.646C48.2763 41.2033 49.0023 41.482 49.9263 41.482C50.6156 41.482 51.1876 41.3353 51.6423 41.042C52.0969 40.734 52.4489 40.228 52.6983 39.524C52.7716 39.348 52.8449 39.2307 52.9183 39.172C52.9916 39.0987 53.1016 39.062 53.2483 39.062H54.3043C54.4509 39.062 54.5756 39.1133 54.6783 39.216C54.7809 39.304 54.8249 39.4213 54.8103 39.568C54.7809 40.1107 54.5829 40.668 54.2163 41.24C53.8643 41.7973 53.3216 42.2667 52.5883 42.648C51.8696 43.0293 50.9749 43.22 49.9043 43.22ZM60.6129 43.22C59.8943 43.22 59.2269 43.0733 58.6109 42.78C57.9949 42.4867 57.5036 42.0907 57.1369 41.592C56.7849 41.0787 56.6089 40.514 56.6089 39.898C56.6089 38.93 57.0049 38.138 57.7969 37.522C58.6036 36.8913 59.6889 36.4807 61.0529 36.29L64.3309 35.828V35.19C64.3309 33.694 63.4729 32.946 61.7569 32.946C61.1116 32.946 60.5836 33.0853 60.1729 33.364C59.7623 33.628 59.4543 33.9433 59.2489 34.31C59.2049 34.442 59.1463 34.5373 59.0729 34.596C59.0143 34.6547 58.9263 34.684 58.8089 34.684H57.8629C57.7309 34.684 57.6136 34.64 57.5109 34.552C57.4229 34.4493 57.3789 34.332 57.3789 34.2C57.3936 33.848 57.5549 33.452 57.8629 33.012C58.1856 32.5573 58.6769 32.1687 59.3369 31.846C59.9969 31.5087 60.8109 31.34 61.7789 31.34C63.4216 31.34 64.6023 31.7287 65.3209 32.506C66.0396 33.2687 66.3989 34.222 66.3989 35.366V42.494C66.3989 42.6407 66.3476 42.7653 66.2449 42.868C66.1569 42.956 66.0396 43 65.8929 43H64.8809C64.7343 43 64.6096 42.956 64.5069 42.868C64.4189 42.7653 64.3749 42.6407 64.3749 42.494V41.548C64.0523 42.0173 63.5829 42.4133 62.9669 42.736C62.3509 43.0587 61.5663 43.22 60.6129 43.22ZM61.0749 41.57C62.0283 41.57 62.8056 41.262 63.4069 40.646C64.0229 40.0153 64.3309 39.1133 64.3309 37.94V37.324L61.7789 37.698C60.7376 37.8447 59.9529 38.094 59.4249 38.446C58.8969 38.7833 58.6329 39.216 58.6329 39.744C58.6329 40.3307 58.8749 40.7853 59.3589 41.108C59.8429 41.416 60.4149 41.57 61.0749 41.57ZM70.0676 43C69.9209 43 69.7963 42.956 69.6936 42.868C69.6056 42.7653 69.5616 42.6407 69.5616 42.494V32.066C69.5616 31.9193 69.6056 31.802 69.6936 31.714C69.7963 31.6113 69.9209 31.56 70.0676 31.56H71.1016C71.2483 31.56 71.3656 31.6113 71.4536 31.714C71.5563 31.802 71.6076 31.9193 71.6076 32.066V33.034C72.0329 32.4913 72.5316 32.0733 73.1036 31.78C73.6903 31.4867 74.4163 31.34 75.2816 31.34C76.6896 31.34 77.7823 31.7947 78.5596 32.704C79.3516 33.5987 79.7476 34.794 79.7476 36.29V42.494C79.7476 42.6407 79.6963 42.7653 79.5936 42.868C79.5056 42.956 79.3883 43 79.2416 43H78.1416C77.9949 43 77.8703 42.956 77.7676 42.868C77.6796 42.7653 77.6356 42.6407 77.6356 42.494V36.4C77.6356 35.3587 77.3789 34.552 76.8656 33.98C76.3669 33.408 75.6409 33.122 74.6876 33.122C73.7636 33.122 73.0303 33.4153 72.4876 34.002C71.9449 34.574 71.6736 35.3733 71.6736 36.4V42.494C71.6736 42.6407 71.6223 42.7653 71.5196 42.868C71.4316 42.956 71.3143 43 71.1676 43H70.0676ZM92.564 43.22C91.1706 43.22 90.0926 42.7727 89.33 41.878C88.5673 40.9687 88.186 39.766 88.186 38.27V32.066C88.186 31.9193 88.23 31.802 88.318 31.714C88.4206 31.6113 88.5453 31.56 88.692 31.56H89.792C89.9386 31.56 90.056 31.6113 90.144 31.714C90.2466 31.802 90.298 31.9193 90.298 32.066V38.16C90.298 40.3453 91.2513 41.438 93.158 41.438C94.082 41.438 94.8153 41.152 95.358 40.58C95.9006 39.9933 96.172 39.1867 96.172 38.16V32.066C96.172 31.9193 96.216 31.802 96.304 31.714C96.4066 31.6113 96.5313 31.56 96.678 31.56H97.778C97.9246 31.56 98.042 31.6113 98.13 31.714C98.218 31.802 98.262 31.9193 98.262 32.066V42.494C98.262 42.6407 98.218 42.7653 98.13 42.868C98.042 42.956 97.9246 43 97.778 43H96.744C96.5973 43 96.4726 42.956 96.37 42.868C96.282 42.7653 96.238 42.6407 96.238 42.494V41.526C95.8273 42.0833 95.3286 42.5087 94.742 42.802C94.1553 43.0807 93.4293 43.22 92.564 43.22ZM105.49 43.22C104.464 43.22 103.598 43.0587 102.894 42.736C102.205 42.3987 101.684 42.0173 101.332 41.592C100.995 41.1667 100.826 40.8147 100.826 40.536C100.826 40.3893 100.878 40.2793 100.98 40.206C101.098 40.118 101.215 40.074 101.332 40.074H102.322C102.469 40.074 102.601 40.1473 102.718 40.294C103.07 40.7047 103.452 41.0273 103.862 41.262C104.273 41.4967 104.823 41.614 105.512 41.614C106.275 41.614 106.891 41.4673 107.36 41.174C107.844 40.866 108.086 40.448 108.086 39.92C108.086 39.568 107.984 39.282 107.778 39.062C107.588 38.8273 107.25 38.6293 106.766 38.468C106.297 38.292 105.593 38.1013 104.654 37.896C103.378 37.6173 102.469 37.214 101.926 36.686C101.398 36.158 101.134 35.476 101.134 34.64C101.134 34.0827 101.296 33.5547 101.618 33.056C101.956 32.5427 102.44 32.132 103.07 31.824C103.716 31.5013 104.486 31.34 105.38 31.34C106.319 31.34 107.118 31.494 107.778 31.802C108.438 32.11 108.93 32.4767 109.252 32.902C109.59 33.3127 109.758 33.6573 109.758 33.936C109.758 34.068 109.707 34.178 109.604 34.266C109.516 34.354 109.406 34.398 109.274 34.398H108.35C108.174 34.398 108.028 34.3247 107.91 34.178C107.676 33.8993 107.47 33.6867 107.294 33.54C107.133 33.3787 106.891 33.2393 106.568 33.122C106.26 33.0047 105.864 32.946 105.38 32.946C104.676 32.946 104.134 33.1 103.752 33.408C103.371 33.7013 103.18 34.09 103.18 34.574C103.18 34.882 103.261 35.146 103.422 35.366C103.584 35.5713 103.892 35.762 104.346 35.938C104.816 36.114 105.49 36.2973 106.37 36.488C107.764 36.7813 108.746 37.2067 109.318 37.764C109.905 38.3067 110.198 39.0033 110.198 39.854C110.198 40.4847 110.015 41.0567 109.648 41.57C109.282 42.0833 108.739 42.4867 108.02 42.78C107.316 43.0733 106.473 43.22 105.49 43.22ZM117.321 43.22C115.811 43.22 114.601 42.758 113.691 41.834C112.797 40.8953 112.305 39.6193 112.217 38.006L112.195 37.258L112.217 36.532C112.32 34.948 112.819 33.6867 113.713 32.748C114.623 31.8093 115.818 31.34 117.299 31.34C118.927 31.34 120.189 31.8607 121.083 32.902C121.978 33.9287 122.425 35.322 122.425 37.082V37.456C122.425 37.6027 122.374 37.7273 122.271 37.83C122.183 37.918 122.066 37.962 121.919 37.962H114.307V38.16C114.351 39.1133 114.637 39.9273 115.165 40.602C115.708 41.262 116.419 41.592 117.299 41.592C117.974 41.592 118.524 41.46 118.949 41.196C119.389 40.9173 119.712 40.6313 119.917 40.338C120.049 40.162 120.145 40.0593 120.203 40.03C120.277 39.986 120.401 39.964 120.577 39.964H121.655C121.787 39.964 121.897 40.0007 121.985 40.074C122.073 40.1473 122.117 40.25 122.117 40.382C122.117 40.7047 121.912 41.0933 121.501 41.548C121.105 42.0027 120.541 42.3987 119.807 42.736C119.089 43.0587 118.26 43.22 117.321 43.22ZM120.335 36.444V36.378C120.335 35.366 120.057 34.5447 119.499 33.914C118.957 33.2687 118.223 32.946 117.299 32.946C116.375 32.946 115.642 33.2687 115.099 33.914C114.571 34.5447 114.307 35.366 114.307 36.378V36.444H120.335ZM130.778 29.426C130.632 29.426 130.507 29.382 130.404 29.294C130.316 29.1913 130.272 29.0667 130.272 28.92V27.732C130.272 27.5853 130.316 27.4607 130.404 27.358C130.507 27.2553 130.632 27.204 130.778 27.204H132.164C132.311 27.204 132.436 27.2553 132.538 27.358C132.641 27.4607 132.692 27.5853 132.692 27.732V28.92C132.692 29.0667 132.641 29.1913 132.538 29.294C132.436 29.382 132.311 29.426 132.164 29.426H130.778ZM130.954 43C130.808 43 130.683 42.956 130.58 42.868C130.492 42.7653 130.448 42.6407 130.448 42.494V32.066C130.448 31.9193 130.492 31.802 130.58 31.714C130.683 31.6113 130.808 31.56 130.954 31.56H132.01C132.157 31.56 132.274 31.6113 132.362 31.714C132.465 31.802 132.516 31.9193 132.516 32.066V42.494C132.516 42.6407 132.465 42.7653 132.362 42.868C132.274 42.956 132.157 43 132.01 43H130.954ZM140.242 43C137.925 43 136.766 41.7093 136.766 39.128V33.32H135.05C134.904 33.32 134.779 33.276 134.676 33.188C134.588 33.0853 134.544 32.9607 134.544 32.814V32.066C134.544 31.9193 134.588 31.802 134.676 31.714C134.779 31.6113 134.904 31.56 135.05 31.56H136.766V27.886C136.766 27.7393 136.81 27.622 136.898 27.534C137.001 27.4313 137.126 27.38 137.272 27.38H138.306C138.453 27.38 138.57 27.4313 138.658 27.534C138.761 27.622 138.812 27.7393 138.812 27.886V31.56H141.54C141.687 31.56 141.804 31.6113 141.892 31.714C141.995 31.802 142.046 31.9193 142.046 32.066V32.814C142.046 32.9607 141.995 33.0853 141.892 33.188C141.804 33.276 141.687 33.32 141.54 33.32H138.812V38.974C138.812 39.7073 138.937 40.2647 139.186 40.646C139.436 41.0127 139.846 41.196 140.418 41.196H141.76C141.907 41.196 142.024 41.2473 142.112 41.35C142.215 41.438 142.266 41.5553 142.266 41.702V42.494C142.266 42.6407 142.215 42.7653 142.112 42.868C142.024 42.956 141.907 43 141.76 43H140.242ZM151.005 43C150.858 43 150.733 42.956 150.631 42.868C150.543 42.7653 150.499 42.6407 150.499 42.494V33.32H148.629C148.482 33.32 148.357 33.276 148.255 33.188C148.167 33.0853 148.123 32.9607 148.123 32.814V32.066C148.123 31.9193 148.167 31.802 148.255 31.714C148.357 31.6113 148.482 31.56 148.629 31.56H150.499V30.46C150.499 27.9667 151.76 26.72 154.283 26.72H155.603C155.749 26.72 155.867 26.7713 155.955 26.874C156.057 26.962 156.109 27.0793 156.109 27.226V27.974C156.109 28.1207 156.057 28.2453 155.955 28.348C155.867 28.436 155.749 28.48 155.603 28.48H154.327C153.667 28.48 153.205 28.656 152.941 29.008C152.677 29.3453 152.545 29.866 152.545 30.57V31.56H155.383C155.529 31.56 155.647 31.6113 155.735 31.714C155.837 31.802 155.889 31.9193 155.889 32.066V32.814C155.889 32.9607 155.837 33.0853 155.735 33.188C155.647 33.276 155.529 33.32 155.383 33.32H152.545V42.494C152.545 42.6407 152.493 42.7653 152.391 42.868C152.303 42.956 152.185 43 152.039 43H151.005ZM162.291 43.22C160.677 43.22 159.423 42.7653 158.529 41.856C157.649 40.9467 157.179 39.7367 157.121 38.226L157.099 37.28L157.121 36.334C157.179 34.838 157.656 33.6353 158.551 32.726C159.445 31.802 160.692 31.34 162.291 31.34C163.889 31.34 165.136 31.802 166.031 32.726C166.925 33.6353 167.402 34.838 167.461 36.334C167.475 36.4953 167.483 36.8107 167.483 37.28C167.483 37.7493 167.475 38.0647 167.461 38.226C167.402 39.7367 166.925 40.9467 166.031 41.856C165.151 42.7653 163.904 43.22 162.291 43.22ZM162.291 41.526C163.215 41.526 163.941 41.2327 164.469 40.646C165.011 40.0593 165.305 39.216 165.349 38.116C165.363 37.9693 165.371 37.6907 165.371 37.28C165.371 36.8693 165.363 36.5907 165.349 36.444C165.305 35.344 165.011 34.5007 164.469 33.914C163.941 33.3273 163.215 33.034 162.291 33.034C161.367 33.034 160.633 33.3273 160.091 33.914C159.548 34.5007 159.262 35.344 159.233 36.444L159.211 37.28L159.233 38.116C159.262 39.216 159.548 40.0593 160.091 40.646C160.633 41.2327 161.367 41.526 162.291 41.526ZM170.743 43C170.597 43 170.472 42.956 170.369 42.868C170.281 42.7653 170.237 42.6407 170.237 42.494V32.088C170.237 31.9413 170.281 31.8167 170.369 31.714C170.472 31.6113 170.597 31.56 170.743 31.56H171.755C171.902 31.56 172.027 31.6113 172.129 31.714C172.232 31.8167 172.283 31.9413 172.283 32.088V33.056C172.885 32.0587 173.911 31.56 175.363 31.56H176.221C176.368 31.56 176.485 31.6113 176.573 31.714C176.676 31.802 176.727 31.9193 176.727 32.066V32.968C176.727 33.1147 176.676 33.232 176.573 33.32C176.485 33.408 176.368 33.452 176.221 33.452H174.901C174.109 33.452 173.486 33.6867 173.031 34.156C172.577 34.6107 172.349 35.234 172.349 36.026V42.494C172.349 42.6407 172.298 42.7653 172.195 42.868C172.093 42.956 171.968 43 171.821 43H170.743ZM184 47.18C183.853 47.18 183.728 47.1287 183.626 47.026C183.538 46.938 183.494 46.8207 183.494 46.674V32.066C183.494 31.9193 183.538 31.802 183.626 31.714C183.728 31.6113 183.853 31.56 184 31.56H185.012C185.158 31.56 185.276 31.6113 185.364 31.714C185.466 31.802 185.518 31.9193 185.518 32.066V33.034C186.339 31.9047 187.542 31.34 189.126 31.34C190.666 31.34 191.817 31.824 192.58 32.792C193.357 33.76 193.775 35.0067 193.834 36.532C193.848 36.6933 193.856 36.9427 193.856 37.28C193.856 37.6173 193.848 37.8667 193.834 38.028C193.775 39.5387 193.357 40.7853 192.58 41.768C191.802 42.736 190.651 43.22 189.126 43.22C187.6 43.22 186.412 42.67 185.562 41.57V46.674C185.562 46.8207 185.518 46.938 185.43 47.026C185.342 47.1287 185.224 47.18 185.078 47.18H184ZM188.664 41.438C189.705 41.438 190.46 41.1153 190.93 40.47C191.414 39.8247 191.678 38.974 191.722 37.918C191.736 37.7713 191.744 37.5587 191.744 37.28C191.744 34.508 190.717 33.122 188.664 33.122C187.652 33.122 186.889 33.4593 186.376 34.134C185.877 34.794 185.606 35.586 185.562 36.51L185.54 37.346L185.562 38.204C185.591 39.0693 185.87 39.8247 186.398 40.47C186.926 41.1153 187.681 41.438 188.664 41.438ZM199.767 43.22C199.049 43.22 198.381 43.0733 197.765 42.78C197.149 42.4867 196.658 42.0907 196.291 41.592C195.939 41.0787 195.763 40.514 195.763 39.898C195.763 38.93 196.159 38.138 196.951 37.522C197.758 36.8913 198.843 36.4807 200.207 36.29L203.485 35.828V35.19C203.485 33.694 202.627 32.946 200.911 32.946C200.266 32.946 199.738 33.0853 199.327 33.364C198.917 33.628 198.609 33.9433 198.403 34.31C198.359 34.442 198.301 34.5373 198.227 34.596C198.169 34.6547 198.081 34.684 197.963 34.684H197.017C196.885 34.684 196.768 34.64 196.665 34.552C196.577 34.4493 196.533 34.332 196.533 34.2C196.548 33.848 196.709 33.452 197.017 33.012C197.34 32.5573 197.831 32.1687 198.491 31.846C199.151 31.5087 199.965 31.34 200.933 31.34C202.576 31.34 203.757 31.7287 204.475 32.506C205.194 33.2687 205.553 34.222 205.553 35.366V42.494C205.553 42.6407 205.502 42.7653 205.399 42.868C205.311 42.956 205.194 43 205.047 43H204.035C203.889 43 203.764 42.956 203.661 42.868C203.573 42.7653 203.529 42.6407 203.529 42.494V41.548C203.207 42.0173 202.737 42.4133 202.121 42.736C201.505 43.0587 200.721 43.22 199.767 43.22ZM200.229 41.57C201.183 41.57 201.96 41.262 202.561 40.646C203.177 40.0153 203.485 39.1133 203.485 37.94V37.324L200.933 37.698C199.892 37.8447 199.107 38.094 198.579 38.446C198.051 38.7833 197.787 39.216 197.787 39.744C197.787 40.3307 198.029 40.7853 198.513 41.108C198.997 41.416 199.569 41.57 200.229 41.57ZM210.482 47.18C210.364 47.18 210.262 47.136 210.174 47.048C210.086 46.96 210.042 46.8573 210.042 46.74C210.042 46.6373 210.078 46.5053 210.152 46.344L211.846 42.318L207.644 32.396C207.57 32.2053 207.534 32.0807 207.534 32.022C207.534 31.89 207.578 31.78 207.666 31.692C207.754 31.604 207.864 31.56 207.996 31.56H209.074C209.308 31.56 209.484 31.6847 209.602 31.934L212.946 39.942L216.378 31.934C216.495 31.6847 216.678 31.56 216.928 31.56H217.962C218.094 31.56 218.204 31.604 218.292 31.692C218.38 31.78 218.424 31.8827 218.424 32C218.424 32.044 218.387 32.176 218.314 32.396L212.066 46.806C211.948 47.0553 211.765 47.18 211.516 47.18H210.482ZM221.124 43C220.978 43 220.853 42.956 220.75 42.868C220.662 42.7653 220.618 42.6407 220.618 42.494V32.066C220.618 31.9193 220.662 31.802 220.75 31.714C220.853 31.6113 220.978 31.56 221.124 31.56H222.114C222.261 31.56 222.378 31.6113 222.466 31.714C222.569 31.802 222.62 31.9193 222.62 32.066V32.836C223.383 31.8387 224.446 31.34 225.81 31.34C227.438 31.34 228.59 32.0147 229.264 33.364C229.616 32.748 230.115 32.2567 230.76 31.89C231.406 31.5233 232.132 31.34 232.938 31.34C234.141 31.34 235.124 31.7507 235.886 32.572C236.649 33.3933 237.03 34.5813 237.03 36.136V42.494C237.03 42.6407 236.979 42.7653 236.876 42.868C236.788 42.956 236.671 43 236.524 43H235.49C235.344 43 235.219 42.956 235.116 42.868C235.028 42.7653 234.984 42.6407 234.984 42.494V36.334C234.984 35.19 234.742 34.3687 234.258 33.87C233.789 33.3713 233.166 33.122 232.388 33.122C231.699 33.122 231.105 33.3787 230.606 33.892C230.108 34.3907 229.858 35.2047 229.858 36.334V42.494C229.858 42.6407 229.807 42.7653 229.704 42.868C229.616 42.956 229.499 43 229.352 43H228.318C228.172 43 228.047 42.956 227.944 42.868C227.856 42.7653 227.812 42.6407 227.812 42.494V36.334C227.812 35.19 227.563 34.3687 227.064 33.87C226.58 33.3713 225.964 33.122 225.216 33.122C224.527 33.122 223.933 33.3787 223.434 33.892C222.936 34.3907 222.686 35.1973 222.686 36.312V42.494C222.686 42.6407 222.635 42.7653 222.532 42.868C222.444 42.956 222.327 43 222.18 43H221.124ZM244.745 43.22C243.234 43.22 242.024 42.758 241.115 41.834C240.22 40.8953 239.729 39.6193 239.641 38.006L239.619 37.258L239.641 36.532C239.744 34.948 240.242 33.6867 241.137 32.748C242.046 31.8093 243.242 31.34 244.723 31.34C246.351 31.34 247.612 31.8607 248.507 32.902C249.402 33.9287 249.849 35.322 249.849 37.082V37.456C249.849 37.6027 249.798 37.7273 249.695 37.83C249.607 37.918 249.49 37.962 249.343 37.962H241.731V38.16C241.775 39.1133 242.061 39.9273 242.589 40.602C243.132 41.262 243.843 41.592 244.723 41.592C245.398 41.592 245.948 41.46 246.373 41.196C246.813 40.9173 247.136 40.6313 247.341 40.338C247.473 40.162 247.568 40.0593 247.627 40.03C247.7 39.986 247.825 39.964 248.001 39.964H249.079C249.211 39.964 249.321 40.0007 249.409 40.074C249.497 40.1473 249.541 40.25 249.541 40.382C249.541 40.7047 249.336 41.0933 248.925 41.548C248.529 42.0027 247.964 42.3987 247.231 42.736C246.512 43.0587 245.684 43.22 244.745 43.22ZM247.759 36.444V36.378C247.759 35.366 247.48 34.5447 246.923 33.914C246.38 33.2687 245.647 32.946 244.723 32.946C243.799 32.946 243.066 33.2687 242.523 33.914C241.995 34.5447 241.731 35.366 241.731 36.378V36.444H247.759ZM252.986 43C252.839 43 252.714 42.956 252.612 42.868C252.524 42.7653 252.48 42.6407 252.48 42.494V32.066C252.48 31.9193 252.524 31.802 252.612 31.714C252.714 31.6113 252.839 31.56 252.986 31.56H254.02C254.166 31.56 254.284 31.6113 254.372 31.714C254.474 31.802 254.526 31.9193 254.526 32.066V33.034C254.951 32.4913 255.45 32.0733 256.022 31.78C256.608 31.4867 257.334 31.34 258.2 31.34C259.608 31.34 260.7 31.7947 261.478 32.704C262.27 33.5987 262.666 34.794 262.666 36.29V42.494C262.666 42.6407 262.614 42.7653 262.512 42.868C262.424 42.956 262.306 43 262.16 43H261.06C260.913 43 260.788 42.956 260.686 42.868C260.598 42.7653 260.554 42.6407 260.554 42.494V36.4C260.554 35.3587 260.297 34.552 259.784 33.98C259.285 33.408 258.559 33.122 257.606 33.122C256.682 33.122 255.948 33.4153 255.406 34.002C254.863 34.574 254.592 35.3733 254.592 36.4V42.494C254.592 42.6407 254.54 42.7653 254.438 42.868C254.35 42.956 254.232 43 254.086 43H252.986ZM270.137 43C267.82 43 266.661 41.7093 266.661 39.128V33.32H264.945C264.798 33.32 264.674 33.276 264.571 33.188C264.483 33.0853 264.439 32.9607 264.439 32.814V32.066C264.439 31.9193 264.483 31.802 264.571 31.714C264.674 31.6113 264.798 31.56 264.945 31.56H266.661V27.886C266.661 27.7393 266.705 27.622 266.793 27.534C266.896 27.4313 267.02 27.38 267.167 27.38H268.201C268.348 27.38 268.465 27.4313 268.553 27.534C268.656 27.622 268.707 27.7393 268.707 27.886V31.56H271.435C271.582 31.56 271.699 31.6113 271.787 31.714C271.89 31.802 271.941 31.9193 271.941 32.066V32.814C271.941 32.9607 271.89 33.0853 271.787 33.188C271.699 33.276 271.582 33.32 271.435 33.32H268.707V38.974C268.707 39.7073 268.832 40.2647 269.081 40.646C269.33 41.0127 269.741 41.196 270.313 41.196H271.655C271.802 41.196 271.919 41.2473 272.007 41.35C272.11 41.438 272.161 41.5553 272.161 41.702V42.494C272.161 42.6407 272.11 42.7653 272.007 42.868C271.919 42.956 271.802 43 271.655 43H270.137ZM278.225 43.22C277.198 43.22 276.333 43.0587 275.629 42.736C274.939 42.3987 274.419 42.0173 274.067 41.592C273.729 41.1667 273.561 40.8147 273.561 40.536C273.561 40.3893 273.612 40.2793 273.715 40.206C273.832 40.118 273.949 40.074 274.067 40.074H275.057C275.203 40.074 275.335 40.1473 275.453 40.294C275.805 40.7047 276.186 41.0273 276.597 41.262C277.007 41.4967 277.557 41.614 278.247 41.614C279.009 41.614 279.625 41.4673 280.095 41.174C280.579 40.866 280.821 40.448 280.821 39.92C280.821 39.568 280.718 39.282 280.513 39.062C280.322 38.8273 279.985 38.6293 279.501 38.468C279.031 38.292 278.327 38.1013 277.389 37.896C276.113 37.6173 275.203 37.214 274.661 36.686C274.133 36.158 273.869 35.476 273.869 34.64C273.869 34.0827 274.03 33.5547 274.353 33.056C274.69 32.5427 275.174 32.132 275.805 31.824C276.45 31.5013 277.22 31.34 278.115 31.34C279.053 31.34 279.853 31.494 280.513 31.802C281.173 32.11 281.664 32.4767 281.987 32.902C282.324 33.3127 282.493 33.6573 282.493 33.936C282.493 34.068 282.441 34.178 282.339 34.266C282.251 34.354 282.141 34.398 282.009 34.398H281.085C280.909 34.398 280.762 34.3247 280.645 34.178C280.41 33.8993 280.205 33.6867 280.029 33.54C279.867 33.3787 279.625 33.2393 279.303 33.122C278.995 33.0047 278.599 32.946 278.115 32.946C277.411 32.946 276.868 33.1 276.487 33.408C276.105 33.7013 275.915 34.09 275.915 34.574C275.915 34.882 275.995 35.146 276.157 35.366C276.318 35.5713 276.626 35.762 277.081 35.938C277.55 36.114 278.225 36.2973 279.105 36.488C280.498 36.7813 281.481 37.2067 282.053 37.764C282.639 38.3067 282.933 39.0033 282.933 39.854C282.933 40.4847 282.749 41.0567 282.383 41.57C282.016 42.0833 281.473 42.4867 280.755 42.78C280.051 43.0733 279.207 43.22 278.225 43.22ZM294.062 43.22C293.343 43.22 292.676 43.0733 292.06 42.78C291.444 42.4867 290.953 42.0907 290.586 41.592C290.234 41.0787 290.058 40.514 290.058 39.898C290.058 38.93 290.454 38.138 291.246 37.522C292.053 36.8913 293.138 36.4807 294.502 36.29L297.78 35.828V35.19C297.78 33.694 296.922 32.946 295.206 32.946C294.561 32.946 294.033 33.0853 293.622 33.364C293.211 33.628 292.903 33.9433 292.698 34.31C292.654 34.442 292.595 34.5373 292.522 34.596C292.463 34.6547 292.375 34.684 292.258 34.684H291.312C291.18 34.684 291.063 34.64 290.96 34.552C290.872 34.4493 290.828 34.332 290.828 34.2C290.843 33.848 291.004 33.452 291.312 33.012C291.635 32.5573 292.126 32.1687 292.786 31.846C293.446 31.5087 294.26 31.34 295.228 31.34C296.871 31.34 298.051 31.7287 298.77 32.506C299.489 33.2687 299.848 34.222 299.848 35.366V42.494C299.848 42.6407 299.797 42.7653 299.694 42.868C299.606 42.956 299.489 43 299.342 43H298.33C298.183 43 298.059 42.956 297.956 42.868C297.868 42.7653 297.824 42.6407 297.824 42.494V41.548C297.501 42.0173 297.032 42.4133 296.416 42.736C295.8 43.0587 295.015 43.22 294.062 43.22ZM294.524 41.57C295.477 41.57 296.255 41.262 296.856 40.646C297.472 40.0153 297.78 39.1133 297.78 37.94V37.324L295.228 37.698C294.187 37.8447 293.402 38.094 292.874 38.446C292.346 38.7833 292.082 39.216 292.082 39.744C292.082 40.3307 292.324 40.7853 292.808 41.108C293.292 41.416 293.864 41.57 294.524 41.57ZM303.517 43C303.37 43 303.245 42.956 303.143 42.868C303.055 42.7653 303.011 42.6407 303.011 42.494V32.066C303.011 31.9193 303.055 31.802 303.143 31.714C303.245 31.6113 303.37 31.56 303.517 31.56H304.551C304.697 31.56 304.815 31.6113 304.903 31.714C305.005 31.802 305.057 31.9193 305.057 32.066V33.034C305.482 32.4913 305.981 32.0733 306.553 31.78C307.139 31.4867 307.865 31.34 308.731 31.34C310.139 31.34 311.231 31.7947 312.009 32.704C312.801 33.5987 313.197 34.794 313.197 36.29V42.494C313.197 42.6407 313.145 42.7653 313.043 42.868C312.955 42.956 312.837 43 312.691 43H311.591C311.444 43 311.319 42.956 311.217 42.868C311.129 42.7653 311.085 42.6407 311.085 42.494V36.4C311.085 35.3587 310.828 34.552 310.315 33.98C309.816 33.408 309.09 33.122 308.137 33.122C307.213 33.122 306.479 33.4153 305.937 34.002C305.394 34.574 305.123 35.3733 305.123 36.4V42.494C305.123 42.6407 305.071 42.7653 304.969 42.868C304.881 42.956 304.763 43 304.617 43H303.517ZM320.533 43.22C319.007 43.22 317.856 42.7213 317.079 41.724C316.301 40.7267 315.891 39.4653 315.847 37.94L315.825 37.28L315.847 36.62C315.891 35.1093 316.301 33.8553 317.079 32.858C317.856 31.846 319.007 31.34 320.533 31.34C322.043 31.34 323.231 31.8753 324.097 32.946V27.886C324.097 27.7393 324.141 27.622 324.229 27.534C324.331 27.4313 324.456 27.38 324.603 27.38H325.659C325.805 27.38 325.923 27.4313 326.011 27.534C326.113 27.622 326.165 27.7393 326.165 27.886V42.494C326.165 42.6407 326.113 42.7653 326.011 42.868C325.923 42.956 325.805 43 325.659 43H324.669C324.522 43 324.397 42.956 324.295 42.868C324.207 42.7653 324.163 42.6407 324.163 42.494V41.57C323.312 42.67 322.102 43.22 320.533 43.22ZM320.995 41.438C322.007 41.438 322.762 41.108 323.261 40.448C323.774 39.7733 324.053 38.974 324.097 38.05C324.111 37.8887 324.119 37.61 324.119 37.214C324.119 36.8033 324.111 36.5173 324.097 36.356C324.067 35.4907 323.789 34.7353 323.261 34.09C322.733 33.4447 321.977 33.122 320.995 33.122C319.953 33.122 319.191 33.4447 318.707 34.09C318.237 34.7353 317.981 35.586 317.937 36.642L317.915 37.28C317.915 40.052 318.941 41.438 320.995 41.438ZM335.159 29.426C335.013 29.426 334.888 29.382 334.785 29.294C334.697 29.1913 334.653 29.0667 334.653 28.92V27.732C334.653 27.5853 334.697 27.4607 334.785 27.358C334.888 27.2553 335.013 27.204 335.159 27.204H336.545C336.692 27.204 336.817 27.2553 336.919 27.358C337.022 27.4607 337.073 27.5853 337.073 27.732V28.92C337.073 29.0667 337.022 29.1913 336.919 29.294C336.817 29.382 336.692 29.426 336.545 29.426H335.159ZM335.335 43C335.189 43 335.064 42.956 334.961 42.868C334.873 42.7653 334.829 42.6407 334.829 42.494V32.066C334.829 31.9193 334.873 31.802 334.961 31.714C335.064 31.6113 335.189 31.56 335.335 31.56H336.391C336.538 31.56 336.655 31.6113 336.743 31.714C336.846 31.802 336.897 31.9193 336.897 32.066V42.494C336.897 42.6407 336.846 42.7653 336.743 42.868C336.655 42.956 336.538 43 336.391 43H335.335ZM344.623 43C342.306 43 341.147 41.7093 341.147 39.128V33.32H339.431C339.285 33.32 339.16 33.276 339.057 33.188C338.969 33.0853 338.925 32.9607 338.925 32.814V32.066C338.925 31.9193 338.969 31.802 339.057 31.714C339.16 31.6113 339.285 31.56 339.431 31.56H341.147V27.886C341.147 27.7393 341.191 27.622 341.279 27.534C341.382 27.4313 341.507 27.38 341.653 27.38H342.687C342.834 27.38 342.951 27.4313 343.039 27.534C343.142 27.622 343.193 27.7393 343.193 27.886V31.56H345.921C346.068 31.56 346.185 31.6113 346.273 31.714C346.376 31.802 346.427 31.9193 346.427 32.066V32.814C346.427 32.9607 346.376 33.0853 346.273 33.188C346.185 33.276 346.068 33.32 345.921 33.32H343.193V38.974C343.193 39.7073 343.318 40.2647 343.567 40.646C343.817 41.0127 344.227 41.196 344.799 41.196H346.141C346.288 41.196 346.405 41.2473 346.493 41.35C346.596 41.438 346.647 41.5553 346.647 41.702V42.494C346.647 42.6407 346.596 42.7653 346.493 42.868C346.405 42.956 346.288 43 346.141 43H344.623ZM358.764 43.22C357.194 43.22 355.962 42.78 355.068 41.9C354.188 41.0053 353.718 39.7587 353.66 38.16L353.638 37.28L353.66 36.4C353.718 34.8013 354.188 33.562 355.068 32.682C355.962 31.7873 357.194 31.34 358.764 31.34C359.82 31.34 360.714 31.5307 361.448 31.912C362.181 32.2933 362.724 32.7627 363.076 33.32C363.442 33.8773 363.64 34.4347 363.67 34.992C363.684 35.1387 363.64 35.256 363.538 35.344C363.435 35.432 363.31 35.476 363.164 35.476H362.108C361.961 35.476 361.851 35.4467 361.778 35.388C361.704 35.3293 361.631 35.212 361.558 35.036C361.308 34.332 360.956 33.8333 360.502 33.54C360.047 33.232 359.475 33.078 358.786 33.078C357.876 33.078 357.15 33.364 356.608 33.936C356.08 34.4933 355.794 35.3513 355.75 36.51L355.728 37.302L355.75 38.05C355.794 39.2233 356.08 40.0887 356.608 40.646C357.136 41.2033 357.862 41.482 358.786 41.482C359.475 41.482 360.047 41.3353 360.502 41.042C360.956 40.734 361.308 40.228 361.558 39.524C361.631 39.348 361.704 39.2307 361.778 39.172C361.851 39.0987 361.961 39.062 362.108 39.062H363.164C363.31 39.062 363.435 39.1133 363.538 39.216C363.64 39.304 363.684 39.4213 363.67 39.568C363.64 40.1107 363.442 40.668 363.076 41.24C362.724 41.7973 362.181 42.2667 361.448 42.648C360.729 43.0293 359.834 43.22 358.764 43.22ZM370.968 43.22C369.355 43.22 368.101 42.7653 367.206 41.856C366.326 40.9467 365.857 39.7367 365.798 38.226L365.776 37.28L365.798 36.334C365.857 34.838 366.334 33.6353 367.228 32.726C368.123 31.802 369.37 31.34 370.968 31.34C372.567 31.34 373.814 31.802 374.708 32.726C375.603 33.6353 376.08 34.838 376.138 36.334C376.153 36.4953 376.16 36.8107 376.16 37.28C376.16 37.7493 376.153 38.0647 376.138 38.226C376.08 39.7367 375.603 40.9467 374.708 41.856C373.828 42.7653 372.582 43.22 370.968 43.22ZM370.968 41.526C371.892 41.526 372.618 41.2327 373.146 40.646C373.689 40.0593 373.982 39.216 374.026 38.116C374.041 37.9693 374.048 37.6907 374.048 37.28C374.048 36.8693 374.041 36.5907 374.026 36.444C373.982 35.344 373.689 34.5007 373.146 33.914C372.618 33.3273 371.892 33.034 370.968 33.034C370.044 33.034 369.311 33.3273 368.768 33.914C368.226 34.5007 367.94 35.344 367.91 36.444L367.888 37.28L367.91 38.116C367.94 39.216 368.226 40.0593 368.768 40.646C369.311 41.2327 370.044 41.526 370.968 41.526ZM379.421 43C379.274 43 379.15 42.956 379.047 42.868C378.959 42.7653 378.915 42.6407 378.915 42.494V32.066C378.915 31.9193 378.959 31.802 379.047 31.714C379.15 31.6113 379.274 31.56 379.421 31.56H380.411C380.558 31.56 380.675 31.6113 380.763 31.714C380.866 31.802 380.917 31.9193 380.917 32.066V32.836C381.68 31.8387 382.743 31.34 384.107 31.34C385.735 31.34 386.886 32.0147 387.561 33.364C387.913 32.748 388.412 32.2567 389.057 31.89C389.702 31.5233 390.428 31.34 391.235 31.34C392.438 31.34 393.42 31.7507 394.183 32.572C394.946 33.3933 395.327 34.5813 395.327 36.136V42.494C395.327 42.6407 395.276 42.7653 395.173 42.868C395.085 42.956 394.968 43 394.821 43H393.787C393.64 43 393.516 42.956 393.413 42.868C393.325 42.7653 393.281 42.6407 393.281 42.494V36.334C393.281 35.19 393.039 34.3687 392.555 33.87C392.086 33.3713 391.462 33.122 390.685 33.122C389.996 33.122 389.402 33.3787 388.903 33.892C388.404 34.3907 388.155 35.2047 388.155 36.334V42.494C388.155 42.6407 388.104 42.7653 388.001 42.868C387.913 42.956 387.796 43 387.649 43H386.615C386.468 43 386.344 42.956 386.241 42.868C386.153 42.7653 386.109 42.6407 386.109 42.494V36.334C386.109 35.19 385.86 34.3687 385.361 33.87C384.877 33.3713 384.261 33.122 383.513 33.122C382.824 33.122 382.23 33.3787 381.731 33.892C381.232 34.3907 380.983 35.1973 380.983 36.312V42.494C380.983 42.6407 380.932 42.7653 380.829 42.868C380.741 42.956 380.624 43 380.477 43H379.421ZM403.042 43.22C401.531 43.22 400.321 42.758 399.412 41.834C398.517 40.8953 398.026 39.6193 397.938 38.006L397.916 37.258L397.938 36.532C398.041 34.948 398.539 33.6867 399.434 32.748C400.343 31.8093 401.539 31.34 403.02 31.34C404.648 31.34 405.909 31.8607 406.804 32.902C407.699 33.9287 408.146 35.322 408.146 37.082V37.456C408.146 37.6027 408.095 37.7273 407.992 37.83C407.904 37.918 407.787 37.962 407.64 37.962H400.028V38.16C400.072 39.1133 400.358 39.9273 400.886 40.602C401.429 41.262 402.14 41.592 403.02 41.592C403.695 41.592 404.245 41.46 404.67 41.196C405.11 40.9173 405.433 40.6313 405.638 40.338C405.77 40.162 405.865 40.0593 405.924 40.03C405.997 39.986 406.122 39.964 406.298 39.964H407.376C407.508 39.964 407.618 40.0007 407.706 40.074C407.794 40.1473 407.838 40.25 407.838 40.382C407.838 40.7047 407.633 41.0933 407.222 41.548C406.826 42.0027 406.261 42.3987 405.528 42.736C404.809 43.0587 403.981 43.22 403.042 43.22ZM406.056 36.444V36.378C406.056 35.366 405.777 34.5447 405.22 33.914C404.677 33.2687 403.944 32.946 403.02 32.946C402.096 32.946 401.363 33.2687 400.82 33.914C400.292 34.5447 400.028 35.366 400.028 36.378V36.444H406.056ZM414.736 43.22C413.71 43.22 412.844 43.0587 412.14 42.736C411.451 42.3987 410.93 42.0173 410.578 41.592C410.241 41.1667 410.072 40.8147 410.072 40.536C410.072 40.3893 410.124 40.2793 410.226 40.206C410.344 40.118 410.461 40.074 410.578 40.074H411.568C411.715 40.074 411.847 40.1473 411.964 40.294C412.316 40.7047 412.698 41.0273 413.108 41.262C413.519 41.4967 414.069 41.614 414.758 41.614C415.521 41.614 416.137 41.4673 416.606 41.174C417.09 40.866 417.332 40.448 417.332 39.92C417.332 39.568 417.23 39.282 417.024 39.062C416.834 38.8273 416.496 38.6293 416.012 38.468C415.543 38.292 414.839 38.1013 413.9 37.896C412.624 37.6173 411.715 37.214 411.172 36.686C410.644 36.158 410.38 35.476 410.38 34.64C410.38 34.0827 410.542 33.5547 410.864 33.056C411.202 32.5427 411.686 32.132 412.316 31.824C412.962 31.5013 413.732 31.34 414.626 31.34C415.565 31.34 416.364 31.494 417.024 31.802C417.684 32.11 418.176 32.4767 418.498 32.902C418.836 33.3127 419.004 33.6573 419.004 33.936C419.004 34.068 418.953 34.178 418.85 34.266C418.762 34.354 418.652 34.398 418.52 34.398H417.596C417.42 34.398 417.274 34.3247 417.156 34.178C416.922 33.8993 416.716 33.6867 416.54 33.54C416.379 33.3787 416.137 33.2393 415.814 33.122C415.506 33.0047 415.11 32.946 414.626 32.946C413.922 32.946 413.38 33.1 412.998 33.408C412.617 33.7013 412.426 34.09 412.426 34.574C412.426 34.882 412.507 35.146 412.668 35.366C412.83 35.5713 413.138 35.762 413.592 35.938C414.062 36.114 414.736 36.2973 415.616 36.488C417.01 36.7813 417.992 37.2067 418.564 37.764C419.151 38.3067 419.444 39.0033 419.444 39.854C419.444 40.4847 419.261 41.0567 418.894 41.57C418.528 42.0833 417.985 42.4867 417.266 42.78C416.562 43.0733 415.719 43.22 414.736 43.22ZM429.904 43C429.714 43 429.567 42.956 429.464 42.868C429.362 42.78 429.274 42.6407 429.2 42.45L426.076 32.242L426.032 32.022C426.032 31.89 426.076 31.78 426.164 31.692C426.267 31.604 426.377 31.56 426.494 31.56H427.462C427.609 31.56 427.726 31.604 427.814 31.692C427.917 31.7653 427.983 31.846 428.012 31.934L430.454 40.228L433.072 32.022C433.102 31.9047 433.168 31.802 433.27 31.714C433.373 31.6113 433.512 31.56 433.688 31.56H434.436C434.612 31.56 434.752 31.6113 434.854 31.714C434.957 31.802 435.023 31.9047 435.052 32.022L437.67 40.228L440.112 31.934C440.127 31.8607 440.178 31.78 440.266 31.692C440.369 31.604 440.494 31.56 440.64 31.56H441.63C441.748 31.56 441.85 31.604 441.938 31.692C442.026 31.78 442.07 31.89 442.07 32.022L442.026 32.242L438.924 42.45C438.851 42.6407 438.763 42.78 438.66 42.868C438.558 42.956 438.404 43 438.198 43H437.34C436.944 43 436.702 42.8167 436.614 42.45L434.062 34.574L431.51 42.45C431.393 42.8167 431.144 43 430.762 43H429.904ZM444.837 29.426C444.69 29.426 444.566 29.382 444.463 29.294C444.375 29.1913 444.331 29.0667 444.331 28.92V27.732C444.331 27.5853 444.375 27.4607 444.463 27.358C444.566 27.2553 444.69 27.204 444.837 27.204H446.223C446.37 27.204 446.494 27.2553 446.597 27.358C446.7 27.4607 446.751 27.5853 446.751 27.732V28.92C446.751 29.0667 446.7 29.1913 446.597 29.294C446.494 29.382 446.37 29.426 446.223 29.426H444.837ZM445.013 43C444.866 43 444.742 42.956 444.639 42.868C444.551 42.7653 444.507 42.6407 444.507 42.494V32.066C444.507 31.9193 444.551 31.802 444.639 31.714C444.742 31.6113 444.866 31.56 445.013 31.56H446.069C446.216 31.56 446.333 31.6113 446.421 31.714C446.524 31.802 446.575 31.9193 446.575 32.066V42.494C446.575 42.6407 446.524 42.7653 446.421 42.868C446.333 42.956 446.216 43 446.069 43H445.013ZM454.301 43C451.984 43 450.825 41.7093 450.825 39.128V33.32H449.109C448.962 33.32 448.838 33.276 448.735 33.188C448.647 33.0853 448.603 32.9607 448.603 32.814V32.066C448.603 31.9193 448.647 31.802 448.735 31.714C448.838 31.6113 448.962 31.56 449.109 31.56H450.825V27.886C450.825 27.7393 450.869 27.622 450.957 27.534C451.06 27.4313 451.184 27.38 451.331 27.38H452.365C452.512 27.38 452.629 27.4313 452.717 27.534C452.82 27.622 452.871 27.7393 452.871 27.886V31.56H455.599C455.746 31.56 455.863 31.6113 455.951 31.714C456.054 31.802 456.105 31.9193 456.105 32.066V32.814C456.105 32.9607 456.054 33.0853 455.951 33.188C455.863 33.276 455.746 33.32 455.599 33.32H452.871V38.974C452.871 39.7073 452.996 40.2647 453.245 40.646C453.494 41.0127 453.905 41.196 454.477 41.196H455.819C455.966 41.196 456.083 41.2473 456.171 41.35C456.274 41.438 456.325 41.5553 456.325 41.702V42.494C456.325 42.6407 456.274 42.7653 456.171 42.868C456.083 42.956 455.966 43 455.819 43H454.301ZM458.957 43C458.81 43 458.685 42.956 458.583 42.868C458.495 42.7653 458.451 42.6407 458.451 42.494V27.886C458.451 27.7393 458.495 27.622 458.583 27.534C458.685 27.4313 458.81 27.38 458.957 27.38H460.057C460.203 27.38 460.321 27.4313 460.409 27.534C460.511 27.622 460.563 27.7393 460.563 27.886V33.012C460.988 32.4693 461.487 32.0587 462.059 31.78C462.631 31.4867 463.342 31.34 464.193 31.34C465.601 31.34 466.693 31.7947 467.471 32.704C468.263 33.5987 468.659 34.794 468.659 36.29V42.494C468.659 42.6407 468.607 42.7653 468.505 42.868C468.417 42.956 468.299 43 468.153 43H467.053C466.906 43 466.781 42.956 466.679 42.868C466.591 42.7653 466.547 42.6407 466.547 42.494V36.4C466.547 35.3587 466.29 34.552 465.777 33.98C465.278 33.408 464.552 33.122 463.599 33.122C462.675 33.122 461.934 33.4153 461.377 34.002C460.834 34.574 460.563 35.3733 460.563 36.4V42.494C460.563 42.6407 460.511 42.7653 460.409 42.868C460.321 42.956 460.203 43 460.057 43H458.957ZM480.418 43.22C479.699 43.22 479.032 43.0733 478.416 42.78C477.8 42.4867 477.308 42.0907 476.942 41.592C476.59 41.0787 476.414 40.514 476.414 39.898C476.414 38.93 476.81 38.138 477.602 37.522C478.408 36.8913 479.494 36.4807 480.858 36.29L484.136 35.828V35.19C484.136 33.694 483.278 32.946 481.562 32.946C480.916 32.946 480.388 33.0853 479.978 33.364C479.567 33.628 479.259 33.9433 479.054 34.31C479.01 34.442 478.951 34.5373 478.878 34.596C478.819 34.6547 478.731 34.684 478.614 34.684H477.668C477.536 34.684 477.418 34.64 477.316 34.552C477.228 34.4493 477.184 34.332 477.184 34.2C477.198 33.848 477.36 33.452 477.668 33.012C477.99 32.5573 478.482 32.1687 479.142 31.846C479.802 31.5087 480.616 31.34 481.584 31.34C483.226 31.34 484.407 31.7287 485.126 32.506C485.844 33.2687 486.204 34.222 486.204 35.366V42.494C486.204 42.6407 486.152 42.7653 486.05 42.868C485.962 42.956 485.844 43 485.698 43H484.686C484.539 43 484.414 42.956 484.312 42.868C484.224 42.7653 484.18 42.6407 484.18 42.494V41.548C483.857 42.0173 483.388 42.4133 482.772 42.736C482.156 43.0587 481.371 43.22 480.418 43.22ZM480.88 41.57C481.833 41.57 482.61 41.262 483.212 40.646C483.828 40.0153 484.136 39.1133 484.136 37.94V37.324L481.584 37.698C480.542 37.8447 479.758 38.094 479.23 38.446C478.702 38.7833 478.438 39.216 478.438 39.744C478.438 40.3307 478.68 40.7853 479.164 41.108C479.648 41.416 480.22 41.57 480.88 41.57ZM497.279 43C497.089 43 496.942 42.956 496.839 42.868C496.737 42.78 496.649 42.6407 496.575 42.45L493.451 32.242L493.407 32.022C493.407 31.89 493.451 31.78 493.539 31.692C493.642 31.604 493.752 31.56 493.869 31.56H494.837C494.984 31.56 495.101 31.604 495.189 31.692C495.292 31.7653 495.358 31.846 495.387 31.934L497.829 40.228L500.447 32.022C500.477 31.9047 500.543 31.802 500.645 31.714C500.748 31.6113 500.887 31.56 501.063 31.56H501.811C501.987 31.56 502.127 31.6113 502.229 31.714C502.332 31.802 502.398 31.9047 502.427 32.022L505.045 40.228L507.487 31.934C507.502 31.8607 507.553 31.78 507.641 31.692C507.744 31.604 507.869 31.56 508.015 31.56H509.005C509.123 31.56 509.225 31.604 509.313 31.692C509.401 31.78 509.445 31.89 509.445 32.022L509.401 32.242L506.299 42.45C506.226 42.6407 506.138 42.78 506.035 42.868C505.933 42.956 505.779 43 505.573 43H504.715C504.319 43 504.077 42.8167 503.989 42.45L501.437 34.574L498.885 42.45C498.768 42.8167 498.519 43 498.137 43H497.279ZM512.212 29.426C512.065 29.426 511.941 29.382 511.838 29.294C511.75 29.1913 511.706 29.0667 511.706 28.92V27.732C511.706 27.5853 511.75 27.4607 511.838 27.358C511.941 27.2553 512.065 27.204 512.212 27.204H513.598C513.745 27.204 513.869 27.2553 513.972 27.358C514.075 27.4607 514.126 27.5853 514.126 27.732V28.92C514.126 29.0667 514.075 29.1913 513.972 29.294C513.869 29.382 513.745 29.426 513.598 29.426H512.212ZM512.388 43C512.241 43 512.117 42.956 512.014 42.868C511.926 42.7653 511.882 42.6407 511.882 42.494V32.066C511.882 31.9193 511.926 31.802 512.014 31.714C512.117 31.6113 512.241 31.56 512.388 31.56H513.444C513.591 31.56 513.708 31.6113 513.796 31.714C513.899 31.802 513.95 31.9193 513.95 32.066V42.494C513.95 42.6407 513.899 42.7653 513.796 42.868C513.708 42.956 513.591 43 513.444 43H512.388ZM521.39 43.22C519.865 43.22 518.713 42.7213 517.936 41.724C517.159 40.7267 516.748 39.4653 516.704 37.94L516.682 37.28L516.704 36.62C516.748 35.1093 517.159 33.8553 517.936 32.858C518.713 31.846 519.865 31.34 521.39 31.34C522.901 31.34 524.089 31.8753 524.954 32.946V27.886C524.954 27.7393 524.998 27.622 525.086 27.534C525.189 27.4313 525.313 27.38 525.46 27.38H526.516C526.663 27.38 526.78 27.4313 526.868 27.534C526.971 27.622 527.022 27.7393 527.022 27.886V42.494C527.022 42.6407 526.971 42.7653 526.868 42.868C526.78 42.956 526.663 43 526.516 43H525.526C525.379 43 525.255 42.956 525.152 42.868C525.064 42.7653 525.02 42.6407 525.02 42.494V41.57C524.169 42.67 522.959 43.22 521.39 43.22ZM521.852 41.438C522.864 41.438 523.619 41.108 524.118 40.448C524.631 39.7733 524.91 38.974 524.954 38.05C524.969 37.8887 524.976 37.61 524.976 37.214C524.976 36.8033 524.969 36.5173 524.954 36.356C524.925 35.4907 524.646 34.7353 524.118 34.09C523.59 33.4447 522.835 33.122 521.852 33.122C520.811 33.122 520.048 33.4447 519.564 34.09C519.095 34.7353 518.838 35.586 518.794 36.642L518.772 37.28C518.772 40.052 519.799 41.438 521.852 41.438ZM534.87 43.22C533.359 43.22 532.149 42.758 531.24 41.834C530.345 40.8953 529.854 39.6193 529.766 38.006L529.744 37.258L529.766 36.532C529.869 34.948 530.367 33.6867 531.262 32.748C532.171 31.8093 533.367 31.34 534.848 31.34C536.476 31.34 537.737 31.8607 538.632 32.902C539.527 33.9287 539.974 35.322 539.974 37.082V37.456C539.974 37.6027 539.923 37.7273 539.82 37.83C539.732 37.918 539.615 37.962 539.468 37.962H531.856V38.16C531.9 39.1133 532.186 39.9273 532.714 40.602C533.257 41.262 533.968 41.592 534.848 41.592C535.523 41.592 536.073 41.46 536.498 41.196C536.938 40.9173 537.261 40.6313 537.466 40.338C537.598 40.162 537.693 40.0593 537.752 40.03C537.825 39.986 537.95 39.964 538.126 39.964H539.204C539.336 39.964 539.446 40.0007 539.534 40.074C539.622 40.1473 539.666 40.25 539.666 40.382C539.666 40.7047 539.461 41.0933 539.05 41.548C538.654 42.0027 538.089 42.3987 537.356 42.736C536.637 43.0587 535.809 43.22 534.87 43.22ZM537.884 36.444V36.378C537.884 35.366 537.605 34.5447 537.048 33.914C536.505 33.2687 535.772 32.946 534.848 32.946C533.924 32.946 533.191 33.2687 532.648 33.914C532.12 34.5447 531.856 35.366 531.856 36.378V36.444H537.884ZM2.134 69C1.98733 69 1.86267 68.956 1.76 68.868C1.672 68.7653 1.628 68.6407 1.628 68.494V58.088C1.628 57.9413 1.672 57.8167 1.76 57.714C1.86267 57.6113 1.98733 57.56 2.134 57.56H3.146C3.29267 57.56 3.41733 57.6113 3.52 57.714C3.62267 57.8167 3.674 57.9413 3.674 58.088V59.056C4.27533 58.0587 5.302 57.56 6.754 57.56H7.612C7.75867 57.56 7.876 57.6113 7.964 57.714C8.06667 57.802 8.118 57.9193 8.118 58.066V58.968C8.118 59.1147 8.06667 59.232 7.964 59.32C7.876 59.408 7.75867 59.452 7.612 59.452H6.292C5.5 59.452 4.87667 59.6867 4.422 60.156C3.96733 60.6107 3.74 61.234 3.74 62.026V68.494C3.74 68.6407 3.68867 68.7653 3.586 68.868C3.48333 68.956 3.35867 69 3.212 69H2.134ZM13.0035 69.22C12.2849 69.22 11.6175 69.0733 11.0015 68.78C10.3855 68.4867 9.89421 68.0907 9.52755 67.592C9.17555 67.0787 8.99955 66.514 8.99955 65.898C8.99955 64.93 9.39555 64.138 10.1875 63.522C10.9942 62.8913 12.0795 62.4807 13.4435 62.29L16.7215 61.828V61.19C16.7215 59.694 15.8635 58.946 14.1475 58.946C13.5022 58.946 12.9742 59.0853 12.5635 59.364C12.1529 59.628 11.8449 59.9433 11.6395 60.31C11.5955 60.442 11.5369 60.5373 11.4635 60.596C11.4049 60.6547 11.3169 60.684 11.1995 60.684H10.2535C10.1215 60.684 10.0042 60.64 9.90155 60.552C9.81355 60.4493 9.76955 60.332 9.76955 60.2C9.78421 59.848 9.94555 59.452 10.2535 59.012C10.5762 58.5573 11.0675 58.1687 11.7275 57.846C12.3875 57.5087 13.2015 57.34 14.1695 57.34C15.8122 57.34 16.9929 57.7287 17.7115 58.506C18.4302 59.2687 18.7895 60.222 18.7895 61.366V68.494C18.7895 68.6407 18.7382 68.7653 18.6355 68.868C18.5475 68.956 18.4302 69 18.2835 69H17.2715C17.1249 69 17.0002 68.956 16.8975 68.868C16.8095 68.7653 16.7655 68.6407 16.7655 68.494V67.548C16.4429 68.0173 15.9735 68.4133 15.3575 68.736C14.7415 69.0587 13.9569 69.22 13.0035 69.22ZM13.4655 67.57C14.4189 67.57 15.1962 67.262 15.7975 66.646C16.4135 66.0153 16.7215 65.1133 16.7215 63.94V63.324L14.1695 63.698C13.1282 63.8447 12.3435 64.094 11.8155 64.446C11.2875 64.7833 11.0235 65.216 11.0235 65.744C11.0235 66.3307 11.2655 66.7853 11.7495 67.108C12.2335 67.416 12.8055 67.57 13.4655 67.57ZM22.4582 69C22.3116 69 22.1869 68.956 22.0842 68.868C21.9962 68.7653 21.9522 68.6407 21.9522 68.494V58.066C21.9522 57.9193 21.9962 57.802 22.0842 57.714C22.1869 57.6113 22.3116 57.56 22.4582 57.56H23.4922C23.6389 57.56 23.7562 57.6113 23.8442 57.714C23.9469 57.802 23.9982 57.9193 23.9982 58.066V59.034C24.4236 58.4913 24.9222 58.0733 25.4942 57.78C26.0809 57.4867 26.8069 57.34 27.6722 57.34C29.0802 57.34 30.1729 57.7947 30.9502 58.704C31.7422 59.5987 32.1382 60.794 32.1382 62.29V68.494C32.1382 68.6407 32.0869 68.7653 31.9842 68.868C31.8962 68.956 31.7789 69 31.6322 69H30.5322C30.3856 69 30.2609 68.956 30.1582 68.868C30.0702 68.7653 30.0262 68.6407 30.0262 68.494V62.4C30.0262 61.3587 29.7696 60.552 29.2562 59.98C28.7576 59.408 28.0316 59.122 27.0782 59.122C26.1542 59.122 25.4209 59.4153 24.8782 60.002C24.3356 60.574 24.0642 61.3733 24.0642 62.4V68.494C24.0642 68.6407 24.0129 68.7653 23.9102 68.868C23.8222 68.956 23.7049 69 23.5582 69H22.4582ZM39.98 73.84C38.7773 73.84 37.8093 73.6347 37.076 73.224C36.3427 72.828 35.822 72.3733 35.514 71.86C35.206 71.3467 35.0373 70.8847 35.008 70.474C34.9933 70.3273 35.0373 70.2027 35.14 70.1C35.2573 69.9973 35.382 69.946 35.514 69.946H36.57C36.702 69.946 36.812 69.9753 36.9 70.034C36.988 70.1073 37.0613 70.232 37.12 70.408C37.296 70.8773 37.582 71.2807 37.978 71.618C38.3887 71.97 39.0193 72.146 39.87 72.146C40.9553 72.146 41.7547 71.9113 42.268 71.442C42.7813 70.9873 43.038 70.1733 43.038 69V67.504C42.6567 67.988 42.1727 68.3767 41.586 68.67C40.9993 68.9487 40.3027 69.088 39.496 69.088C37.9413 69.088 36.7753 68.5967 35.998 67.614C35.2353 66.6167 34.832 65.3553 34.788 63.83L34.766 63.214L34.788 62.62C34.832 61.1093 35.2427 59.8553 36.02 58.858C36.7973 57.846 37.956 57.34 39.496 57.34C41.036 57.34 42.2387 57.9047 43.104 59.034V58.088C43.104 57.9413 43.148 57.8167 43.236 57.714C43.3387 57.6113 43.4633 57.56 43.61 57.56H44.622C44.7687 57.56 44.8933 57.6113 44.996 57.714C45.0987 57.8167 45.15 57.9413 45.15 58.088V68.758C45.15 72.146 43.4267 73.84 39.98 73.84ZM39.936 67.328C40.9333 67.328 41.6887 66.998 42.202 66.338C42.7153 65.678 42.994 64.8933 43.038 63.984C43.0527 63.852 43.06 63.5953 43.06 63.214C43.06 62.8473 43.0527 62.598 43.038 62.466C42.994 61.5567 42.7153 60.772 42.202 60.112C41.7033 59.452 40.948 59.122 39.936 59.122C38.8947 59.122 38.1393 59.4447 37.67 60.09C37.2007 60.7353 36.944 61.586 36.9 62.642L36.878 63.214L36.9 63.808C36.944 64.8493 37.2007 65.7 37.67 66.36C38.1393 67.0053 38.8947 67.328 39.936 67.328ZM52.997 69.22C51.4863 69.22 50.2763 68.758 49.367 67.834C48.4723 66.8953 47.981 65.6193 47.893 64.006L47.871 63.258L47.893 62.532C47.9956 60.948 48.4943 59.6867 49.389 58.748C50.2983 57.8093 51.4936 57.34 52.975 57.34C54.603 57.34 55.8643 57.8607 56.759 58.902C57.6536 59.9287 58.101 61.322 58.101 63.082V63.456C58.101 63.6027 58.0496 63.7273 57.947 63.83C57.859 63.918 57.7416 63.962 57.595 63.962H49.983V64.16C50.027 65.1133 50.313 65.9273 50.841 66.602C51.3836 67.262 52.095 67.592 52.975 67.592C53.6496 67.592 54.1996 67.46 54.625 67.196C55.065 66.9173 55.3876 66.6313 55.593 66.338C55.725 66.162 55.8203 66.0593 55.879 66.03C55.9523 65.986 56.077 65.964 56.253 65.964H57.331C57.463 65.964 57.573 66.0007 57.661 66.074C57.749 66.1473 57.793 66.25 57.793 66.382C57.793 66.7047 57.5876 67.0933 57.177 67.548C56.781 68.0027 56.2163 68.3987 55.483 68.736C54.7643 69.0587 53.9356 69.22 52.997 69.22ZM56.011 62.444V62.378C56.011 61.366 55.7323 60.5447 55.175 59.914C54.6323 59.2687 53.899 58.946 52.975 58.946C52.051 58.946 51.3176 59.2687 50.775 59.914C50.247 60.5447 49.983 61.366 49.983 62.378V62.444H56.011ZM70.8101 69.22C69.1968 69.22 67.9428 68.7653 67.0481 67.856C66.1681 66.9467 65.6988 65.7367 65.6401 64.226L65.6181 63.28L65.6401 62.334C65.6988 60.838 66.1754 59.6353 67.0701 58.726C67.9648 57.802 69.2114 57.34 70.8101 57.34C72.4088 57.34 73.6554 57.802 74.5501 58.726C75.4448 59.6353 75.9214 60.838 75.9801 62.334C75.9948 62.4953 76.0021 62.8107 76.0021 63.28C76.0021 63.7493 75.9948 64.0647 75.9801 64.226C75.9214 65.7367 75.4448 66.9467 74.5501 67.856C73.6701 68.7653 72.4234 69.22 70.8101 69.22ZM70.8101 67.526C71.7341 67.526 72.4601 67.2327 72.9881 66.646C73.5308 66.0593 73.8241 65.216 73.8681 64.116C73.8828 63.9693 73.8901 63.6907 73.8901 63.28C73.8901 62.8693 73.8828 62.5907 73.8681 62.444C73.8241 61.344 73.5308 60.5007 72.9881 59.914C72.4601 59.3273 71.7341 59.034 70.8101 59.034C69.8861 59.034 69.1528 59.3273 68.6101 59.914C68.0674 60.5007 67.7814 61.344 67.7521 62.444L67.7301 63.28L67.7521 64.116C67.7814 65.216 68.0674 66.0593 68.6101 66.646C69.1528 67.2327 69.8861 67.526 70.8101 67.526ZM80.278 69C80.1313 69 80.0067 68.956 79.904 68.868C79.816 68.7653 79.772 68.6407 79.772 68.494V59.32H77.902C77.7553 59.32 77.6307 59.276 77.528 59.188C77.44 59.0853 77.396 58.9607 77.396 58.814V58.066C77.396 57.9193 77.44 57.802 77.528 57.714C77.6307 57.6113 77.7553 57.56 77.902 57.56H79.772V56.46C79.772 53.9667 81.0333 52.72 83.556 52.72H84.876C85.0227 52.72 85.14 52.7713 85.228 52.874C85.3307 52.962 85.382 53.0793 85.382 53.226V53.974C85.382 54.1207 85.3307 54.2453 85.228 54.348C85.14 54.436 85.0227 54.48 84.876 54.48H83.6C82.94 54.48 82.478 54.656 82.214 55.008C81.95 55.3453 81.818 55.866 81.818 56.57V57.56H84.656C84.8027 57.56 84.92 57.6113 85.008 57.714C85.1107 57.802 85.162 57.9193 85.162 58.066V58.814C85.162 58.9607 85.1107 59.0853 85.008 59.188C84.92 59.276 84.8027 59.32 84.656 59.32H81.818V68.494C81.818 68.6407 81.7667 68.7653 81.664 68.868C81.576 68.956 81.4587 69 81.312 69H80.278ZM97.6453 69.22C96.0613 69.22 94.8586 68.67 94.0373 67.57V68.494C94.0373 68.6407 93.9859 68.7653 93.8833 68.868C93.7953 68.956 93.6779 69 93.5313 69H92.5193C92.3726 69 92.2479 68.956 92.1453 68.868C92.0573 68.7653 92.0133 68.6407 92.0133 68.494V53.886C92.0133 53.7393 92.0573 53.622 92.1453 53.534C92.2479 53.4313 92.3726 53.38 92.5193 53.38H93.5973C93.7439 53.38 93.8613 53.4313 93.9493 53.534C94.0373 53.622 94.0813 53.7393 94.0813 53.886V58.946C94.9466 57.8753 96.1346 57.34 97.6453 57.34C99.1706 57.34 100.322 57.846 101.099 58.858C101.877 59.8553 102.295 61.1093 102.353 62.62C102.368 62.7813 102.375 63.0013 102.375 63.28C102.375 63.5587 102.368 63.7787 102.353 63.94C102.295 65.4653 101.877 66.7267 101.099 67.724C100.322 68.7213 99.1706 69.22 97.6453 69.22ZM97.1833 67.438C98.2246 67.438 98.9799 67.1153 99.4493 66.47C99.9333 65.8247 100.197 64.974 100.241 63.918C100.256 63.7713 100.263 63.5587 100.263 63.28C100.263 60.508 99.2366 59.122 97.1833 59.122C96.2006 59.122 95.4453 59.4447 94.9173 60.09C94.3893 60.7353 94.1106 61.4907 94.0813 62.356L94.0593 63.214L94.0813 64.05C94.1253 64.974 94.3966 65.7733 94.8953 66.448C95.4086 67.108 96.1713 67.438 97.1833 67.438ZM109.651 69.22C108.141 69.22 106.931 68.758 106.021 67.834C105.127 66.8953 104.635 65.6193 104.547 64.006L104.525 63.258L104.547 62.532C104.65 60.948 105.149 59.6867 106.043 58.748C106.953 57.8093 108.148 57.34 109.629 57.34C111.257 57.34 112.519 57.8607 113.413 58.902C114.308 59.9287 114.755 61.322 114.755 63.082V63.456C114.755 63.6027 114.704 63.7273 114.601 63.83C114.513 63.918 114.396 63.962 114.249 63.962H106.637V64.16C106.681 65.1133 106.967 65.9273 107.495 66.602C108.038 67.262 108.749 67.592 109.629 67.592C110.304 67.592 110.854 67.46 111.279 67.196C111.719 66.9173 112.042 66.6313 112.247 66.338C112.379 66.162 112.475 66.0593 112.533 66.03C112.607 65.986 112.731 65.964 112.907 65.964H113.985C114.117 65.964 114.227 66.0007 114.315 66.074C114.403 66.1473 114.447 66.25 114.447 66.382C114.447 66.7047 114.242 67.0933 113.831 67.548C113.435 68.0027 112.871 68.3987 112.137 68.736C111.419 69.0587 110.59 69.22 109.651 69.22ZM112.665 62.444V62.378C112.665 61.366 112.387 60.5447 111.829 59.914C111.287 59.2687 110.553 58.946 109.629 58.946C108.705 58.946 107.972 59.2687 107.429 59.914C106.901 60.5447 106.637 61.366 106.637 62.378V62.444H112.665ZM117.892 69C117.745 69 117.62 68.956 117.518 68.868C117.43 68.7653 117.386 68.6407 117.386 68.494V58.066C117.386 57.9193 117.43 57.802 117.518 57.714C117.62 57.6113 117.745 57.56 117.892 57.56H118.926C119.072 57.56 119.19 57.6113 119.278 57.714C119.38 57.802 119.432 57.9193 119.432 58.066V59.034C119.857 58.4913 120.356 58.0733 120.928 57.78C121.514 57.4867 122.24 57.34 123.106 57.34C124.514 57.34 125.606 57.7947 126.384 58.704C127.176 59.5987 127.572 60.794 127.572 62.29V68.494C127.572 68.6407 127.52 68.7653 127.418 68.868C127.33 68.956 127.212 69 127.066 69H125.966C125.819 69 125.694 68.956 125.592 68.868C125.504 68.7653 125.46 68.6407 125.46 68.494V62.4C125.46 61.3587 125.203 60.552 124.69 59.98C124.191 59.408 123.465 59.122 122.512 59.122C121.588 59.122 120.854 59.4153 120.312 60.002C119.769 60.574 119.498 61.3733 119.498 62.4V68.494C119.498 68.6407 119.446 68.7653 119.344 68.868C119.256 68.956 119.138 69 118.992 69H117.892ZM135.304 69.22C133.793 69.22 132.583 68.758 131.674 67.834C130.779 66.8953 130.288 65.6193 130.2 64.006L130.178 63.258L130.2 62.532C130.302 60.948 130.801 59.6867 131.696 58.748C132.605 57.8093 133.8 57.34 135.282 57.34C136.91 57.34 138.171 57.8607 139.066 58.902C139.96 59.9287 140.408 61.322 140.408 63.082V63.456C140.408 63.6027 140.356 63.7273 140.254 63.83C140.166 63.918 140.048 63.962 139.902 63.962H132.29V64.16C132.334 65.1133 132.62 65.9273 133.148 66.602C133.69 67.262 134.402 67.592 135.282 67.592C135.956 67.592 136.506 67.46 136.932 67.196C137.372 66.9173 137.694 66.6313 137.9 66.338C138.032 66.162 138.127 66.0593 138.186 66.03C138.259 65.986 138.384 65.964 138.56 65.964H139.638C139.77 65.964 139.88 66.0007 139.968 66.074C140.056 66.1473 140.1 66.25 140.1 66.382C140.1 66.7047 139.894 67.0933 139.484 67.548C139.088 68.0027 138.523 68.3987 137.79 68.736C137.071 69.0587 136.242 69.22 135.304 69.22ZM138.318 62.444V62.378C138.318 61.366 138.039 60.5447 137.482 59.914C136.939 59.2687 136.206 58.946 135.282 58.946C134.358 58.946 133.624 59.2687 133.082 59.914C132.554 60.5447 132.29 61.366 132.29 62.378V62.444H138.318ZM144.581 69C144.434 69 144.309 68.956 144.207 68.868C144.119 68.7653 144.075 68.6407 144.075 68.494V59.32H142.205C142.058 59.32 141.933 59.276 141.831 59.188C141.743 59.0853 141.699 58.9607 141.699 58.814V58.066C141.699 57.9193 141.743 57.802 141.831 57.714C141.933 57.6113 142.058 57.56 142.205 57.56H144.075V56.46C144.075 53.9667 145.336 52.72 147.859 52.72H151.247C151.393 52.72 151.511 52.7713 151.599 52.874C151.701 52.962 151.753 53.0793 151.753 53.226V53.974C151.753 54.1207 151.701 54.2453 151.599 54.348C151.511 54.436 151.393 54.48 151.247 54.48H147.903C147.243 54.48 146.781 54.656 146.517 55.008C146.253 55.3453 146.121 55.866 146.121 56.57V57.56H151.247C151.393 57.56 151.511 57.6113 151.599 57.714C151.701 57.802 151.753 57.9193 151.753 58.066V68.494C151.753 68.6407 151.701 68.7653 151.599 68.868C151.511 68.956 151.393 69 151.247 69H150.235C150.088 69 149.963 68.956 149.861 68.868C149.773 68.7653 149.729 68.6407 149.729 68.494V59.32H146.121V68.494C146.121 68.6407 146.069 68.7653 145.967 68.868C145.879 68.956 145.761 69 145.615 69H144.581ZM159.471 69C157.154 69 155.995 67.7093 155.995 65.128V59.32H154.279C154.132 59.32 154.008 59.276 153.905 59.188C153.817 59.0853 153.773 58.9607 153.773 58.814V58.066C153.773 57.9193 153.817 57.802 153.905 57.714C154.008 57.6113 154.132 57.56 154.279 57.56H155.995V53.886C155.995 53.7393 156.039 53.622 156.127 53.534C156.23 53.4313 156.354 53.38 156.501 53.38H157.535C157.682 53.38 157.799 53.4313 157.887 53.534C157.99 53.622 158.041 53.7393 158.041 53.886V57.56H160.769C160.916 57.56 161.033 57.6113 161.121 57.714C161.224 57.802 161.275 57.9193 161.275 58.066V58.814C161.275 58.9607 161.224 59.0853 161.121 59.188C161.033 59.276 160.916 59.32 160.769 59.32H158.041V64.974C158.041 65.7073 158.166 66.2647 158.415 66.646C158.664 67.0127 159.075 67.196 159.647 67.196H160.989C161.136 67.196 161.253 67.2473 161.341 67.35C161.444 67.438 161.495 67.5553 161.495 67.702V68.494C161.495 68.6407 161.444 68.7653 161.341 68.868C161.253 68.956 161.136 69 160.989 69H159.471ZM167.559 69.22C166.532 69.22 165.667 69.0587 164.963 68.736C164.273 68.3987 163.753 68.0173 163.401 67.592C163.063 67.1667 162.895 66.8147 162.895 66.536C162.895 66.3893 162.946 66.2793 163.049 66.206C163.166 66.118 163.283 66.074 163.401 66.074H164.391C164.537 66.074 164.669 66.1473 164.787 66.294C165.139 66.7047 165.52 67.0273 165.931 67.262C166.341 67.4967 166.891 67.614 167.581 67.614C168.343 67.614 168.959 67.4673 169.429 67.174C169.913 66.866 170.155 66.448 170.155 65.92C170.155 65.568 170.052 65.282 169.847 65.062C169.656 64.8273 169.319 64.6293 168.835 64.468C168.365 64.292 167.661 64.1013 166.723 63.896C165.447 63.6173 164.537 63.214 163.995 62.686C163.467 62.158 163.203 61.476 163.203 60.64C163.203 60.0827 163.364 59.5547 163.687 59.056C164.024 58.5427 164.508 58.132 165.139 57.824C165.784 57.5013 166.554 57.34 167.449 57.34C168.387 57.34 169.187 57.494 169.847 57.802C170.507 58.11 170.998 58.4767 171.321 58.902C171.658 59.3127 171.827 59.6573 171.827 59.936C171.827 60.068 171.775 60.178 171.673 60.266C171.585 60.354 171.475 60.398 171.343 60.398H170.419C170.243 60.398 170.096 60.3247 169.979 60.178C169.744 59.8993 169.539 59.6867 169.363 59.54C169.201 59.3787 168.959 59.2393 168.637 59.122C168.329 59.0047 167.933 58.946 167.449 58.946C166.745 58.946 166.202 59.1 165.821 59.408C165.439 59.7013 165.249 60.09 165.249 60.574C165.249 60.882 165.329 61.146 165.491 61.366C165.652 61.5713 165.96 61.762 166.415 61.938C166.884 62.114 167.559 62.2973 168.439 62.488C169.832 62.7813 170.815 63.2067 171.387 63.764C171.973 64.3067 172.267 65.0033 172.267 65.854C172.267 66.4847 172.083 67.0567 171.717 67.57C171.35 68.0833 170.807 68.4867 170.089 68.78C169.385 69.0733 168.541 69.22 167.559 69.22ZM175.166 69C175.019 69 174.894 68.956 174.792 68.868C174.704 68.7653 174.66 68.6407 174.66 68.494V66.91C174.66 66.7633 174.704 66.646 174.792 66.558C174.894 66.4553 175.019 66.404 175.166 66.404H176.75C176.896 66.404 177.021 66.4553 177.124 66.558C177.226 66.646 177.278 66.7633 177.278 66.91V68.494C177.278 68.6407 177.226 68.7653 177.124 68.868C177.021 68.956 176.896 69 176.75 69H175.166Z" fill="#C4C4C4"/>
</svg>
