<svg width="42" height="30" viewBox="0 0 42 30" fill="none" xmlns="http://www.w3.org/2000/svg">
<path d="M33.5 4.58329C33.5 3.47822 33.061 2.41842 32.2796 1.63701C31.4982 0.855613 30.4384 0.416626 29.3333 0.416626H4.33334C3.22827 0.416626 2.16846 0.855613 1.38706 1.63701C0.605658 2.41842 0.166672 3.47822 0.166672 4.58329V25.4166C0.166672 26.5217 0.605658 27.5815 1.38706 28.3629C2.16846 29.1443 3.22827 29.5833 4.33334 29.5833H29.3333C30.4384 29.5833 31.4982 29.1443 32.2796 28.3629C33.061 27.5815 33.5 26.5217 33.5 25.4166V18.4729L41.8333 25.4166V4.58329L33.5 11.527V4.58329ZM25.1667 17.0833H18.9167V23.3333H14.75V17.0833H8.50001V12.9166H14.75V6.66663H18.9167V12.9166H25.1667V17.0833Z" fill="#F7F7F7"/>
</svg>
