<svg width="97" height="18" viewBox="0 0 97 18" fill="none" xmlns="http://www.w3.org/2000/svg">
<path d="M7.536 18V3.912H0.48V0.719999H17.76V3.912H10.728V18H7.536ZM19.5309 18V0.743999H33.4509C34.3789 0.743999 35.1709 1.08 35.8269 1.752C36.4829 2.408 36.8109 3.184 36.8109 4.08V8.736C36.8109 9.648 36.4829 10.432 35.8269 11.088C35.1709 11.744 34.3789 12.072 33.4509 12.072H32.5149L36.7869 17.112V18H33.3309L28.3629 12.072L22.6989 12.096V18H19.5309ZM23.5389 8.88H32.7789C33.2109 8.88 33.4509 8.856 33.4989 8.808C33.5629 8.76 33.5949 8.512 33.5949 8.064V4.752C33.5949 4.304 33.5629 4.056 33.4989 4.008C33.4509 3.944 33.2109 3.912 32.7789 3.912H23.5389C23.0909 3.912 22.8349 3.944 22.7709 4.008C22.7229 4.056 22.6989 4.304 22.6989 4.752V8.064C22.6989 8.512 22.7229 8.76 22.7709 8.808C22.8349 8.856 23.0909 8.88 23.5389 8.88ZM59.4701 18V0.719999H73.3901C74.3181 0.719999 75.1101 1.048 75.7661 1.704C76.4221 2.36 76.7501 3.144 76.7501 4.056V14.664C76.7501 15.576 76.4221 16.36 75.7661 17.016C75.1101 17.672 74.3181 18 73.3901 18H59.4701ZM63.4781 14.808H72.7181C73.1501 14.808 73.3981 14.784 73.4621 14.736C73.5261 14.672 73.5581 14.416 73.5581 13.968V4.752C73.5581 4.304 73.5261 4.056 73.4621 4.008C73.3981 3.944 73.1501 3.912 72.7181 3.912H63.4781C63.0301 3.912 62.7741 3.944 62.7101 4.008C62.6621 4.056 62.6381 4.304 62.6381 4.752V13.968C62.6381 14.416 62.6621 14.672 62.7101 14.736C62.7741 14.784 63.0301 14.808 63.4781 14.808ZM79.4858 18V4.056C79.4858 3.144 79.8138 2.36 80.4698 1.704C81.1258 1.048 81.9098 0.719999 82.8218 0.719999H93.4058C94.3338 0.719999 95.1258 1.048 95.7818 1.704C96.4378 2.36 96.7658 3.144 96.7658 4.056V18H93.5738V12.192H82.6538V18H79.4858ZM82.6538 9.024H93.5738V4.752C93.5738 4.304 93.5418 4.056 93.4778 4.008C93.4138 3.944 93.1658 3.912 92.7338 3.912H83.4938C83.0458 3.912 82.7898 3.944 82.7258 4.008C82.6778 4.056 82.6538 4.304 82.6538 4.752V9.024Z" fill="white"/>
<path d="M39.4076 18V4.056C39.4076 3.144 39.7356 2.36 40.3916 1.704C41.0476 1.048 41.8316 0.719999 42.7436 0.719999H53.3276C54.2556 0.719999 55.0476 1.048 55.7036 1.704C56.3596 2.36 56.6876 3.144 56.6876 4.056V18H53.4956V12.192H42.5756V18H39.4076ZM42.5756 9.024H53.4956V4.752C53.4956 4.304 53.4636 4.056 53.3996 4.008C53.3356 3.944 53.0876 3.912 52.6556 3.912H43.4156C42.9676 3.912 42.7116 3.944 42.6476 4.008C42.5996 4.056 42.5756 4.304 42.5756 4.752V9.024Z" fill="#F8C616"/>
</svg>
