<svg width="150" height="47" viewBox="0 0 150 47" fill="none" xmlns="http://www.w3.org/2000/svg">
<rect width="150" height="47" rx="10" fill="#F7F7F7"/>
<g clip-path="url(#clip0_81_689)">
<path d="M32.6514 28.5645C36.2017 26.6151 38.8931 25.1297 39.1251 25.0142C39.8672 24.6196 40.6336 23.575 39.1251 22.7637C38.638 22.5085 36.0158 21.0694 32.6514 19.2134L27.9874 23.9236L32.6514 28.5644V28.5645Z" fill="#FFD900"/>
<path d="M27.9875 23.9233L13.1368 38.8905C13.4854 38.9367 13.879 38.8443 14.3429 38.5892C15.317 38.056 25.6433 32.4167 32.6514 28.5653L27.9875 23.9233Z" fill="#F43249"/>
<path d="M27.9875 23.9235L32.6514 19.2365C32.6514 19.2365 15.3875 9.81483 14.3429 9.25866C13.9494 9.02558 13.5084 8.95635 13.1138 9.02558L27.9875 23.9235Z" fill="#00EE76"/>
<path d="M27.9875 23.9234L13.1138 9.02539C12.5101 9.16495 12 9.69827 12 10.789V37.127C12 38.1253 12.3947 38.8443 13.1368 38.9136L27.9875 23.9234Z" fill="#00D3FF"/>
</g>
<path d="M49.31 21.1C48.4433 21.1 47.7933 20.8567 47.36 20.37C46.9267 19.8767 46.6933 19.2167 46.66 18.39C46.6533 18.21 46.65 17.9167 46.65 17.51C46.65 17.0967 46.6533 16.7967 46.66 16.61C46.6933 15.7833 46.9267 15.1267 47.36 14.64C47.7933 14.1467 48.4433 13.9 49.31 13.9C49.9033 13.9 50.3967 14.01 50.79 14.23C51.1833 14.4433 51.4733 14.7167 51.66 15.05C51.8533 15.3767 51.96 15.7133 51.98 16.06V16.08C51.98 16.1333 51.96 16.1767 51.92 16.21C51.88 16.2433 51.83 16.26 51.77 16.26H51.57C51.45 16.26 51.3767 16.19 51.35 16.05C51.2233 15.4833 50.9933 15.0833 50.66 14.85C50.3267 14.6167 49.8767 14.5 49.31 14.5C48.6833 14.5 48.1967 14.6767 47.85 15.03C47.5033 15.3833 47.3167 15.9267 47.29 16.66C47.2833 16.84 47.28 17.1167 47.28 17.49C47.28 17.8633 47.2833 18.1467 47.29 18.34C47.3167 19.0733 47.5033 19.6167 47.85 19.97C48.1967 20.3233 48.6833 20.5 49.31 20.5C49.8767 20.5 50.3267 20.3833 50.66 20.15C50.9933 19.9167 51.2233 19.5167 51.35 18.95C51.3767 18.81 51.45 18.74 51.57 18.74H51.77C51.83 18.74 51.88 18.76 51.92 18.8C51.9667 18.8333 51.9867 18.88 51.98 18.94C51.96 19.2867 51.8533 19.6267 51.66 19.96C51.4733 20.2867 51.1833 20.56 50.79 20.78C50.3967 20.9933 49.9033 21.1 49.31 21.1ZM55.8237 21.1C54.1103 21.1 53.2303 20.18 53.1837 18.34C53.177 18.14 53.1737 17.86 53.1737 17.5C53.1737 17.14 53.177 16.86 53.1837 16.66C53.2103 15.7533 53.457 15.0667 53.9237 14.6C54.3903 14.1333 55.0237 13.9 55.8237 13.9C56.6237 13.9 57.257 14.1333 57.7237 14.6C58.1903 15.0667 58.437 15.7533 58.4637 16.66C58.477 17.06 58.4837 17.34 58.4837 17.5C58.4837 17.66 58.477 17.94 58.4637 18.34C58.417 20.18 57.537 21.1 55.8237 21.1ZM55.8237 20.5C56.4237 20.5 56.9003 20.32 57.2537 19.96C57.6137 19.5933 57.807 19.0367 57.8337 18.29C57.847 17.89 57.8537 17.6267 57.8537 17.5C57.8537 17.3733 57.847 17.11 57.8337 16.71C57.807 15.9633 57.6137 15.41 57.2537 15.05C56.8937 14.6833 56.417 14.5 55.8237 14.5C55.2303 14.5 54.7537 14.6833 54.3937 15.05C54.0337 15.41 53.8403 15.9633 53.8137 16.71C53.807 16.91 53.8037 17.1733 53.8037 17.5C53.8037 17.8267 53.807 18.09 53.8137 18.29C53.8403 19.0367 54.0303 19.5933 54.3837 19.96C54.7437 20.32 55.2237 20.5 55.8237 20.5ZM60.3048 21C60.2381 21 60.1814 20.98 60.1348 20.94C60.0948 20.9 60.0748 20.8467 60.0748 20.78V14.23C60.0748 14.1567 60.0948 14.1 60.1348 14.06C60.1814 14.02 60.2381 14 60.3048 14H60.5548C60.6548 14 60.7248 14.0433 60.7648 14.13L63.0348 18.55L65.3148 14.13C65.3614 14.0433 65.4314 14 65.5248 14H65.7648C65.8381 14 65.8948 14.02 65.9348 14.06C65.9748 14.1 65.9948 14.1567 65.9948 14.23V20.78C65.9948 20.8467 65.9714 20.9 65.9248 20.94C65.8848 20.98 65.8314 21 65.7648 21H65.5848C65.5181 21 65.4648 20.98 65.4248 20.94C65.3848 20.9 65.3648 20.8467 65.3648 20.78V15.36L63.4548 19.12C63.3948 19.2533 63.2914 19.32 63.1448 19.32H62.9248C62.7781 19.32 62.6748 19.2533 62.6148 19.12L60.7048 15.36V20.78C60.7048 20.8467 60.6848 20.9 60.6448 20.94C60.6048 20.98 60.5514 21 60.4848 21H60.3048ZM68.0975 21C68.0308 21 67.9775 20.98 67.9375 20.94C67.8975 20.9 67.8775 20.8467 67.8775 20.78V14.22C67.8775 14.1533 67.8975 14.1 67.9375 14.06C67.9775 14.02 68.0308 14 68.0975 14H68.2875C68.3542 14 68.4075 14.02 68.4475 14.06C68.4875 14.1 68.5075 14.1533 68.5075 14.22V20.78C68.5075 20.8467 68.4875 20.9 68.4475 20.94C68.4075 20.98 68.3542 21 68.2875 21H68.0975ZM70.6073 21C70.5406 21 70.4873 20.98 70.4473 20.94C70.4073 20.9 70.3873 20.8467 70.3873 20.78V14.23C70.3873 14.1633 70.4073 14.11 70.4473 14.07C70.4873 14.0233 70.5406 14 70.6073 14H70.8173C70.9039 14 70.9739 14.04 71.0273 14.12L74.7173 19.76V14.23C74.7173 14.1633 74.7373 14.11 74.7773 14.07C74.8173 14.0233 74.8706 14 74.9373 14H75.1173C75.1906 14 75.2473 14.02 75.2873 14.06C75.3273 14.1 75.3473 14.1567 75.3473 14.23V20.77C75.3473 20.8367 75.3273 20.8933 75.2873 20.94C75.2473 20.98 75.1939 21 75.1273 21H74.9073C74.8206 21 74.7506 20.96 74.6973 20.88L71.0173 15.26V20.78C71.0173 20.8467 70.9939 20.9 70.9473 20.94C70.9073 20.98 70.8539 21 70.7873 21H70.6073ZM79.6232 21.1C78.7899 21.1 78.1432 20.86 77.6832 20.38C77.2232 19.9 76.9799 19.2567 76.9532 18.45C76.9465 18.25 76.9432 17.9333 76.9432 17.5C76.9432 17.0667 76.9465 16.75 76.9532 16.55C76.9799 15.7433 77.2232 15.1 77.6832 14.62C78.1432 14.14 78.7899 13.9 79.6232 13.9C80.1899 13.9 80.6665 14.0067 81.0532 14.22C81.4399 14.4333 81.7265 14.6867 81.9132 14.98C82.1065 15.2667 82.2099 15.5233 82.2232 15.75V15.77C82.2232 15.8233 82.2032 15.8667 82.1632 15.9C82.1232 15.9333 82.0732 15.95 82.0132 15.95H81.7932C81.7332 15.95 81.6899 15.9367 81.6632 15.91C81.6365 15.8833 81.6099 15.83 81.5832 15.75C81.4699 15.3967 81.2499 15.1 80.9232 14.86C80.6032 14.62 80.1699 14.5 79.6232 14.5C79.0032 14.5 78.5132 14.67 78.1532 15.01C77.7999 15.35 77.6099 15.88 77.5832 16.6C77.5765 16.8 77.5732 17.1 77.5732 17.5C77.5732 17.9 77.5765 18.2 77.5832 18.4C77.6099 19.12 77.7999 19.65 78.1532 19.99C78.5132 20.33 79.0032 20.5 79.6232 20.5C80.2432 20.5 80.7432 20.3233 81.1232 19.97C81.5032 19.6167 81.6932 19.0933 81.6932 18.4V17.89H79.9532C79.8865 17.89 79.8332 17.87 79.7932 17.83C79.7532 17.7833 79.7332 17.7267 79.7332 17.66V17.52C79.7332 17.4533 79.7532 17.4 79.7932 17.36C79.8332 17.3133 79.8865 17.29 79.9532 17.29H82.0932C82.1665 17.29 82.2232 17.31 82.2632 17.35C82.3032 17.39 82.3232 17.4467 82.3232 17.52V18.4C82.3232 18.9333 82.2165 19.4033 82.0032 19.81C81.7899 20.2167 81.4799 20.5333 81.0732 20.76C80.6665 20.9867 80.1832 21.1 79.6232 21.1ZM88.542 21.1C88.022 21.1 87.5686 21.0167 87.182 20.85C86.802 20.6767 86.5086 20.4533 86.302 20.18C86.102 19.9067 85.9953 19.6133 85.982 19.3C85.982 19.2467 86.002 19.2 86.042 19.16C86.082 19.12 86.132 19.1 86.192 19.1H86.392C86.512 19.1 86.5853 19.1667 86.612 19.3C86.6586 19.62 86.842 19.9 87.162 20.14C87.482 20.38 87.942 20.5 88.542 20.5C89.1753 20.5 89.6453 20.3867 89.952 20.16C90.2653 19.9267 90.422 19.6033 90.422 19.19C90.422 18.9367 90.3453 18.73 90.192 18.57C90.0453 18.4033 89.8286 18.26 89.542 18.14C89.2553 18.0133 88.822 17.8567 88.242 17.67C87.7286 17.5033 87.3253 17.34 87.032 17.18C86.7453 17.02 86.532 16.8233 86.392 16.59C86.252 16.3567 86.182 16.06 86.182 15.7C86.182 15.36 86.272 15.0533 86.452 14.78C86.6386 14.5067 86.9053 14.2933 87.252 14.14C87.5986 13.98 88.012 13.9 88.492 13.9C88.9853 13.9 89.4086 13.99 89.762 14.17C90.1153 14.3433 90.382 14.5667 90.562 14.84C90.742 15.1067 90.8386 15.3767 90.852 15.65C90.852 15.7033 90.832 15.75 90.792 15.79C90.7586 15.83 90.7086 15.85 90.642 15.85H90.442C90.3953 15.85 90.3486 15.8367 90.302 15.81C90.2553 15.7767 90.2286 15.7233 90.222 15.65C90.182 15.3167 90.002 15.0433 89.682 14.83C89.3686 14.61 88.972 14.5 88.492 14.5C87.9786 14.5 87.5686 14.6 87.262 14.8C86.962 15 86.812 15.3 86.812 15.7C86.812 15.96 86.8786 16.1767 87.012 16.35C87.152 16.5167 87.3586 16.6633 87.632 16.79C87.9053 16.91 88.3086 17.0567 88.842 17.23C89.3886 17.4033 89.8153 17.57 90.122 17.73C90.4286 17.89 90.6586 18.0833 90.812 18.31C90.972 18.5367 91.052 18.83 91.052 19.19C91.052 19.79 90.8286 20.26 90.382 20.6C89.9353 20.9333 89.322 21.1 88.542 21.1ZM94.8666 21.1C93.1533 21.1 92.2733 20.18 92.2266 18.34C92.22 18.14 92.2166 17.86 92.2166 17.5C92.2166 17.14 92.22 16.86 92.2266 16.66C92.2533 15.7533 92.5 15.0667 92.9666 14.6C93.4333 14.1333 94.0666 13.9 94.8666 13.9C95.6666 13.9 96.3 14.1333 96.7666 14.6C97.2333 15.0667 97.48 15.7533 97.5066 16.66C97.52 17.06 97.5266 17.34 97.5266 17.5C97.5266 17.66 97.52 17.94 97.5066 18.34C97.46 20.18 96.58 21.1 94.8666 21.1ZM94.8666 20.5C95.4666 20.5 95.9433 20.32 96.2966 19.96C96.6566 19.5933 96.85 19.0367 96.8766 18.29C96.89 17.89 96.8966 17.6267 96.8966 17.5C96.8966 17.3733 96.89 17.11 96.8766 16.71C96.85 15.9633 96.6566 15.41 96.2966 15.05C95.9366 14.6833 95.46 14.5 94.8666 14.5C94.2733 14.5 93.7966 14.6833 93.4366 15.05C93.0766 15.41 92.8833 15.9633 92.8566 16.71C92.85 16.91 92.8466 17.1733 92.8466 17.5C92.8466 17.8267 92.85 18.09 92.8566 18.29C92.8833 19.0367 93.0733 19.5933 93.4266 19.96C93.7866 20.32 94.2666 20.5 94.8666 20.5ZM101.488 21.1C99.7744 21.1 98.8944 20.18 98.8477 18.34C98.8411 18.14 98.8377 17.86 98.8377 17.5C98.8377 17.14 98.8411 16.86 98.8477 16.66C98.8744 15.7533 99.1211 15.0667 99.5877 14.6C100.054 14.1333 100.688 13.9 101.488 13.9C102.288 13.9 102.921 14.1333 103.388 14.6C103.854 15.0667 104.101 15.7533 104.128 16.66C104.141 17.06 104.148 17.34 104.148 17.5C104.148 17.66 104.141 17.94 104.128 18.34C104.081 20.18 103.201 21.1 101.488 21.1ZM101.488 20.5C102.088 20.5 102.564 20.32 102.918 19.96C103.278 19.5933 103.471 19.0367 103.498 18.29C103.511 17.89 103.518 17.6267 103.518 17.5C103.518 17.3733 103.511 17.11 103.498 16.71C103.471 15.9633 103.278 15.41 102.918 15.05C102.558 14.6833 102.081 14.5 101.488 14.5C100.894 14.5 100.418 14.6833 100.058 15.05C99.6977 15.41 99.5044 15.9633 99.4777 16.71C99.4711 16.91 99.4677 17.1733 99.4677 17.5C99.4677 17.8267 99.4711 18.09 99.4777 18.29C99.5044 19.0367 99.6944 19.5933 100.048 19.96C100.408 20.32 100.888 20.5 101.488 20.5ZM105.959 21C105.892 21 105.839 20.98 105.799 20.94C105.759 20.9 105.739 20.8467 105.739 20.78V14.23C105.739 14.1633 105.759 14.11 105.799 14.07C105.839 14.0233 105.892 14 105.959 14H106.169C106.255 14 106.325 14.04 106.379 14.12L110.069 19.76V14.23C110.069 14.1633 110.089 14.11 110.129 14.07C110.169 14.0233 110.222 14 110.289 14H110.469C110.542 14 110.599 14.02 110.639 14.06C110.679 14.1 110.699 14.1567 110.699 14.23V20.77C110.699 20.8367 110.679 20.8933 110.639 20.94C110.599 20.98 110.545 21 110.479 21H110.259C110.172 21 110.102 20.96 110.049 20.88L106.369 15.26V20.78C106.369 20.8467 106.345 20.9 106.299 20.94C106.259 20.98 106.205 21 106.139 21H105.959ZM116.639 21C116.573 21 116.519 20.98 116.479 20.94C116.439 20.9 116.419 20.8467 116.419 20.78V14.6H114.439C114.373 14.6 114.319 14.58 114.279 14.54C114.239 14.5 114.219 14.4467 114.219 14.38V14.23C114.219 14.1633 114.239 14.11 114.279 14.07C114.319 14.0233 114.373 14 114.439 14H119.019C119.093 14 119.149 14.02 119.189 14.06C119.229 14.1 119.249 14.1567 119.249 14.23V14.38C119.249 14.4467 119.226 14.5 119.179 14.54C119.139 14.58 119.086 14.6 119.019 14.6H117.049V20.78C117.049 20.8467 117.026 20.9 116.979 20.94C116.939 20.98 116.886 21 116.819 21H116.639ZM122.66 21.1C120.946 21.1 120.066 20.18 120.02 18.34C120.013 18.14 120.01 17.86 120.01 17.5C120.01 17.14 120.013 16.86 120.02 16.66C120.046 15.7533 120.293 15.0667 120.76 14.6C121.226 14.1333 121.86 13.9 122.66 13.9C123.46 13.9 124.093 14.1333 124.56 14.6C125.026 15.0667 125.273 15.7533 125.3 16.66C125.313 17.06 125.32 17.34 125.32 17.5C125.32 17.66 125.313 17.94 125.3 18.34C125.253 20.18 124.373 21.1 122.66 21.1ZM122.66 20.5C123.26 20.5 123.736 20.32 124.09 19.96C124.45 19.5933 124.643 19.0367 124.67 18.29C124.683 17.89 124.69 17.6267 124.69 17.5C124.69 17.3733 124.683 17.11 124.67 16.71C124.643 15.9633 124.45 15.41 124.09 15.05C123.73 14.6833 123.253 14.5 122.66 14.5C122.066 14.5 121.59 14.6833 121.23 15.05C120.87 15.41 120.676 15.9633 120.65 16.71C120.643 16.91 120.64 17.1733 120.64 17.5C120.64 17.8267 120.643 18.09 120.65 18.29C120.676 19.0367 120.866 19.5933 121.22 19.96C121.58 20.32 122.06 20.5 122.66 20.5ZM51.744 40.16C50.208 40.16 49.008 39.7867 48.144 39.04C47.28 38.2827 46.8213 37.2107 46.768 35.824C46.7573 35.5147 46.752 35.024 46.752 34.352C46.752 33.68 46.7573 33.1893 46.768 32.88C46.8213 31.5253 47.2853 30.48 48.16 29.744C49.0453 29.008 50.24 28.64 51.744 28.64C52.7573 28.64 53.6373 28.8053 54.384 29.136C55.1413 29.4667 55.7173 29.888 56.112 30.4C56.5173 30.912 56.7307 31.44 56.752 31.984C56.752 32.08 56.7147 32.16 56.64 32.224C56.576 32.288 56.496 32.32 56.4 32.32H54.064C53.9573 32.32 53.872 32.304 53.808 32.272C53.744 32.24 53.6907 32.1813 53.648 32.096C53.5093 31.7867 53.2907 31.52 52.992 31.296C52.6933 31.0613 52.2773 30.944 51.744 30.944C50.4747 30.944 49.808 31.616 49.744 32.96C49.7333 33.2587 49.728 33.7227 49.728 34.352C49.728 34.9707 49.7333 35.4347 49.744 35.744C49.808 37.152 50.4907 37.856 51.792 37.856C52.4213 37.856 52.9227 37.696 53.296 37.376C53.68 37.0453 53.872 36.544 53.872 35.872V35.568H52.368C52.2507 35.568 52.1547 35.5307 52.08 35.456C52.0053 35.3707 51.968 35.2693 51.968 35.152V33.968C51.968 33.8507 52.0053 33.7547 52.08 33.68C52.1547 33.5947 52.2507 33.552 52.368 33.552H56.4C56.5173 33.552 56.6133 33.5947 56.688 33.68C56.7627 33.7547 56.8 33.8507 56.8 33.968V35.792C56.8 36.6987 56.592 37.4827 56.176 38.144C55.76 38.7947 55.168 39.296 54.4 39.648C53.6427 39.9893 52.7573 40.16 51.744 40.16ZM62.3956 40.16C61.073 40.16 60.0543 39.8453 59.3396 39.216C58.625 38.5867 58.2356 37.7013 58.1716 36.56C58.161 36.4213 58.1556 36.1813 58.1556 35.84C58.1556 35.4987 58.161 35.2587 58.1716 35.12C58.2356 33.9893 58.6356 33.1093 59.3716 32.48C60.1076 31.84 61.1156 31.52 62.3956 31.52C63.6863 31.52 64.6996 31.84 65.4356 32.48C66.1716 33.1093 66.5716 33.9893 66.6356 35.12C66.6463 35.2587 66.6516 35.4987 66.6516 35.84C66.6516 36.1813 66.6463 36.4213 66.6356 36.56C66.5716 37.7013 66.1823 38.5867 65.4676 39.216C64.753 39.8453 63.729 40.16 62.3956 40.16ZM62.3956 38.208C62.865 38.208 63.2116 38.0693 63.4356 37.792C63.6596 37.504 63.7876 37.0667 63.8196 36.48C63.8303 36.3733 63.8356 36.16 63.8356 35.84C63.8356 35.52 63.8303 35.3067 63.8196 35.2C63.7876 34.624 63.6543 34.192 63.4196 33.904C63.1956 33.616 62.8543 33.472 62.3956 33.472C61.5103 33.472 61.041 34.048 60.9876 35.2L60.9716 35.84L60.9876 36.48C61.009 37.0667 61.1316 37.504 61.3556 37.792C61.5903 38.0693 61.937 38.208 62.3956 38.208ZM72.1769 40.16C70.8542 40.16 69.8355 39.8453 69.1209 39.216C68.4062 38.5867 68.0169 37.7013 67.9529 36.56C67.9422 36.4213 67.9369 36.1813 67.9369 35.84C67.9369 35.4987 67.9422 35.2587 67.9529 35.12C68.0169 33.9893 68.4169 33.1093 69.1529 32.48C69.8889 31.84 70.8969 31.52 72.1769 31.52C73.4675 31.52 74.4809 31.84 75.2169 32.48C75.9529 33.1093 76.3529 33.9893 76.4169 35.12C76.4275 35.2587 76.4329 35.4987 76.4329 35.84C76.4329 36.1813 76.4275 36.4213 76.4169 36.56C76.3529 37.7013 75.9635 38.5867 75.2489 39.216C74.5342 39.8453 73.5102 40.16 72.1769 40.16ZM72.1769 38.208C72.6462 38.208 72.9929 38.0693 73.2169 37.792C73.4409 37.504 73.5689 37.0667 73.6009 36.48C73.6115 36.3733 73.6169 36.16 73.6169 35.84C73.6169 35.52 73.6115 35.3067 73.6009 35.2C73.5689 34.624 73.4355 34.192 73.2009 33.904C72.9769 33.616 72.6355 33.472 72.1769 33.472C71.2915 33.472 70.8222 34.048 70.7689 35.2L70.7529 35.84L70.7689 36.48C70.7902 37.0667 70.9129 37.504 71.1369 37.792C71.3715 38.0693 71.7182 38.208 72.1769 38.208ZM82.1021 43.52C81.0888 43.52 80.2675 43.3547 79.6381 43.024C79.0088 42.6933 78.5555 42.3147 78.2781 41.888C78.0115 41.4613 77.8781 41.104 77.8781 40.816C77.8781 40.72 77.9208 40.6347 78.0061 40.56C78.0915 40.4853 78.1875 40.448 78.2941 40.448H80.3261C80.4328 40.448 80.5128 40.4693 80.5661 40.512C80.6301 40.5653 80.6888 40.6507 80.7421 40.768C80.8488 41.0133 80.9928 41.2053 81.1741 41.344C81.3555 41.4933 81.6381 41.568 82.0221 41.568C82.5128 41.568 82.8755 41.4453 83.1101 41.2C83.3448 40.9653 83.4621 40.5653 83.4621 40V38.928C82.9181 39.5253 82.1395 39.824 81.1261 39.824C80.0488 39.824 79.2221 39.5093 78.6461 38.88C78.0808 38.24 77.7715 37.3173 77.7181 36.112L77.7021 35.68C77.7021 34.3893 77.9901 33.376 78.5661 32.64C79.1421 31.8933 79.9955 31.52 81.1261 31.52C81.6701 31.52 82.1501 31.6267 82.5661 31.84C82.9821 32.0427 83.3341 32.32 83.6221 32.672V32.08C83.6221 31.9627 83.6595 31.8667 83.7341 31.792C83.8195 31.7173 83.9155 31.68 84.0221 31.68H85.8621C85.9795 31.68 86.0755 31.7227 86.1501 31.808C86.2355 31.8827 86.2781 31.9733 86.2781 32.08V39.776C86.2781 40.992 85.9155 41.92 85.1901 42.56C84.4648 43.2 83.4355 43.52 82.1021 43.52ZM81.9901 37.744C82.4701 37.744 82.8275 37.6 83.0621 37.312C83.2968 37.0133 83.4301 36.64 83.4621 36.192C83.4728 36.1173 83.4781 35.952 83.4781 35.696C83.4781 35.4507 83.4728 35.2907 83.4621 35.216C83.4408 34.768 83.3075 34.4 83.0621 34.112C82.8275 33.8133 82.4701 33.664 81.9901 33.664C81.4888 33.664 81.1261 33.8133 80.9021 34.112C80.6781 34.4107 80.5555 34.8213 80.5341 35.344L80.5181 35.696C80.5181 36.3253 80.6248 36.8267 80.8381 37.2C81.0515 37.5627 81.4355 37.744 81.9901 37.744ZM88.5628 40C88.4561 40 88.3601 39.9627 88.2747 39.888C88.2001 39.8027 88.1628 39.7067 88.1628 39.6V29.04C88.1628 28.9227 88.2001 28.8267 88.2747 28.752C88.3601 28.6773 88.4561 28.64 88.5628 28.64H90.4508C90.5681 28.64 90.6641 28.6773 90.7388 28.752C90.8134 28.8267 90.8508 28.9227 90.8508 29.04V39.6C90.8508 39.7173 90.8134 39.8133 90.7388 39.888C90.6641 39.9627 90.5681 40 90.4508 40H88.5628ZM96.5809 40.16C95.3009 40.16 94.2929 39.8133 93.5569 39.12C92.8209 38.4267 92.4369 37.4187 92.4049 36.096V35.536C92.4475 34.2773 92.8369 33.296 93.5729 32.592C94.3195 31.8773 95.3169 31.52 96.5649 31.52C97.4715 31.52 98.2342 31.7067 98.8529 32.08C99.4822 32.4427 99.9515 32.944 100.261 33.584C100.581 34.224 100.741 34.96 100.741 35.792V36.176C100.741 36.2827 100.704 36.3787 100.629 36.464C100.554 36.5387 100.458 36.576 100.341 36.576H95.2209V36.688C95.2422 37.1893 95.3649 37.5947 95.5889 37.904C95.8129 38.2133 96.1382 38.368 96.5649 38.368C96.8315 38.368 97.0502 38.3147 97.2209 38.208C97.3915 38.0907 97.5462 37.952 97.6849 37.792C97.7809 37.6747 97.8555 37.6053 97.9089 37.584C97.9729 37.552 98.0689 37.536 98.1969 37.536H100.181C100.277 37.536 100.357 37.568 100.421 37.632C100.496 37.6853 100.533 37.76 100.533 37.856C100.533 38.1333 100.373 38.4533 100.053 38.816C99.7435 39.1787 99.2902 39.4933 98.6929 39.76C98.0955 40.0267 97.3915 40.16 96.5809 40.16ZM97.9249 34.992V34.96C97.9249 34.4373 97.8022 34.0267 97.5569 33.728C97.3222 33.4187 96.9915 33.264 96.5649 33.264C96.1489 33.264 95.8182 33.4187 95.5729 33.728C95.3382 34.0267 95.2209 34.4373 95.2209 34.96V34.992H97.9249ZM106.223 40C106.116 40 106.02 39.9627 105.935 39.888C105.86 39.8027 105.823 39.7067 105.823 39.6V29.2C105.823 29.0827 105.86 28.9867 105.935 28.912C106.02 28.8373 106.116 28.8 106.223 28.8H110.703C112.068 28.8 113.14 29.1147 113.919 29.744C114.708 30.3733 115.103 31.2907 115.103 32.496C115.103 33.6907 114.714 34.592 113.935 35.2C113.156 35.7973 112.079 36.096 110.703 36.096H108.799V39.6C108.799 39.7173 108.756 39.8133 108.671 39.888C108.596 39.9627 108.5 40 108.383 40H106.223ZM110.623 33.888C111.092 33.888 111.46 33.7707 111.727 33.536C111.994 33.2907 112.127 32.9333 112.127 32.464C112.127 32.0267 111.999 31.68 111.743 31.424C111.498 31.1573 111.124 31.024 110.623 31.024H108.751V33.888H110.623ZM116.86 40C116.753 40 116.657 39.9627 116.572 39.888C116.497 39.8027 116.46 39.7067 116.46 39.6V29.04C116.46 28.9227 116.497 28.8267 116.572 28.752C116.657 28.6773 116.753 28.64 116.86 28.64H118.748C118.865 28.64 118.961 28.6773 119.036 28.752C119.11 28.8267 119.148 28.9227 119.148 29.04V39.6C119.148 39.7173 119.11 39.8133 119.036 39.888C118.961 39.9627 118.865 40 118.748 40H116.86ZM123.534 40.16C122.968 40.16 122.451 40.0533 121.982 39.84C121.523 39.616 121.16 39.3173 120.894 38.944C120.638 38.56 120.51 38.1387 120.51 37.68C120.51 36.944 120.808 36.352 121.406 35.904C122.014 35.456 122.846 35.1467 123.902 34.976L125.902 34.672V34.448C125.902 34.0427 125.816 33.744 125.646 33.552C125.475 33.36 125.187 33.264 124.782 33.264C124.536 33.264 124.334 33.3067 124.174 33.392C124.014 33.4773 123.848 33.5947 123.678 33.744C123.528 33.872 123.416 33.9573 123.342 34C123.31 34.0853 123.251 34.128 123.166 34.128H121.422C121.315 34.128 121.224 34.096 121.15 34.032C121.086 33.9573 121.059 33.872 121.07 33.776C121.08 33.488 121.219 33.168 121.486 32.816C121.763 32.464 122.179 32.16 122.734 31.904C123.299 31.648 123.992 31.52 124.814 31.52C126.126 31.52 127.096 31.8133 127.726 32.4C128.355 32.976 128.67 33.7547 128.67 34.736V39.6C128.67 39.7067 128.632 39.8027 128.558 39.888C128.483 39.9627 128.387 40 128.27 40H126.414C126.307 40 126.211 39.9627 126.126 39.888C126.051 39.8027 126.014 39.7067 126.014 39.6V39.04C125.779 39.3707 125.448 39.6427 125.022 39.856C124.606 40.0587 124.11 40.16 123.534 40.16ZM124.286 38.336C124.776 38.336 125.171 38.176 125.47 37.856C125.779 37.536 125.934 37.0667 125.934 36.448V36.224L124.574 36.464C123.614 36.6347 123.134 36.9707 123.134 37.472C123.134 37.7387 123.246 37.952 123.47 38.112C123.694 38.2613 123.966 38.336 124.286 38.336ZM131.762 43.04C131.666 43.04 131.586 43.008 131.522 42.944C131.458 42.88 131.426 42.8 131.426 42.704C131.426 42.6293 131.442 42.56 131.474 42.496L132.722 39.488L129.65 32.224C129.618 32.1387 129.602 32.0747 129.602 32.032C129.623 31.936 129.666 31.856 129.73 31.792C129.794 31.7173 129.874 31.68 129.97 31.68H131.794C132.018 31.68 132.172 31.792 132.258 32.016L134.082 36.672L135.954 32.016C136.06 31.792 136.22 31.68 136.434 31.68H138.226C138.322 31.68 138.402 31.7173 138.466 31.792C138.54 31.856 138.578 31.9307 138.578 32.016C138.578 32.0587 138.562 32.128 138.53 32.224L134.002 42.704C133.916 42.928 133.756 43.04 133.522 43.04H131.762Z" fill="#1C1C1C"/>
<defs>
<clipPath id="clip0_81_689">
<rect width="28" height="29.9688" fill="white" transform="translate(12 9)"/>
</clipPath>
</defs>
</svg>
