<svg width="14" height="18" viewBox="0 0 14 18" fill="none" xmlns="http://www.w3.org/2000/svg">
<path d="M2.60722 0.930689L3.9908 0.513546C4.44742 0.376094 4.93845 0.409444 5.3723 0.607375C5.80615 0.805307 6.15318 1.1543 6.34865 1.58926L7.31865 3.7464C7.48701 4.12063 7.53393 4.53819 7.45284 4.94046C7.37175 5.34272 7.16671 5.70949 6.86651 5.98926L5.39008 7.36498C5.19222 7.55283 5.34222 8.28498 6.06508 9.53783C6.78865 10.7914 7.34794 11.2871 7.6058 11.21L9.54008 10.6185C9.93216 10.4986 10.3519 10.5044 10.7406 10.635C11.1292 10.7657 11.4672 11.0147 11.7072 11.3471L13.0858 13.2578C13.3642 13.6437 13.4932 14.1175 13.4486 14.5912C13.4041 15.0649 13.1891 15.5064 12.8437 15.8335L11.7779 16.8428C11.4339 17.1686 11.0096 17.3973 10.5483 17.5056C10.087 17.6139 9.6053 17.5979 9.15222 17.4593C6.91937 16.7757 4.85151 14.7471 2.92079 11.4021C0.985795 8.05212 0.255081 5.2264 0.764367 2.91783C0.867084 2.45266 1.092 2.02329 1.41594 1.67399C1.73987 1.3247 2.15109 1.06811 2.60722 0.930689Z" fill="#F7F7F7"/>
</svg>
