<svg width="32" height="30" viewBox="0 0 32 30" fill="none" xmlns="http://www.w3.org/2000/svg">
<path d="M26.312 24.36C26.312 24.36 26.453 24.265 26.672 24.099C29.948 21.563 32 17.891 32 13.808C32 6.188 24.839 0 16.005 0C7.171 0 0 6.188 0 13.808C0 21.427 7.161 27.615 15.995 27.615C17.126 27.615 18.255 27.516 19.364 27.308L19.713 27.251C21.958 28.703 25.229 29.902 28.093 29.902C28.984 29.902 29.401 29.173 28.833 28.433C27.969 27.37 26.776 25.673 26.312 24.361V24.36ZM24.364 18.328C23.412 19.751 20.453 22.177 16.027 22.177H15.964C11.527 22.177 8.573 19.74 7.625 18.328C7.43571 18.1111 7.30948 17.8466 7.26 17.563C7.24754 17.3905 7.30351 17.22 7.4158 17.0884C7.52809 16.9569 7.68766 16.8748 7.86 16.86C7.869 16.855 7.875 16.855 7.885 16.855C8.042 16.8631 8.1935 16.9154 8.322 17.006C10.4892 18.7725 13.198 19.7399 15.994 19.746C18.8005 19.7771 21.5256 18.8035 23.677 17.001C23.7906 16.8971 23.9391 16.8396 24.093 16.84C24.448 16.84 24.729 17.121 24.74 17.471C24.6969 17.7838 24.5728 18.0799 24.38 18.33L24.364 18.328Z" fill="#1C1C1C"/>
</svg>
