<svg width="97" height="18" viewBox="0 0 97 18" fill="none" xmlns="http://www.w3.org/2000/svg">
<path d="M7.248 18V4.464H0.48V0.719999H17.76V4.464H10.992V18H7.248ZM19.5309 18V0.743999H33.2349C34.2109 0.743999 35.0509 1.096 35.7549 1.8C36.4589 2.504 36.8109 3.336 36.8109 4.296V8.76C36.8109 9.72 36.4589 10.552 35.7549 11.256C35.0509 11.96 34.2109 12.312 33.2349 12.312H33.0669L36.8109 16.728V18H32.9709L28.1949 12.312L23.2509 12.336V18H19.5309ZM24.0429 8.568H32.2509C32.7789 8.568 33.0429 8.568 33.0429 8.568C33.0429 8.568 33.0429 8.304 33.0429 7.776V5.256C33.0429 4.728 33.0429 4.464 33.0429 4.464C33.0429 4.464 32.7789 4.464 32.2509 4.464H24.0429C23.5149 4.464 23.2509 4.464 23.2509 4.464C23.2509 4.464 23.2509 4.728 23.2509 5.256V7.776C23.2509 8.304 23.2509 8.568 23.2509 8.568C23.2509 8.568 23.5149 8.568 24.0429 8.568ZM59.4701 18V0.719999H73.1741C74.1501 0.719999 74.9901 1.072 75.6941 1.776C76.3981 2.464 76.7501 3.296 76.7501 4.272V14.448C76.7501 15.424 76.3981 16.264 75.6941 16.968C74.9901 17.656 74.1501 18 73.1741 18H59.4701ZM63.9821 14.256H72.1901C72.7181 14.256 72.9821 14.256 72.9821 14.256C72.9821 14.256 72.9821 13.992 72.9821 13.464V5.256C72.9821 4.728 72.9821 4.464 72.9821 4.464C72.9821 4.464 72.7181 4.464 72.1901 4.464H63.9821C63.4541 4.464 63.1901 4.464 63.1901 4.464C63.1901 4.464 63.1901 4.728 63.1901 5.256V13.464C63.1901 13.992 63.1901 14.256 63.1901 14.256C63.1901 14.256 63.4541 14.256 63.9821 14.256ZM79.4858 18V4.272C79.4858 3.296 79.8298 2.464 80.5178 1.776C81.2218 1.072 82.0618 0.719999 83.0378 0.719999H93.1898C94.1658 0.719999 95.0058 1.072 95.7098 1.776C96.4138 2.464 96.7658 3.296 96.7658 4.272V18H92.9978V12.432H83.2058V18H79.4858ZM83.2058 8.688H92.9978V5.256C92.9978 4.728 92.9978 4.464 92.9978 4.464C92.9978 4.464 92.7338 4.464 92.2057 4.464H83.9978C83.4698 4.464 83.2058 4.464 83.2058 4.464C83.2058 4.464 83.2058 4.728 83.2058 5.256V8.688Z" fill="white"/>
<path d="M39.4076 18V4.272C39.4076 3.296 39.7516 2.464 40.4396 1.776C41.1436 1.072 41.9836 0.719999 42.9596 0.719999H53.1116C54.0876 0.719999 54.9276 1.072 55.6316 1.776C56.3356 2.464 56.6876 3.296 56.6876 4.272V18H52.9196V12.432H43.1276V18H39.4076ZM43.1276 8.688H52.9196V5.256C52.9196 4.728 52.9196 4.464 52.9196 4.464C52.9196 4.464 52.6556 4.464 52.1276 4.464H43.9196C43.3916 4.464 43.1276 4.464 43.1276 4.464C43.1276 4.464 43.1276 4.728 43.1276 5.256V8.688Z" fill="#F8C616"/>
</svg>
